%TF.GenerationSoftware,KiCad,Pcbnew,9.0.9*%
%TF.CreationDate,2026-05-25T05:03:07+03:00*%
%TF.ProjectId,STM32_Bluepill,53544d33-325f-4426-9c75-6570696c6c2e,rev?*%
%TF.SameCoordinates,Original*%
%TF.FileFunction,Legend,Top*%
%TF.FilePolarity,Positive*%
%FSLAX46Y46*%
G04 Gerber Fmt 4.6, Leading zero omitted, Abs format (unit mm)*
G04 Created by KiCad (PCBNEW 9.0.9) date 2026-05-25 05:03:07*
%MOMM*%
%LPD*%
G01*
G04 APERTURE LIST*
%ADD10C,0.150000*%
%ADD11C,0.120000*%
G04 APERTURE END LIST*
D10*
X164857142Y-119679580D02*
X164809523Y-119727200D01*
X164809523Y-119727200D02*
X164666666Y-119774819D01*
X164666666Y-119774819D02*
X164571428Y-119774819D01*
X164571428Y-119774819D02*
X164428571Y-119727200D01*
X164428571Y-119727200D02*
X164333333Y-119631961D01*
X164333333Y-119631961D02*
X164285714Y-119536723D01*
X164285714Y-119536723D02*
X164238095Y-119346247D01*
X164238095Y-119346247D02*
X164238095Y-119203390D01*
X164238095Y-119203390D02*
X164285714Y-119012914D01*
X164285714Y-119012914D02*
X164333333Y-118917676D01*
X164333333Y-118917676D02*
X164428571Y-118822438D01*
X164428571Y-118822438D02*
X164571428Y-118774819D01*
X164571428Y-118774819D02*
X164666666Y-118774819D01*
X164666666Y-118774819D02*
X164809523Y-118822438D01*
X164809523Y-118822438D02*
X164857142Y-118870057D01*
X165809523Y-119774819D02*
X165238095Y-119774819D01*
X165523809Y-119774819D02*
X165523809Y-118774819D01*
X165523809Y-118774819D02*
X165428571Y-118917676D01*
X165428571Y-118917676D02*
X165333333Y-119012914D01*
X165333333Y-119012914D02*
X165238095Y-119060533D01*
X166190476Y-118870057D02*
X166238095Y-118822438D01*
X166238095Y-118822438D02*
X166333333Y-118774819D01*
X166333333Y-118774819D02*
X166571428Y-118774819D01*
X166571428Y-118774819D02*
X166666666Y-118822438D01*
X166666666Y-118822438D02*
X166714285Y-118870057D01*
X166714285Y-118870057D02*
X166761904Y-118965295D01*
X166761904Y-118965295D02*
X166761904Y-119060533D01*
X166761904Y-119060533D02*
X166714285Y-119203390D01*
X166714285Y-119203390D02*
X166142857Y-119774819D01*
X166142857Y-119774819D02*
X166761904Y-119774819D01*
X173261905Y-112304819D02*
X173261905Y-111304819D01*
X173261905Y-111304819D02*
X173500000Y-111304819D01*
X173500000Y-111304819D02*
X173642857Y-111352438D01*
X173642857Y-111352438D02*
X173738095Y-111447676D01*
X173738095Y-111447676D02*
X173785714Y-111542914D01*
X173785714Y-111542914D02*
X173833333Y-111733390D01*
X173833333Y-111733390D02*
X173833333Y-111876247D01*
X173833333Y-111876247D02*
X173785714Y-112066723D01*
X173785714Y-112066723D02*
X173738095Y-112161961D01*
X173738095Y-112161961D02*
X173642857Y-112257200D01*
X173642857Y-112257200D02*
X173500000Y-112304819D01*
X173500000Y-112304819D02*
X173261905Y-112304819D01*
X174214286Y-111400057D02*
X174261905Y-111352438D01*
X174261905Y-111352438D02*
X174357143Y-111304819D01*
X174357143Y-111304819D02*
X174595238Y-111304819D01*
X174595238Y-111304819D02*
X174690476Y-111352438D01*
X174690476Y-111352438D02*
X174738095Y-111400057D01*
X174738095Y-111400057D02*
X174785714Y-111495295D01*
X174785714Y-111495295D02*
X174785714Y-111590533D01*
X174785714Y-111590533D02*
X174738095Y-111733390D01*
X174738095Y-111733390D02*
X174166667Y-112304819D01*
X174166667Y-112304819D02*
X174785714Y-112304819D01*
X182833333Y-62304819D02*
X182500000Y-61828628D01*
X182261905Y-62304819D02*
X182261905Y-61304819D01*
X182261905Y-61304819D02*
X182642857Y-61304819D01*
X182642857Y-61304819D02*
X182738095Y-61352438D01*
X182738095Y-61352438D02*
X182785714Y-61400057D01*
X182785714Y-61400057D02*
X182833333Y-61495295D01*
X182833333Y-61495295D02*
X182833333Y-61638152D01*
X182833333Y-61638152D02*
X182785714Y-61733390D01*
X182785714Y-61733390D02*
X182738095Y-61781009D01*
X182738095Y-61781009D02*
X182642857Y-61828628D01*
X182642857Y-61828628D02*
X182261905Y-61828628D01*
X183690476Y-61638152D02*
X183690476Y-62304819D01*
X183452381Y-61257200D02*
X183214286Y-61971485D01*
X183214286Y-61971485D02*
X183833333Y-61971485D01*
X137283333Y-80679580D02*
X137235714Y-80727200D01*
X137235714Y-80727200D02*
X137092857Y-80774819D01*
X137092857Y-80774819D02*
X136997619Y-80774819D01*
X136997619Y-80774819D02*
X136854762Y-80727200D01*
X136854762Y-80727200D02*
X136759524Y-80631961D01*
X136759524Y-80631961D02*
X136711905Y-80536723D01*
X136711905Y-80536723D02*
X136664286Y-80346247D01*
X136664286Y-80346247D02*
X136664286Y-80203390D01*
X136664286Y-80203390D02*
X136711905Y-80012914D01*
X136711905Y-80012914D02*
X136759524Y-79917676D01*
X136759524Y-79917676D02*
X136854762Y-79822438D01*
X136854762Y-79822438D02*
X136997619Y-79774819D01*
X136997619Y-79774819D02*
X137092857Y-79774819D01*
X137092857Y-79774819D02*
X137235714Y-79822438D01*
X137235714Y-79822438D02*
X137283333Y-79870057D01*
X138140476Y-79774819D02*
X137950000Y-79774819D01*
X137950000Y-79774819D02*
X137854762Y-79822438D01*
X137854762Y-79822438D02*
X137807143Y-79870057D01*
X137807143Y-79870057D02*
X137711905Y-80012914D01*
X137711905Y-80012914D02*
X137664286Y-80203390D01*
X137664286Y-80203390D02*
X137664286Y-80584342D01*
X137664286Y-80584342D02*
X137711905Y-80679580D01*
X137711905Y-80679580D02*
X137759524Y-80727200D01*
X137759524Y-80727200D02*
X137854762Y-80774819D01*
X137854762Y-80774819D02*
X138045238Y-80774819D01*
X138045238Y-80774819D02*
X138140476Y-80727200D01*
X138140476Y-80727200D02*
X138188095Y-80679580D01*
X138188095Y-80679580D02*
X138235714Y-80584342D01*
X138235714Y-80584342D02*
X138235714Y-80346247D01*
X138235714Y-80346247D02*
X138188095Y-80251009D01*
X138188095Y-80251009D02*
X138140476Y-80203390D01*
X138140476Y-80203390D02*
X138045238Y-80155771D01*
X138045238Y-80155771D02*
X137854762Y-80155771D01*
X137854762Y-80155771D02*
X137759524Y-80203390D01*
X137759524Y-80203390D02*
X137711905Y-80251009D01*
X137711905Y-80251009D02*
X137664286Y-80346247D01*
X150333333Y-86304819D02*
X150000000Y-85828628D01*
X149761905Y-86304819D02*
X149761905Y-85304819D01*
X149761905Y-85304819D02*
X150142857Y-85304819D01*
X150142857Y-85304819D02*
X150238095Y-85352438D01*
X150238095Y-85352438D02*
X150285714Y-85400057D01*
X150285714Y-85400057D02*
X150333333Y-85495295D01*
X150333333Y-85495295D02*
X150333333Y-85638152D01*
X150333333Y-85638152D02*
X150285714Y-85733390D01*
X150285714Y-85733390D02*
X150238095Y-85781009D01*
X150238095Y-85781009D02*
X150142857Y-85828628D01*
X150142857Y-85828628D02*
X149761905Y-85828628D01*
X151285714Y-86304819D02*
X150714286Y-86304819D01*
X151000000Y-86304819D02*
X151000000Y-85304819D01*
X151000000Y-85304819D02*
X150904762Y-85447676D01*
X150904762Y-85447676D02*
X150809524Y-85542914D01*
X150809524Y-85542914D02*
X150714286Y-85590533D01*
X163523809Y-105678628D02*
X163523809Y-106154819D01*
X163190476Y-105154819D02*
X163523809Y-105678628D01*
X163523809Y-105678628D02*
X163857142Y-105154819D01*
X164142857Y-105250057D02*
X164190476Y-105202438D01*
X164190476Y-105202438D02*
X164285714Y-105154819D01*
X164285714Y-105154819D02*
X164523809Y-105154819D01*
X164523809Y-105154819D02*
X164619047Y-105202438D01*
X164619047Y-105202438D02*
X164666666Y-105250057D01*
X164666666Y-105250057D02*
X164714285Y-105345295D01*
X164714285Y-105345295D02*
X164714285Y-105440533D01*
X164714285Y-105440533D02*
X164666666Y-105583390D01*
X164666666Y-105583390D02*
X164095238Y-106154819D01*
X164095238Y-106154819D02*
X164714285Y-106154819D01*
X162357142Y-93039580D02*
X162309523Y-93087200D01*
X162309523Y-93087200D02*
X162166666Y-93134819D01*
X162166666Y-93134819D02*
X162071428Y-93134819D01*
X162071428Y-93134819D02*
X161928571Y-93087200D01*
X161928571Y-93087200D02*
X161833333Y-92991961D01*
X161833333Y-92991961D02*
X161785714Y-92896723D01*
X161785714Y-92896723D02*
X161738095Y-92706247D01*
X161738095Y-92706247D02*
X161738095Y-92563390D01*
X161738095Y-92563390D02*
X161785714Y-92372914D01*
X161785714Y-92372914D02*
X161833333Y-92277676D01*
X161833333Y-92277676D02*
X161928571Y-92182438D01*
X161928571Y-92182438D02*
X162071428Y-92134819D01*
X162071428Y-92134819D02*
X162166666Y-92134819D01*
X162166666Y-92134819D02*
X162309523Y-92182438D01*
X162309523Y-92182438D02*
X162357142Y-92230057D01*
X163309523Y-93134819D02*
X162738095Y-93134819D01*
X163023809Y-93134819D02*
X163023809Y-92134819D01*
X163023809Y-92134819D02*
X162928571Y-92277676D01*
X162928571Y-92277676D02*
X162833333Y-92372914D01*
X162833333Y-92372914D02*
X162738095Y-92420533D01*
X164261904Y-93134819D02*
X163690476Y-93134819D01*
X163976190Y-93134819D02*
X163976190Y-92134819D01*
X163976190Y-92134819D02*
X163880952Y-92277676D01*
X163880952Y-92277676D02*
X163785714Y-92372914D01*
X163785714Y-92372914D02*
X163690476Y-92420533D01*
X176166666Y-80454819D02*
X176166666Y-81169104D01*
X176166666Y-81169104D02*
X176119047Y-81311961D01*
X176119047Y-81311961D02*
X176023809Y-81407200D01*
X176023809Y-81407200D02*
X175880952Y-81454819D01*
X175880952Y-81454819D02*
X175785714Y-81454819D01*
X176595238Y-80550057D02*
X176642857Y-80502438D01*
X176642857Y-80502438D02*
X176738095Y-80454819D01*
X176738095Y-80454819D02*
X176976190Y-80454819D01*
X176976190Y-80454819D02*
X177071428Y-80502438D01*
X177071428Y-80502438D02*
X177119047Y-80550057D01*
X177119047Y-80550057D02*
X177166666Y-80645295D01*
X177166666Y-80645295D02*
X177166666Y-80740533D01*
X177166666Y-80740533D02*
X177119047Y-80883390D01*
X177119047Y-80883390D02*
X176547619Y-81454819D01*
X176547619Y-81454819D02*
X177166666Y-81454819D01*
X163316666Y-60304819D02*
X163316666Y-61019104D01*
X163316666Y-61019104D02*
X163269047Y-61161961D01*
X163269047Y-61161961D02*
X163173809Y-61257200D01*
X163173809Y-61257200D02*
X163030952Y-61304819D01*
X163030952Y-61304819D02*
X162935714Y-61304819D01*
X164316666Y-61304819D02*
X163745238Y-61304819D01*
X164030952Y-61304819D02*
X164030952Y-60304819D01*
X164030952Y-60304819D02*
X163935714Y-60447676D01*
X163935714Y-60447676D02*
X163840476Y-60542914D01*
X163840476Y-60542914D02*
X163745238Y-60590533D01*
X162420833Y-51804819D02*
X162087500Y-51328628D01*
X161849405Y-51804819D02*
X161849405Y-50804819D01*
X161849405Y-50804819D02*
X162230357Y-50804819D01*
X162230357Y-50804819D02*
X162325595Y-50852438D01*
X162325595Y-50852438D02*
X162373214Y-50900057D01*
X162373214Y-50900057D02*
X162420833Y-50995295D01*
X162420833Y-50995295D02*
X162420833Y-51138152D01*
X162420833Y-51138152D02*
X162373214Y-51233390D01*
X162373214Y-51233390D02*
X162325595Y-51281009D01*
X162325595Y-51281009D02*
X162230357Y-51328628D01*
X162230357Y-51328628D02*
X161849405Y-51328628D01*
X162801786Y-50900057D02*
X162849405Y-50852438D01*
X162849405Y-50852438D02*
X162944643Y-50804819D01*
X162944643Y-50804819D02*
X163182738Y-50804819D01*
X163182738Y-50804819D02*
X163277976Y-50852438D01*
X163277976Y-50852438D02*
X163325595Y-50900057D01*
X163325595Y-50900057D02*
X163373214Y-50995295D01*
X163373214Y-50995295D02*
X163373214Y-51090533D01*
X163373214Y-51090533D02*
X163325595Y-51233390D01*
X163325595Y-51233390D02*
X162754167Y-51804819D01*
X162754167Y-51804819D02*
X163373214Y-51804819D01*
X146833333Y-67304819D02*
X146500000Y-66828628D01*
X146261905Y-67304819D02*
X146261905Y-66304819D01*
X146261905Y-66304819D02*
X146642857Y-66304819D01*
X146642857Y-66304819D02*
X146738095Y-66352438D01*
X146738095Y-66352438D02*
X146785714Y-66400057D01*
X146785714Y-66400057D02*
X146833333Y-66495295D01*
X146833333Y-66495295D02*
X146833333Y-66638152D01*
X146833333Y-66638152D02*
X146785714Y-66733390D01*
X146785714Y-66733390D02*
X146738095Y-66781009D01*
X146738095Y-66781009D02*
X146642857Y-66828628D01*
X146642857Y-66828628D02*
X146261905Y-66828628D01*
X147166667Y-66304819D02*
X147785714Y-66304819D01*
X147785714Y-66304819D02*
X147452381Y-66685771D01*
X147452381Y-66685771D02*
X147595238Y-66685771D01*
X147595238Y-66685771D02*
X147690476Y-66733390D01*
X147690476Y-66733390D02*
X147738095Y-66781009D01*
X147738095Y-66781009D02*
X147785714Y-66876247D01*
X147785714Y-66876247D02*
X147785714Y-67114342D01*
X147785714Y-67114342D02*
X147738095Y-67209580D01*
X147738095Y-67209580D02*
X147690476Y-67257200D01*
X147690476Y-67257200D02*
X147595238Y-67304819D01*
X147595238Y-67304819D02*
X147309524Y-67304819D01*
X147309524Y-67304819D02*
X147214286Y-67257200D01*
X147214286Y-67257200D02*
X147166667Y-67209580D01*
X129783333Y-107179580D02*
X129735714Y-107227200D01*
X129735714Y-107227200D02*
X129592857Y-107274819D01*
X129592857Y-107274819D02*
X129497619Y-107274819D01*
X129497619Y-107274819D02*
X129354762Y-107227200D01*
X129354762Y-107227200D02*
X129259524Y-107131961D01*
X129259524Y-107131961D02*
X129211905Y-107036723D01*
X129211905Y-107036723D02*
X129164286Y-106846247D01*
X129164286Y-106846247D02*
X129164286Y-106703390D01*
X129164286Y-106703390D02*
X129211905Y-106512914D01*
X129211905Y-106512914D02*
X129259524Y-106417676D01*
X129259524Y-106417676D02*
X129354762Y-106322438D01*
X129354762Y-106322438D02*
X129497619Y-106274819D01*
X129497619Y-106274819D02*
X129592857Y-106274819D01*
X129592857Y-106274819D02*
X129735714Y-106322438D01*
X129735714Y-106322438D02*
X129783333Y-106370057D01*
X130688095Y-106274819D02*
X130211905Y-106274819D01*
X130211905Y-106274819D02*
X130164286Y-106751009D01*
X130164286Y-106751009D02*
X130211905Y-106703390D01*
X130211905Y-106703390D02*
X130307143Y-106655771D01*
X130307143Y-106655771D02*
X130545238Y-106655771D01*
X130545238Y-106655771D02*
X130640476Y-106703390D01*
X130640476Y-106703390D02*
X130688095Y-106751009D01*
X130688095Y-106751009D02*
X130735714Y-106846247D01*
X130735714Y-106846247D02*
X130735714Y-107084342D01*
X130735714Y-107084342D02*
X130688095Y-107179580D01*
X130688095Y-107179580D02*
X130640476Y-107227200D01*
X130640476Y-107227200D02*
X130545238Y-107274819D01*
X130545238Y-107274819D02*
X130307143Y-107274819D01*
X130307143Y-107274819D02*
X130211905Y-107227200D01*
X130211905Y-107227200D02*
X130164286Y-107179580D01*
X173745833Y-119304819D02*
X173412500Y-118828628D01*
X173174405Y-119304819D02*
X173174405Y-118304819D01*
X173174405Y-118304819D02*
X173555357Y-118304819D01*
X173555357Y-118304819D02*
X173650595Y-118352438D01*
X173650595Y-118352438D02*
X173698214Y-118400057D01*
X173698214Y-118400057D02*
X173745833Y-118495295D01*
X173745833Y-118495295D02*
X173745833Y-118638152D01*
X173745833Y-118638152D02*
X173698214Y-118733390D01*
X173698214Y-118733390D02*
X173650595Y-118781009D01*
X173650595Y-118781009D02*
X173555357Y-118828628D01*
X173555357Y-118828628D02*
X173174405Y-118828628D01*
X174602976Y-118304819D02*
X174412500Y-118304819D01*
X174412500Y-118304819D02*
X174317262Y-118352438D01*
X174317262Y-118352438D02*
X174269643Y-118400057D01*
X174269643Y-118400057D02*
X174174405Y-118542914D01*
X174174405Y-118542914D02*
X174126786Y-118733390D01*
X174126786Y-118733390D02*
X174126786Y-119114342D01*
X174126786Y-119114342D02*
X174174405Y-119209580D01*
X174174405Y-119209580D02*
X174222024Y-119257200D01*
X174222024Y-119257200D02*
X174317262Y-119304819D01*
X174317262Y-119304819D02*
X174507738Y-119304819D01*
X174507738Y-119304819D02*
X174602976Y-119257200D01*
X174602976Y-119257200D02*
X174650595Y-119209580D01*
X174650595Y-119209580D02*
X174698214Y-119114342D01*
X174698214Y-119114342D02*
X174698214Y-118876247D01*
X174698214Y-118876247D02*
X174650595Y-118781009D01*
X174650595Y-118781009D02*
X174602976Y-118733390D01*
X174602976Y-118733390D02*
X174507738Y-118685771D01*
X174507738Y-118685771D02*
X174317262Y-118685771D01*
X174317262Y-118685771D02*
X174222024Y-118733390D01*
X174222024Y-118733390D02*
X174174405Y-118781009D01*
X174174405Y-118781009D02*
X174126786Y-118876247D01*
X151333333Y-59179580D02*
X151285714Y-59227200D01*
X151285714Y-59227200D02*
X151142857Y-59274819D01*
X151142857Y-59274819D02*
X151047619Y-59274819D01*
X151047619Y-59274819D02*
X150904762Y-59227200D01*
X150904762Y-59227200D02*
X150809524Y-59131961D01*
X150809524Y-59131961D02*
X150761905Y-59036723D01*
X150761905Y-59036723D02*
X150714286Y-58846247D01*
X150714286Y-58846247D02*
X150714286Y-58703390D01*
X150714286Y-58703390D02*
X150761905Y-58512914D01*
X150761905Y-58512914D02*
X150809524Y-58417676D01*
X150809524Y-58417676D02*
X150904762Y-58322438D01*
X150904762Y-58322438D02*
X151047619Y-58274819D01*
X151047619Y-58274819D02*
X151142857Y-58274819D01*
X151142857Y-58274819D02*
X151285714Y-58322438D01*
X151285714Y-58322438D02*
X151333333Y-58370057D01*
X152285714Y-59274819D02*
X151714286Y-59274819D01*
X152000000Y-59274819D02*
X152000000Y-58274819D01*
X152000000Y-58274819D02*
X151904762Y-58417676D01*
X151904762Y-58417676D02*
X151809524Y-58512914D01*
X151809524Y-58512914D02*
X151714286Y-58560533D01*
X129783333Y-100179580D02*
X129735714Y-100227200D01*
X129735714Y-100227200D02*
X129592857Y-100274819D01*
X129592857Y-100274819D02*
X129497619Y-100274819D01*
X129497619Y-100274819D02*
X129354762Y-100227200D01*
X129354762Y-100227200D02*
X129259524Y-100131961D01*
X129259524Y-100131961D02*
X129211905Y-100036723D01*
X129211905Y-100036723D02*
X129164286Y-99846247D01*
X129164286Y-99846247D02*
X129164286Y-99703390D01*
X129164286Y-99703390D02*
X129211905Y-99512914D01*
X129211905Y-99512914D02*
X129259524Y-99417676D01*
X129259524Y-99417676D02*
X129354762Y-99322438D01*
X129354762Y-99322438D02*
X129497619Y-99274819D01*
X129497619Y-99274819D02*
X129592857Y-99274819D01*
X129592857Y-99274819D02*
X129735714Y-99322438D01*
X129735714Y-99322438D02*
X129783333Y-99370057D01*
X130640476Y-99608152D02*
X130640476Y-100274819D01*
X130402381Y-99227200D02*
X130164286Y-99941485D01*
X130164286Y-99941485D02*
X130783333Y-99941485D01*
X155857142Y-114179580D02*
X155809523Y-114227200D01*
X155809523Y-114227200D02*
X155666666Y-114274819D01*
X155666666Y-114274819D02*
X155571428Y-114274819D01*
X155571428Y-114274819D02*
X155428571Y-114227200D01*
X155428571Y-114227200D02*
X155333333Y-114131961D01*
X155333333Y-114131961D02*
X155285714Y-114036723D01*
X155285714Y-114036723D02*
X155238095Y-113846247D01*
X155238095Y-113846247D02*
X155238095Y-113703390D01*
X155238095Y-113703390D02*
X155285714Y-113512914D01*
X155285714Y-113512914D02*
X155333333Y-113417676D01*
X155333333Y-113417676D02*
X155428571Y-113322438D01*
X155428571Y-113322438D02*
X155571428Y-113274819D01*
X155571428Y-113274819D02*
X155666666Y-113274819D01*
X155666666Y-113274819D02*
X155809523Y-113322438D01*
X155809523Y-113322438D02*
X155857142Y-113370057D01*
X156809523Y-114274819D02*
X156238095Y-114274819D01*
X156523809Y-114274819D02*
X156523809Y-113274819D01*
X156523809Y-113274819D02*
X156428571Y-113417676D01*
X156428571Y-113417676D02*
X156333333Y-113512914D01*
X156333333Y-113512914D02*
X156238095Y-113560533D01*
X157428571Y-113274819D02*
X157523809Y-113274819D01*
X157523809Y-113274819D02*
X157619047Y-113322438D01*
X157619047Y-113322438D02*
X157666666Y-113370057D01*
X157666666Y-113370057D02*
X157714285Y-113465295D01*
X157714285Y-113465295D02*
X157761904Y-113655771D01*
X157761904Y-113655771D02*
X157761904Y-113893866D01*
X157761904Y-113893866D02*
X157714285Y-114084342D01*
X157714285Y-114084342D02*
X157666666Y-114179580D01*
X157666666Y-114179580D02*
X157619047Y-114227200D01*
X157619047Y-114227200D02*
X157523809Y-114274819D01*
X157523809Y-114274819D02*
X157428571Y-114274819D01*
X157428571Y-114274819D02*
X157333333Y-114227200D01*
X157333333Y-114227200D02*
X157285714Y-114179580D01*
X157285714Y-114179580D02*
X157238095Y-114084342D01*
X157238095Y-114084342D02*
X157190476Y-113893866D01*
X157190476Y-113893866D02*
X157190476Y-113655771D01*
X157190476Y-113655771D02*
X157238095Y-113465295D01*
X157238095Y-113465295D02*
X157285714Y-113370057D01*
X157285714Y-113370057D02*
X157333333Y-113322438D01*
X157333333Y-113322438D02*
X157428571Y-113274819D01*
X137333333Y-86679580D02*
X137285714Y-86727200D01*
X137285714Y-86727200D02*
X137142857Y-86774819D01*
X137142857Y-86774819D02*
X137047619Y-86774819D01*
X137047619Y-86774819D02*
X136904762Y-86727200D01*
X136904762Y-86727200D02*
X136809524Y-86631961D01*
X136809524Y-86631961D02*
X136761905Y-86536723D01*
X136761905Y-86536723D02*
X136714286Y-86346247D01*
X136714286Y-86346247D02*
X136714286Y-86203390D01*
X136714286Y-86203390D02*
X136761905Y-86012914D01*
X136761905Y-86012914D02*
X136809524Y-85917676D01*
X136809524Y-85917676D02*
X136904762Y-85822438D01*
X136904762Y-85822438D02*
X137047619Y-85774819D01*
X137047619Y-85774819D02*
X137142857Y-85774819D01*
X137142857Y-85774819D02*
X137285714Y-85822438D01*
X137285714Y-85822438D02*
X137333333Y-85870057D01*
X137666667Y-85774819D02*
X138333333Y-85774819D01*
X138333333Y-85774819D02*
X137904762Y-86774819D01*
X129783333Y-93179580D02*
X129735714Y-93227200D01*
X129735714Y-93227200D02*
X129592857Y-93274819D01*
X129592857Y-93274819D02*
X129497619Y-93274819D01*
X129497619Y-93274819D02*
X129354762Y-93227200D01*
X129354762Y-93227200D02*
X129259524Y-93131961D01*
X129259524Y-93131961D02*
X129211905Y-93036723D01*
X129211905Y-93036723D02*
X129164286Y-92846247D01*
X129164286Y-92846247D02*
X129164286Y-92703390D01*
X129164286Y-92703390D02*
X129211905Y-92512914D01*
X129211905Y-92512914D02*
X129259524Y-92417676D01*
X129259524Y-92417676D02*
X129354762Y-92322438D01*
X129354762Y-92322438D02*
X129497619Y-92274819D01*
X129497619Y-92274819D02*
X129592857Y-92274819D01*
X129592857Y-92274819D02*
X129735714Y-92322438D01*
X129735714Y-92322438D02*
X129783333Y-92370057D01*
X130116667Y-92274819D02*
X130735714Y-92274819D01*
X130735714Y-92274819D02*
X130402381Y-92655771D01*
X130402381Y-92655771D02*
X130545238Y-92655771D01*
X130545238Y-92655771D02*
X130640476Y-92703390D01*
X130640476Y-92703390D02*
X130688095Y-92751009D01*
X130688095Y-92751009D02*
X130735714Y-92846247D01*
X130735714Y-92846247D02*
X130735714Y-93084342D01*
X130735714Y-93084342D02*
X130688095Y-93179580D01*
X130688095Y-93179580D02*
X130640476Y-93227200D01*
X130640476Y-93227200D02*
X130545238Y-93274819D01*
X130545238Y-93274819D02*
X130259524Y-93274819D01*
X130259524Y-93274819D02*
X130164286Y-93227200D01*
X130164286Y-93227200D02*
X130116667Y-93179580D01*
X162768809Y-96581128D02*
X162768809Y-97057319D01*
X162435476Y-96057319D02*
X162768809Y-96581128D01*
X162768809Y-96581128D02*
X163102142Y-96057319D01*
X163959285Y-97057319D02*
X163387857Y-97057319D01*
X163673571Y-97057319D02*
X163673571Y-96057319D01*
X163673571Y-96057319D02*
X163578333Y-96200176D01*
X163578333Y-96200176D02*
X163483095Y-96295414D01*
X163483095Y-96295414D02*
X163387857Y-96343033D01*
X139166667Y-129857200D02*
X139309524Y-129904819D01*
X139309524Y-129904819D02*
X139547619Y-129904819D01*
X139547619Y-129904819D02*
X139642857Y-129857200D01*
X139642857Y-129857200D02*
X139690476Y-129809580D01*
X139690476Y-129809580D02*
X139738095Y-129714342D01*
X139738095Y-129714342D02*
X139738095Y-129619104D01*
X139738095Y-129619104D02*
X139690476Y-129523866D01*
X139690476Y-129523866D02*
X139642857Y-129476247D01*
X139642857Y-129476247D02*
X139547619Y-129428628D01*
X139547619Y-129428628D02*
X139357143Y-129381009D01*
X139357143Y-129381009D02*
X139261905Y-129333390D01*
X139261905Y-129333390D02*
X139214286Y-129285771D01*
X139214286Y-129285771D02*
X139166667Y-129190533D01*
X139166667Y-129190533D02*
X139166667Y-129095295D01*
X139166667Y-129095295D02*
X139214286Y-129000057D01*
X139214286Y-129000057D02*
X139261905Y-128952438D01*
X139261905Y-128952438D02*
X139357143Y-128904819D01*
X139357143Y-128904819D02*
X139595238Y-128904819D01*
X139595238Y-128904819D02*
X139738095Y-128952438D01*
X140071429Y-128904819D02*
X140309524Y-129904819D01*
X140309524Y-129904819D02*
X140500000Y-129190533D01*
X140500000Y-129190533D02*
X140690476Y-129904819D01*
X140690476Y-129904819D02*
X140928572Y-128904819D01*
X141833333Y-129904819D02*
X141261905Y-129904819D01*
X141547619Y-129904819D02*
X141547619Y-128904819D01*
X141547619Y-128904819D02*
X141452381Y-129047676D01*
X141452381Y-129047676D02*
X141357143Y-129142914D01*
X141357143Y-129142914D02*
X141261905Y-129190533D01*
X164907142Y-114679580D02*
X164859523Y-114727200D01*
X164859523Y-114727200D02*
X164716666Y-114774819D01*
X164716666Y-114774819D02*
X164621428Y-114774819D01*
X164621428Y-114774819D02*
X164478571Y-114727200D01*
X164478571Y-114727200D02*
X164383333Y-114631961D01*
X164383333Y-114631961D02*
X164335714Y-114536723D01*
X164335714Y-114536723D02*
X164288095Y-114346247D01*
X164288095Y-114346247D02*
X164288095Y-114203390D01*
X164288095Y-114203390D02*
X164335714Y-114012914D01*
X164335714Y-114012914D02*
X164383333Y-113917676D01*
X164383333Y-113917676D02*
X164478571Y-113822438D01*
X164478571Y-113822438D02*
X164621428Y-113774819D01*
X164621428Y-113774819D02*
X164716666Y-113774819D01*
X164716666Y-113774819D02*
X164859523Y-113822438D01*
X164859523Y-113822438D02*
X164907142Y-113870057D01*
X165859523Y-114774819D02*
X165288095Y-114774819D01*
X165573809Y-114774819D02*
X165573809Y-113774819D01*
X165573809Y-113774819D02*
X165478571Y-113917676D01*
X165478571Y-113917676D02*
X165383333Y-114012914D01*
X165383333Y-114012914D02*
X165288095Y-114060533D01*
X166192857Y-113774819D02*
X166811904Y-113774819D01*
X166811904Y-113774819D02*
X166478571Y-114155771D01*
X166478571Y-114155771D02*
X166621428Y-114155771D01*
X166621428Y-114155771D02*
X166716666Y-114203390D01*
X166716666Y-114203390D02*
X166764285Y-114251009D01*
X166764285Y-114251009D02*
X166811904Y-114346247D01*
X166811904Y-114346247D02*
X166811904Y-114584342D01*
X166811904Y-114584342D02*
X166764285Y-114679580D01*
X166764285Y-114679580D02*
X166716666Y-114727200D01*
X166716666Y-114727200D02*
X166621428Y-114774819D01*
X166621428Y-114774819D02*
X166335714Y-114774819D01*
X166335714Y-114774819D02*
X166240476Y-114727200D01*
X166240476Y-114727200D02*
X166192857Y-114679580D01*
X171261905Y-97304819D02*
X171261905Y-96304819D01*
X171261905Y-96304819D02*
X171500000Y-96304819D01*
X171500000Y-96304819D02*
X171642857Y-96352438D01*
X171642857Y-96352438D02*
X171738095Y-96447676D01*
X171738095Y-96447676D02*
X171785714Y-96542914D01*
X171785714Y-96542914D02*
X171833333Y-96733390D01*
X171833333Y-96733390D02*
X171833333Y-96876247D01*
X171833333Y-96876247D02*
X171785714Y-97066723D01*
X171785714Y-97066723D02*
X171738095Y-97161961D01*
X171738095Y-97161961D02*
X171642857Y-97257200D01*
X171642857Y-97257200D02*
X171500000Y-97304819D01*
X171500000Y-97304819D02*
X171261905Y-97304819D01*
X172785714Y-97304819D02*
X172214286Y-97304819D01*
X172500000Y-97304819D02*
X172500000Y-96304819D01*
X172500000Y-96304819D02*
X172404762Y-96447676D01*
X172404762Y-96447676D02*
X172309524Y-96542914D01*
X172309524Y-96542914D02*
X172214286Y-96590533D01*
X172245833Y-103304819D02*
X171912500Y-102828628D01*
X171674405Y-103304819D02*
X171674405Y-102304819D01*
X171674405Y-102304819D02*
X172055357Y-102304819D01*
X172055357Y-102304819D02*
X172150595Y-102352438D01*
X172150595Y-102352438D02*
X172198214Y-102400057D01*
X172198214Y-102400057D02*
X172245833Y-102495295D01*
X172245833Y-102495295D02*
X172245833Y-102638152D01*
X172245833Y-102638152D02*
X172198214Y-102733390D01*
X172198214Y-102733390D02*
X172150595Y-102781009D01*
X172150595Y-102781009D02*
X172055357Y-102828628D01*
X172055357Y-102828628D02*
X171674405Y-102828628D01*
X173150595Y-102304819D02*
X172674405Y-102304819D01*
X172674405Y-102304819D02*
X172626786Y-102781009D01*
X172626786Y-102781009D02*
X172674405Y-102733390D01*
X172674405Y-102733390D02*
X172769643Y-102685771D01*
X172769643Y-102685771D02*
X173007738Y-102685771D01*
X173007738Y-102685771D02*
X173102976Y-102733390D01*
X173102976Y-102733390D02*
X173150595Y-102781009D01*
X173150595Y-102781009D02*
X173198214Y-102876247D01*
X173198214Y-102876247D02*
X173198214Y-103114342D01*
X173198214Y-103114342D02*
X173150595Y-103209580D01*
X173150595Y-103209580D02*
X173102976Y-103257200D01*
X173102976Y-103257200D02*
X173007738Y-103304819D01*
X173007738Y-103304819D02*
X172769643Y-103304819D01*
X172769643Y-103304819D02*
X172674405Y-103257200D01*
X172674405Y-103257200D02*
X172626786Y-103209580D01*
X137783333Y-100179580D02*
X137735714Y-100227200D01*
X137735714Y-100227200D02*
X137592857Y-100274819D01*
X137592857Y-100274819D02*
X137497619Y-100274819D01*
X137497619Y-100274819D02*
X137354762Y-100227200D01*
X137354762Y-100227200D02*
X137259524Y-100131961D01*
X137259524Y-100131961D02*
X137211905Y-100036723D01*
X137211905Y-100036723D02*
X137164286Y-99846247D01*
X137164286Y-99846247D02*
X137164286Y-99703390D01*
X137164286Y-99703390D02*
X137211905Y-99512914D01*
X137211905Y-99512914D02*
X137259524Y-99417676D01*
X137259524Y-99417676D02*
X137354762Y-99322438D01*
X137354762Y-99322438D02*
X137497619Y-99274819D01*
X137497619Y-99274819D02*
X137592857Y-99274819D01*
X137592857Y-99274819D02*
X137735714Y-99322438D01*
X137735714Y-99322438D02*
X137783333Y-99370057D01*
X138259524Y-100274819D02*
X138450000Y-100274819D01*
X138450000Y-100274819D02*
X138545238Y-100227200D01*
X138545238Y-100227200D02*
X138592857Y-100179580D01*
X138592857Y-100179580D02*
X138688095Y-100036723D01*
X138688095Y-100036723D02*
X138735714Y-99846247D01*
X138735714Y-99846247D02*
X138735714Y-99465295D01*
X138735714Y-99465295D02*
X138688095Y-99370057D01*
X138688095Y-99370057D02*
X138640476Y-99322438D01*
X138640476Y-99322438D02*
X138545238Y-99274819D01*
X138545238Y-99274819D02*
X138354762Y-99274819D01*
X138354762Y-99274819D02*
X138259524Y-99322438D01*
X138259524Y-99322438D02*
X138211905Y-99370057D01*
X138211905Y-99370057D02*
X138164286Y-99465295D01*
X138164286Y-99465295D02*
X138164286Y-99703390D01*
X138164286Y-99703390D02*
X138211905Y-99798628D01*
X138211905Y-99798628D02*
X138259524Y-99846247D01*
X138259524Y-99846247D02*
X138354762Y-99893866D01*
X138354762Y-99893866D02*
X138545238Y-99893866D01*
X138545238Y-99893866D02*
X138640476Y-99846247D01*
X138640476Y-99846247D02*
X138688095Y-99798628D01*
X138688095Y-99798628D02*
X138735714Y-99703390D01*
X140153095Y-57979819D02*
X140153095Y-58789342D01*
X140153095Y-58789342D02*
X140200714Y-58884580D01*
X140200714Y-58884580D02*
X140248333Y-58932200D01*
X140248333Y-58932200D02*
X140343571Y-58979819D01*
X140343571Y-58979819D02*
X140534047Y-58979819D01*
X140534047Y-58979819D02*
X140629285Y-58932200D01*
X140629285Y-58932200D02*
X140676904Y-58884580D01*
X140676904Y-58884580D02*
X140724523Y-58789342D01*
X140724523Y-58789342D02*
X140724523Y-57979819D01*
X141724523Y-58979819D02*
X141153095Y-58979819D01*
X141438809Y-58979819D02*
X141438809Y-57979819D01*
X141438809Y-57979819D02*
X141343571Y-58122676D01*
X141343571Y-58122676D02*
X141248333Y-58217914D01*
X141248333Y-58217914D02*
X141153095Y-58265533D01*
X130783333Y-62179580D02*
X130735714Y-62227200D01*
X130735714Y-62227200D02*
X130592857Y-62274819D01*
X130592857Y-62274819D02*
X130497619Y-62274819D01*
X130497619Y-62274819D02*
X130354762Y-62227200D01*
X130354762Y-62227200D02*
X130259524Y-62131961D01*
X130259524Y-62131961D02*
X130211905Y-62036723D01*
X130211905Y-62036723D02*
X130164286Y-61846247D01*
X130164286Y-61846247D02*
X130164286Y-61703390D01*
X130164286Y-61703390D02*
X130211905Y-61512914D01*
X130211905Y-61512914D02*
X130259524Y-61417676D01*
X130259524Y-61417676D02*
X130354762Y-61322438D01*
X130354762Y-61322438D02*
X130497619Y-61274819D01*
X130497619Y-61274819D02*
X130592857Y-61274819D01*
X130592857Y-61274819D02*
X130735714Y-61322438D01*
X130735714Y-61322438D02*
X130783333Y-61370057D01*
X131164286Y-61370057D02*
X131211905Y-61322438D01*
X131211905Y-61322438D02*
X131307143Y-61274819D01*
X131307143Y-61274819D02*
X131545238Y-61274819D01*
X131545238Y-61274819D02*
X131640476Y-61322438D01*
X131640476Y-61322438D02*
X131688095Y-61370057D01*
X131688095Y-61370057D02*
X131735714Y-61465295D01*
X131735714Y-61465295D02*
X131735714Y-61560533D01*
X131735714Y-61560533D02*
X131688095Y-61703390D01*
X131688095Y-61703390D02*
X131116667Y-62274819D01*
X131116667Y-62274819D02*
X131735714Y-62274819D01*
X137283333Y-92679580D02*
X137235714Y-92727200D01*
X137235714Y-92727200D02*
X137092857Y-92774819D01*
X137092857Y-92774819D02*
X136997619Y-92774819D01*
X136997619Y-92774819D02*
X136854762Y-92727200D01*
X136854762Y-92727200D02*
X136759524Y-92631961D01*
X136759524Y-92631961D02*
X136711905Y-92536723D01*
X136711905Y-92536723D02*
X136664286Y-92346247D01*
X136664286Y-92346247D02*
X136664286Y-92203390D01*
X136664286Y-92203390D02*
X136711905Y-92012914D01*
X136711905Y-92012914D02*
X136759524Y-91917676D01*
X136759524Y-91917676D02*
X136854762Y-91822438D01*
X136854762Y-91822438D02*
X136997619Y-91774819D01*
X136997619Y-91774819D02*
X137092857Y-91774819D01*
X137092857Y-91774819D02*
X137235714Y-91822438D01*
X137235714Y-91822438D02*
X137283333Y-91870057D01*
X137854762Y-92203390D02*
X137759524Y-92155771D01*
X137759524Y-92155771D02*
X137711905Y-92108152D01*
X137711905Y-92108152D02*
X137664286Y-92012914D01*
X137664286Y-92012914D02*
X137664286Y-91965295D01*
X137664286Y-91965295D02*
X137711905Y-91870057D01*
X137711905Y-91870057D02*
X137759524Y-91822438D01*
X137759524Y-91822438D02*
X137854762Y-91774819D01*
X137854762Y-91774819D02*
X138045238Y-91774819D01*
X138045238Y-91774819D02*
X138140476Y-91822438D01*
X138140476Y-91822438D02*
X138188095Y-91870057D01*
X138188095Y-91870057D02*
X138235714Y-91965295D01*
X138235714Y-91965295D02*
X138235714Y-92012914D01*
X138235714Y-92012914D02*
X138188095Y-92108152D01*
X138188095Y-92108152D02*
X138140476Y-92155771D01*
X138140476Y-92155771D02*
X138045238Y-92203390D01*
X138045238Y-92203390D02*
X137854762Y-92203390D01*
X137854762Y-92203390D02*
X137759524Y-92251009D01*
X137759524Y-92251009D02*
X137711905Y-92298628D01*
X137711905Y-92298628D02*
X137664286Y-92393866D01*
X137664286Y-92393866D02*
X137664286Y-92584342D01*
X137664286Y-92584342D02*
X137711905Y-92679580D01*
X137711905Y-92679580D02*
X137759524Y-92727200D01*
X137759524Y-92727200D02*
X137854762Y-92774819D01*
X137854762Y-92774819D02*
X138045238Y-92774819D01*
X138045238Y-92774819D02*
X138140476Y-92727200D01*
X138140476Y-92727200D02*
X138188095Y-92679580D01*
X138188095Y-92679580D02*
X138235714Y-92584342D01*
X138235714Y-92584342D02*
X138235714Y-92393866D01*
X138235714Y-92393866D02*
X138188095Y-92298628D01*
X138188095Y-92298628D02*
X138140476Y-92251009D01*
X138140476Y-92251009D02*
X138045238Y-92203390D01*
D11*
%TO.C,C12*%
X165238748Y-120265000D02*
X165761252Y-120265000D01*
X165238748Y-121735000D02*
X165761252Y-121735000D01*
%TO.C,D2*%
X172315000Y-112540000D02*
X172315000Y-114460000D01*
X172315000Y-114460000D02*
X175000000Y-114460000D01*
X175000000Y-112540000D02*
X172315000Y-112540000D01*
%TO.C,R4*%
X182772936Y-62765000D02*
X183227064Y-62765000D01*
X182772936Y-64235000D02*
X183227064Y-64235000D01*
%TO.C,C6*%
X137188748Y-81265000D02*
X137711252Y-81265000D01*
X137188748Y-82735000D02*
X137711252Y-82735000D01*
%TO.C,R1*%
X150272936Y-86765000D02*
X150727064Y-86765000D01*
X150272936Y-88235000D02*
X150727064Y-88235000D01*
%TO.C,Y2*%
X160890000Y-106640000D02*
X160890000Y-110360000D01*
X160890000Y-110360000D02*
X166760000Y-110360000D01*
X166760000Y-106640000D02*
X160890000Y-106640000D01*
%TO.C,C11*%
X163261252Y-90265000D02*
X162738748Y-90265000D01*
X163261252Y-91735000D02*
X162738748Y-91735000D01*
%TO.C,J2*%
X175120000Y-82000000D02*
X176500000Y-82000000D01*
X175120000Y-83380000D02*
X175120000Y-82000000D01*
X175120000Y-84650000D02*
X175120000Y-92380000D01*
X175120000Y-84650000D02*
X177880000Y-84650000D01*
X175120000Y-92380000D02*
X177880000Y-92380000D01*
X177880000Y-84650000D02*
X177880000Y-92380000D01*
%TO.C,J1*%
X159750000Y-62200000D02*
X160200000Y-62200000D01*
X159750000Y-64050000D02*
X159750000Y-62200000D01*
X159750000Y-66600000D02*
X159750000Y-66350000D01*
X161950000Y-61650000D02*
X161950000Y-62100000D01*
X161950000Y-61650000D02*
X162400000Y-61650000D01*
X167550000Y-62200000D02*
X167100000Y-62200000D01*
X167550000Y-64050000D02*
X167550000Y-62200000D01*
X167550000Y-66600000D02*
X167550000Y-66350000D01*
%TO.C,R2*%
X162360436Y-52265000D02*
X162814564Y-52265000D01*
X162360436Y-53735000D02*
X162814564Y-53735000D01*
%TO.C,R3*%
X146772936Y-67765000D02*
X147227064Y-67765000D01*
X146772936Y-69235000D02*
X147227064Y-69235000D01*
%TO.C,C5*%
X129688748Y-107765000D02*
X130211252Y-107765000D01*
X129688748Y-109235000D02*
X130211252Y-109235000D01*
%TO.C,R6*%
X173685436Y-119765000D02*
X174139564Y-119765000D01*
X173685436Y-121235000D02*
X174139564Y-121235000D01*
%TO.C,C1*%
X151238748Y-59765000D02*
X151761252Y-59765000D01*
X151238748Y-61235000D02*
X151761252Y-61235000D01*
%TO.C,C4*%
X129688748Y-100765000D02*
X130211252Y-100765000D01*
X129688748Y-102235000D02*
X130211252Y-102235000D01*
%TO.C,C10*%
X156238748Y-114765000D02*
X156761252Y-114765000D01*
X156238748Y-116235000D02*
X156761252Y-116235000D01*
%TO.C,C7*%
X137238748Y-87265000D02*
X137761252Y-87265000D01*
X137238748Y-88735000D02*
X137761252Y-88735000D01*
%TO.C,C3*%
X129688748Y-93765000D02*
X130211252Y-93765000D01*
X129688748Y-95235000D02*
X130211252Y-95235000D01*
%TO.C,Y1*%
X160135000Y-97542500D02*
X160135000Y-101262500D01*
X160135000Y-101262500D02*
X166005000Y-101262500D01*
X166005000Y-97542500D02*
X160135000Y-97542500D01*
%TO.C,SW1*%
X137270000Y-130270000D02*
X143730000Y-130270000D01*
X137270000Y-130300000D02*
X137270000Y-130270000D01*
X137270000Y-132200000D02*
X137270000Y-134800000D01*
X137270000Y-136730000D02*
X137270000Y-136700000D01*
X137270000Y-136730000D02*
X143730000Y-136730000D01*
X143730000Y-130270000D02*
X143730000Y-130300000D01*
X143730000Y-132200000D02*
X143730000Y-134800000D01*
X143730000Y-136730000D02*
X143730000Y-136700000D01*
%TO.C,C13*%
X165288748Y-115265000D02*
X165811252Y-115265000D01*
X165288748Y-116735000D02*
X165811252Y-116735000D01*
%TO.C,D1*%
X170315000Y-97540000D02*
X170315000Y-99460000D01*
X170315000Y-99460000D02*
X173000000Y-99460000D01*
X173000000Y-97540000D02*
X170315000Y-97540000D01*
%TO.C,U2*%
X159390000Y-76890000D02*
X159840000Y-76890000D01*
X159390000Y-77340000D02*
X159390000Y-76890000D01*
X159390000Y-84110000D02*
X159390000Y-83660000D01*
X159840000Y-84110000D02*
X159390000Y-84110000D01*
X166160000Y-76890000D02*
X166610000Y-76890000D01*
X166610000Y-76890000D02*
X166610000Y-77340000D01*
X166610000Y-83660000D02*
X166610000Y-84110000D01*
X166610000Y-84110000D02*
X166160000Y-84110000D01*
X158750000Y-77340000D02*
X158410000Y-76870000D01*
X159090000Y-76870000D01*
X158750000Y-77340000D01*
G36*
X158750000Y-77340000D02*
G01*
X158410000Y-76870000D01*
X159090000Y-76870000D01*
X158750000Y-77340000D01*
G37*
%TO.C,R5*%
X172185436Y-103765000D02*
X172639564Y-103765000D01*
X172185436Y-105235000D02*
X172639564Y-105235000D01*
%TO.C,C9*%
X137688748Y-100765000D02*
X138211252Y-100765000D01*
X137688748Y-102235000D02*
X138211252Y-102235000D01*
%TO.C,U1*%
X137605000Y-59575000D02*
X137605000Y-59845000D01*
X137605000Y-66475000D02*
X137605000Y-66205000D01*
X144025000Y-59575000D02*
X137605000Y-59575000D01*
X144025000Y-66475000D02*
X137605000Y-66475000D01*
X135875000Y-59885000D02*
X135535000Y-59415000D01*
X136215000Y-59415000D01*
X135875000Y-59885000D01*
G36*
X135875000Y-59885000D02*
G01*
X135535000Y-59415000D01*
X136215000Y-59415000D01*
X135875000Y-59885000D01*
G37*
%TO.C,C2*%
X130688748Y-62765000D02*
X131211252Y-62765000D01*
X130688748Y-64235000D02*
X131211252Y-64235000D01*
%TO.C,C8*%
X137188748Y-93265000D02*
X137711252Y-93265000D01*
X137188748Y-94735000D02*
X137711252Y-94735000D01*
%TD*%
M02*
