%TF.GenerationSoftware,KiCad,Pcbnew,9.0.9*%
%TF.CreationDate,2026-05-25T05:03:07+03:00*%
%TF.ProjectId,STM32_Bluepill,53544d33-325f-4426-9c75-6570696c6c2e,rev?*%
%TF.SameCoordinates,Original*%
%TF.FileFunction,Copper,L1,Top*%
%TF.FilePolarity,Positive*%
%FSLAX46Y46*%
G04 Gerber Fmt 4.6, Leading zero omitted, Abs format (unit mm)*
G04 Created by KiCad (PCBNEW 9.0.9) date 2026-05-25 05:03:07*
%MOMM*%
%LPD*%
G01*
G04 APERTURE LIST*
G04 Aperture macros list*
%AMRoundRect*
0 Rectangle with rounded corners*
0 $1 Rounding radius*
0 $2 $3 $4 $5 $6 $7 $8 $9 X,Y pos of 4 corners*
0 Add a 4 corners polygon primitive as box body*
4,1,4,$2,$3,$4,$5,$6,$7,$8,$9,$2,$3,0*
0 Add four circle primitives for the rounded corners*
1,1,$1+$1,$2,$3*
1,1,$1+$1,$4,$5*
1,1,$1+$1,$6,$7*
1,1,$1+$1,$8,$9*
0 Add four rect primitives between the rounded corners*
20,1,$1+$1,$2,$3,$4,$5,0*
20,1,$1+$1,$4,$5,$6,$7,0*
20,1,$1+$1,$6,$7,$8,$9,0*
20,1,$1+$1,$8,$9,$2,$3,0*%
G04 Aperture macros list end*
%TA.AperFunction,SMDPad,CuDef*%
%ADD10RoundRect,0.250000X-0.250000X-0.475000X0.250000X-0.475000X0.250000X0.475000X-0.250000X0.475000X0*%
%TD*%
%TA.AperFunction,SMDPad,CuDef*%
%ADD11RoundRect,0.243750X-0.243750X-0.456250X0.243750X-0.456250X0.243750X0.456250X-0.243750X0.456250X0*%
%TD*%
%TA.AperFunction,SMDPad,CuDef*%
%ADD12RoundRect,0.250000X-0.262500X-0.450000X0.262500X-0.450000X0.262500X0.450000X-0.262500X0.450000X0*%
%TD*%
%TA.AperFunction,SMDPad,CuDef*%
%ADD13RoundRect,0.250000X-0.750000X-0.950000X0.750000X-0.950000X0.750000X0.950000X-0.750000X0.950000X0*%
%TD*%
%TA.AperFunction,SMDPad,CuDef*%
%ADD14RoundRect,0.250000X0.250000X0.475000X-0.250000X0.475000X-0.250000X-0.475000X0.250000X-0.475000X0*%
%TD*%
%TA.AperFunction,ComponentPad*%
%ADD15R,1.700000X1.700000*%
%TD*%
%TA.AperFunction,ComponentPad*%
%ADD16C,1.700000*%
%TD*%
%TA.AperFunction,SMDPad,CuDef*%
%ADD17R,0.400000X1.350000*%
%TD*%
%TA.AperFunction,HeatsinkPad*%
%ADD18O,1.200000X1.900000*%
%TD*%
%TA.AperFunction,SMDPad,CuDef*%
%ADD19R,1.200000X1.900000*%
%TD*%
%TA.AperFunction,HeatsinkPad*%
%ADD20C,1.450000*%
%TD*%
%TA.AperFunction,SMDPad,CuDef*%
%ADD21R,1.500000X1.900000*%
%TD*%
%TA.AperFunction,SMDPad,CuDef*%
%ADD22RoundRect,0.250000X-0.525000X-0.400000X0.525000X-0.400000X0.525000X0.400000X-0.525000X0.400000X0*%
%TD*%
%TA.AperFunction,SMDPad,CuDef*%
%ADD23RoundRect,0.075000X-0.662500X-0.075000X0.662500X-0.075000X0.662500X0.075000X-0.662500X0.075000X0*%
%TD*%
%TA.AperFunction,SMDPad,CuDef*%
%ADD24RoundRect,0.075000X-0.075000X-0.662500X0.075000X-0.662500X0.075000X0.662500X-0.075000X0.662500X0*%
%TD*%
%TA.AperFunction,SMDPad,CuDef*%
%ADD25RoundRect,0.250000X-0.850000X-0.350000X0.850000X-0.350000X0.850000X0.350000X-0.850000X0.350000X0*%
%TD*%
%TA.AperFunction,SMDPad,CuDef*%
%ADD26RoundRect,0.249997X-2.950003X-2.650003X2.950003X-2.650003X2.950003X2.650003X-2.950003X2.650003X0*%
%TD*%
%TA.AperFunction,Conductor*%
%ADD27C,0.500000*%
%TD*%
%TA.AperFunction,Conductor*%
%ADD28C,0.200000*%
%TD*%
G04 APERTURE END LIST*
D10*
%TO.P,C12,1*%
%TO.N,/OSC32_IN*%
X164550000Y-121000000D03*
%TO.P,C12,2*%
%TO.N,GND*%
X166450000Y-121000000D03*
%TD*%
D11*
%TO.P,D2,1,K*%
%TO.N,GND*%
X173062500Y-113500000D03*
%TO.P,D2,2,A*%
%TO.N,Net-(D2-A)*%
X174937500Y-113500000D03*
%TD*%
D12*
%TO.P,R4,1*%
%TO.N,+3.3V*%
X182087500Y-63500000D03*
%TO.P,R4,2*%
%TO.N,unconnected-(R4-Pad2)*%
X183912500Y-63500000D03*
%TD*%
D10*
%TO.P,C6,1*%
%TO.N,+3.3V*%
X136500000Y-82000000D03*
%TO.P,C6,2*%
%TO.N,GND*%
X138400000Y-82000000D03*
%TD*%
D12*
%TO.P,R1,1*%
%TO.N,+3.3V*%
X149587500Y-87500000D03*
%TO.P,R1,2*%
%TO.N,Net-(U2-NRST)*%
X151412500Y-87500000D03*
%TD*%
D13*
%TO.P,Y2,1,1*%
%TO.N,/OSC32_IN*%
X162150000Y-108500000D03*
%TO.P,Y2,2,2*%
%TO.N,/OSC32_OUT*%
X165850000Y-108500000D03*
%TD*%
D14*
%TO.P,C11,1*%
%TO.N,/OSC_OUT*%
X163950000Y-91000000D03*
%TO.P,C11,2*%
%TO.N,GND*%
X162050000Y-91000000D03*
%TD*%
D15*
%TO.P,J2,1,Pin_1*%
%TO.N,+3.3V*%
X176500000Y-83380000D03*
D16*
%TO.P,J2,2,Pin_2*%
%TO.N,/SWCLK*%
X176500000Y-85920000D03*
%TO.P,J2,3,Pin_3*%
%TO.N,/SWDIO*%
X176500000Y-88460000D03*
%TO.P,J2,4,Pin_4*%
%TO.N,GND*%
X176500000Y-91000000D03*
%TD*%
D17*
%TO.P,J1,1,VBUS*%
%TO.N,+5V*%
X162350000Y-62500000D03*
%TO.P,J1,2,D-*%
%TO.N,Net-(J1-D-)*%
X163000000Y-62500000D03*
%TO.P,J1,3,D+*%
%TO.N,Net-(J1-D+)*%
X163650000Y-62500000D03*
%TO.P,J1,4,ID*%
%TO.N,unconnected-(J1-ID-Pad4)*%
X164300000Y-62500000D03*
%TO.P,J1,5,GND*%
%TO.N,GND*%
X164950000Y-62500000D03*
D18*
%TO.P,J1,6,Shield*%
X160150000Y-65200000D03*
D19*
X160750000Y-65200000D03*
D20*
X161150000Y-62500000D03*
D21*
X162650000Y-65200000D03*
X164650000Y-65200000D03*
D20*
X166150000Y-62500000D03*
D19*
X166550000Y-65200000D03*
D18*
X167150000Y-65200000D03*
%TD*%
D12*
%TO.P,R2,1*%
%TO.N,Net-(U2-PA12)*%
X161675000Y-53000000D03*
%TO.P,R2,2*%
%TO.N,Net-(J1-D+)*%
X163500000Y-53000000D03*
%TD*%
%TO.P,R3,1*%
%TO.N,/USB_D-*%
X146087500Y-68500000D03*
%TO.P,R3,2*%
%TO.N,Net-(J1-D-)*%
X147912500Y-68500000D03*
%TD*%
D10*
%TO.P,C5,1*%
%TO.N,+3.3V*%
X129000000Y-108500000D03*
%TO.P,C5,2*%
%TO.N,GND*%
X130900000Y-108500000D03*
%TD*%
D12*
%TO.P,R6,1*%
%TO.N,+3.3V*%
X173000000Y-120500000D03*
%TO.P,R6,2*%
%TO.N,Net-(D1-A)*%
X174825000Y-120500000D03*
%TD*%
D10*
%TO.P,C1,1*%
%TO.N,+5V*%
X150550000Y-60500000D03*
%TO.P,C1,2*%
%TO.N,GND*%
X152450000Y-60500000D03*
%TD*%
%TO.P,C4,1*%
%TO.N,+3.3V*%
X129000000Y-101500000D03*
%TO.P,C4,2*%
%TO.N,GND*%
X130900000Y-101500000D03*
%TD*%
%TO.P,C10,1*%
%TO.N,GND*%
X155550000Y-115500000D03*
%TO.P,C10,2*%
X157450000Y-115500000D03*
%TD*%
%TO.P,C7,1*%
%TO.N,+3.3V*%
X136550000Y-88000000D03*
%TO.P,C7,2*%
%TO.N,GND*%
X138450000Y-88000000D03*
%TD*%
%TO.P,C3,1*%
%TO.N,+5V*%
X129000000Y-94500000D03*
%TO.P,C3,2*%
%TO.N,GND*%
X130900000Y-94500000D03*
%TD*%
D13*
%TO.P,Y1,1,1*%
%TO.N,GND*%
X161395000Y-99402500D03*
%TO.P,Y1,2,2*%
%TO.N,/OSC_OUT*%
X165095000Y-99402500D03*
%TD*%
D22*
%TO.P,SW1,1,1*%
%TO.N,Net-(U2-NRST)*%
X136520000Y-131250000D03*
X144480000Y-131250000D03*
%TO.P,SW1,2,2*%
%TO.N,GND*%
X136520000Y-135750000D03*
X144480000Y-135750000D03*
%TD*%
D10*
%TO.P,C13,1*%
%TO.N,/OSC32_OUT*%
X164600000Y-116000000D03*
%TO.P,C13,2*%
%TO.N,GND*%
X166500000Y-116000000D03*
%TD*%
D11*
%TO.P,D1,1,K*%
%TO.N,GND*%
X171062500Y-98500000D03*
%TO.P,D1,2,A*%
%TO.N,Net-(D1-A)*%
X172937500Y-98500000D03*
%TD*%
D23*
%TO.P,U2,1,VBAT*%
%TO.N,+3.3V*%
X158837500Y-77750000D03*
%TO.P,U2,2,PC13*%
%TO.N,unconnected-(U2-PC13-Pad2)*%
X158837500Y-78250000D03*
%TO.P,U2,3,PC14*%
%TO.N,unconnected-(U2-PC14-Pad3)*%
X158837500Y-78750000D03*
%TO.P,U2,4,PC15*%
%TO.N,unconnected-(U2-PC15-Pad4)*%
X158837500Y-79250000D03*
%TO.P,U2,5,PD0*%
%TO.N,GND*%
X158837500Y-79750000D03*
%TO.P,U2,6,PD1*%
%TO.N,/OSC_OUT*%
X158837500Y-80250000D03*
%TO.P,U2,7,NRST*%
%TO.N,Net-(U2-NRST)*%
X158837500Y-80750000D03*
%TO.P,U2,8,VSSA*%
%TO.N,GND*%
X158837500Y-81250000D03*
%TO.P,U2,9,VDDA*%
%TO.N,+3.3V*%
X158837500Y-81750000D03*
%TO.P,U2,10,PA0*%
%TO.N,unconnected-(U2-PA0-Pad10)*%
X158837500Y-82250000D03*
%TO.P,U2,11,PA1*%
%TO.N,unconnected-(U2-PA1-Pad11)*%
X158837500Y-82750000D03*
%TO.P,U2,12,PA2*%
%TO.N,unconnected-(U2-PA2-Pad12)*%
X158837500Y-83250000D03*
D24*
%TO.P,U2,13,PA3*%
%TO.N,unconnected-(U2-PA3-Pad13)*%
X160250000Y-84662500D03*
%TO.P,U2,14,PA4*%
%TO.N,/OSC32_IN*%
X160750000Y-84662500D03*
%TO.P,U2,15,PA5*%
%TO.N,/OSC32_OUT*%
X161250000Y-84662500D03*
%TO.P,U2,16,PA6*%
%TO.N,unconnected-(U2-PA6-Pad16)*%
X161750000Y-84662500D03*
%TO.P,U2,17,PA7*%
%TO.N,unconnected-(U2-PA7-Pad17)*%
X162250000Y-84662500D03*
%TO.P,U2,18,PB0*%
%TO.N,unconnected-(U2-PB0-Pad18)*%
X162750000Y-84662500D03*
%TO.P,U2,19,PB1*%
%TO.N,unconnected-(U2-PB1-Pad19)*%
X163250000Y-84662500D03*
%TO.P,U2,20,PB2*%
%TO.N,unconnected-(U2-PB2-Pad20)*%
X163750000Y-84662500D03*
%TO.P,U2,21,PB10*%
%TO.N,unconnected-(U2-PB10-Pad21)*%
X164250000Y-84662500D03*
%TO.P,U2,22,PB11*%
%TO.N,unconnected-(U2-PB11-Pad22)*%
X164750000Y-84662500D03*
%TO.P,U2,23,VSS*%
%TO.N,GND*%
X165250000Y-84662500D03*
%TO.P,U2,24,VDD*%
%TO.N,+3.3V*%
X165750000Y-84662500D03*
D23*
%TO.P,U2,25,PB12*%
%TO.N,unconnected-(U2-PB12-Pad25)*%
X167162500Y-83250000D03*
%TO.P,U2,26,PB13*%
%TO.N,unconnected-(U2-PB13-Pad26)*%
X167162500Y-82750000D03*
%TO.P,U2,27,PB14*%
%TO.N,unconnected-(U2-PB14-Pad27)*%
X167162500Y-82250000D03*
%TO.P,U2,28,PB15*%
%TO.N,unconnected-(U2-PB15-Pad28)*%
X167162500Y-81750000D03*
%TO.P,U2,29,PA8*%
%TO.N,unconnected-(U2-PA8-Pad29)*%
X167162500Y-81250000D03*
%TO.P,U2,30,PA9*%
%TO.N,unconnected-(U2-PA9-Pad30)*%
X167162500Y-80750000D03*
%TO.P,U2,31,PA10*%
%TO.N,unconnected-(U2-PA10-Pad31)*%
X167162500Y-80250000D03*
%TO.P,U2,32,PA11*%
%TO.N,/USB_D-*%
X167162500Y-79750000D03*
%TO.P,U2,33,PA12*%
%TO.N,Net-(U2-PA12)*%
X167162500Y-79250000D03*
%TO.P,U2,34,PA13*%
%TO.N,/LED_USER*%
X167162500Y-78750000D03*
%TO.P,U2,35,VSS*%
%TO.N,GND*%
X167162500Y-78250000D03*
%TO.P,U2,36,VDD*%
%TO.N,+3.3V*%
X167162500Y-77750000D03*
D24*
%TO.P,U2,37,PA14*%
%TO.N,unconnected-(U2-PA14-Pad37)*%
X165750000Y-76337500D03*
%TO.P,U2,38,PA15*%
%TO.N,unconnected-(U2-PA15-Pad38)*%
X165250000Y-76337500D03*
%TO.P,U2,39,PB3*%
%TO.N,unconnected-(U2-PB3-Pad39)*%
X164750000Y-76337500D03*
%TO.P,U2,40,PB4*%
%TO.N,unconnected-(U2-PB4-Pad40)*%
X164250000Y-76337500D03*
%TO.P,U2,41,PB5*%
%TO.N,unconnected-(U2-PB5-Pad41)*%
X163750000Y-76337500D03*
%TO.P,U2,42,PB6*%
%TO.N,unconnected-(U2-PB6-Pad42)*%
X163250000Y-76337500D03*
%TO.P,U2,43,PB7*%
%TO.N,unconnected-(U2-PB7-Pad43)*%
X162750000Y-76337500D03*
%TO.P,U2,44,BOOT0*%
%TO.N,unconnected-(U2-BOOT0-Pad44)*%
X162250000Y-76337500D03*
%TO.P,U2,45,PB8*%
%TO.N,unconnected-(U2-PB8-Pad45)*%
X161750000Y-76337500D03*
%TO.P,U2,46,PB9*%
%TO.N,unconnected-(U2-PB9-Pad46)*%
X161250000Y-76337500D03*
%TO.P,U2,47,VSS*%
%TO.N,GND*%
X160750000Y-76337500D03*
%TO.P,U2,48,VDD*%
%TO.N,+3.3V*%
X160250000Y-76337500D03*
%TD*%
D12*
%TO.P,R5,1*%
%TO.N,/LED_USER*%
X171500000Y-104500000D03*
%TO.P,R5,2*%
%TO.N,Net-(D2-A)*%
X173325000Y-104500000D03*
%TD*%
D10*
%TO.P,C9,1*%
%TO.N,Net-(U2-NRST)*%
X137000000Y-101500000D03*
%TO.P,C9,2*%
%TO.N,GND*%
X138900000Y-101500000D03*
%TD*%
D25*
%TO.P,U1,1,GND*%
%TO.N,GND*%
X135875000Y-60745000D03*
%TO.P,U1,2,VO*%
%TO.N,+3.3V*%
X135875000Y-63025000D03*
D26*
X142175000Y-63025000D03*
D25*
%TO.P,U1,3,VI*%
%TO.N,+5V*%
X135875000Y-65305000D03*
%TD*%
D10*
%TO.P,C2,1*%
%TO.N,+3.3V*%
X130000000Y-63500000D03*
%TO.P,C2,2*%
%TO.N,GND*%
X131900000Y-63500000D03*
%TD*%
%TO.P,C8,1*%
%TO.N,+3.3V*%
X136500000Y-94000000D03*
%TO.P,C8,2*%
%TO.N,GND*%
X138400000Y-94000000D03*
%TD*%
D27*
%TO.N,*%
X-96000000Y-248500000D02*
X-96000000Y14500000D01*
X344000000Y16500000D02*
X344500000Y16000000D01*
X330000000Y-246000000D02*
X-93500000Y-246000000D01*
X-93500000Y-246000000D02*
X-96000000Y-248500000D01*
X344500000Y16000000D02*
X344500000Y13500000D01*
D28*
X165500000Y-48000000D02*
X165400000Y-47900000D01*
D27*
X-94000000Y16500000D02*
X344000000Y16500000D01*
X378500000Y-16000000D02*
X378500000Y-197500000D01*
X378500000Y-197500000D02*
X330000000Y-246000000D01*
X-96000000Y14500000D02*
X-94000000Y16500000D01*
D28*
X142000000Y-25000000D02*
X141500000Y-25000000D01*
X147500000Y-34000000D02*
X148000000Y-34000000D01*
X142000000Y-24500000D02*
X142000000Y-25000000D01*
D27*
X343500000Y19000000D02*
X378500000Y-16000000D01*
%TO.N,GND*%
X155550000Y-107297500D02*
X161395000Y-101452500D01*
X138450000Y-109000000D02*
X139000000Y-109000000D01*
X134250000Y-135750000D02*
X136520000Y-135750000D01*
X130900000Y-135900000D02*
X132500000Y-137500000D01*
X136550000Y-109000000D02*
X136050000Y-108500000D01*
X132500000Y-137500000D02*
X134250000Y-135750000D01*
X155550000Y-115500000D02*
X155550000Y-107297500D01*
X130900000Y-108500000D02*
X130900000Y-135900000D01*
X139000000Y-101500000D02*
X138900000Y-101500000D01*
D28*
%TO.N,+5V*%
X150550000Y-63909744D02*
X150550000Y-60500000D01*
X162350000Y-62500000D02*
X162350000Y-62975000D01*
X162350000Y-62025000D02*
X159325000Y-59000000D01*
X162350000Y-62500000D02*
X162350000Y-62025000D01*
X135875000Y-65305000D02*
X136795000Y-66225000D01*
X150500000Y-59000000D02*
X150550000Y-59050000D01*
X150550000Y-59050000D02*
X150550000Y-60500000D01*
X159325000Y-59000000D02*
X150500000Y-59000000D01*
X148234744Y-66225000D02*
X150550000Y-63909744D01*
X136795000Y-66225000D02*
X148234744Y-66225000D01*
%TO.N,+3.3V*%
X158017590Y-81700000D02*
X157800000Y-81917590D01*
D27*
X176500000Y-80000000D02*
X170706250Y-74206250D01*
D28*
X157800000Y-81917590D02*
X157800000Y-82482410D01*
X135875000Y-63025000D02*
X133900000Y-65000000D01*
X134475000Y-85925000D02*
X136550000Y-88000000D01*
X142175000Y-63025000D02*
X157700000Y-47500000D01*
X168500000Y-104500000D02*
X167500000Y-104500000D01*
X167500000Y-104500000D02*
X167000000Y-104000000D01*
X134475000Y-64425000D02*
X134475000Y-91975000D01*
X149490256Y-87500000D02*
X149587500Y-87500000D01*
X167000000Y-104000000D02*
X167000000Y-85912500D01*
X156350000Y-116209744D02*
X140359744Y-132200000D01*
X134475000Y-64425000D02*
X134475000Y-79975000D01*
X182087500Y-63500000D02*
X182175000Y-63587500D01*
X134475000Y-64720256D02*
X134475000Y-85925000D01*
X129800000Y-69100000D02*
X129800000Y-100700000D01*
X157800000Y-82482410D02*
X157800000Y-82017590D01*
X134475000Y-79975000D02*
X136500000Y-82000000D01*
X157700000Y-47500000D02*
X166087500Y-47500000D01*
X167000000Y-85912500D02*
X165750000Y-84662500D01*
X136170256Y-63025000D02*
X134475000Y-64720256D01*
X142175000Y-63025000D02*
X136170256Y-63025000D01*
X173000000Y-120500000D02*
X173000000Y-117000000D01*
X133350000Y-60500000D02*
X133000000Y-60500000D01*
X136170256Y-63025000D02*
X129800000Y-69395256D01*
X135875000Y-63025000D02*
X134475000Y-64425000D01*
X149587500Y-87500000D02*
X150000000Y-87500000D01*
X135875000Y-63025000D02*
X129800000Y-69100000D01*
X166087500Y-47500000D02*
X182087500Y-63500000D01*
X173000000Y-117000000D02*
X168500000Y-117000000D01*
X135445000Y-131884744D02*
X135445000Y-101545256D01*
X134475000Y-91975000D02*
X136500000Y-94000000D01*
X181412500Y-63500000D02*
X170706250Y-74206250D01*
X158067590Y-81750000D02*
X158837500Y-81750000D01*
X129800000Y-100700000D02*
X129000000Y-101500000D01*
X140359744Y-132200000D02*
X135760256Y-132200000D01*
D27*
X176500000Y-83380000D02*
X176500000Y-80000000D01*
D28*
X134475000Y-64720256D02*
X134475000Y-91975000D01*
X134475000Y-64425000D02*
X134475000Y-85925000D01*
X168500000Y-114500000D02*
X168500000Y-104000000D01*
X157800000Y-82482410D02*
X157817590Y-82500000D01*
X135760256Y-132200000D02*
X135445000Y-131884744D01*
X135875000Y-63025000D02*
X133350000Y-60500000D01*
X133900000Y-65000000D02*
X133900000Y-103600000D01*
X168500000Y-104000000D02*
X165802500Y-101302500D01*
X168500000Y-117000000D02*
X168500000Y-114500000D01*
X159875000Y-81482410D02*
X159657410Y-81700000D01*
X133000000Y-60500000D02*
X130000000Y-63500000D01*
X170706250Y-74206250D02*
X167162500Y-77750000D01*
X159607410Y-81750000D02*
X158837500Y-81750000D01*
X134475000Y-64720256D02*
X134475000Y-72387500D01*
X134475000Y-64720256D02*
X134475000Y-79975000D01*
X156350000Y-110755000D02*
X156350000Y-116209744D01*
X159875000Y-78017590D02*
X159875000Y-81482410D01*
X134475000Y-72387500D02*
X149587500Y-87500000D01*
X182087500Y-63500000D02*
X181412500Y-63500000D01*
X135445000Y-101545256D02*
X149490256Y-87500000D01*
X158017590Y-77800000D02*
X159657410Y-77800000D01*
X129800000Y-69395256D02*
X129800000Y-100700000D01*
X159657410Y-77800000D02*
X159875000Y-78017590D01*
X165802500Y-101302500D02*
X156350000Y-110755000D01*
X157800000Y-82017590D02*
X158067590Y-81750000D01*
X150000000Y-87500000D02*
X150000000Y-85817590D01*
X133900000Y-103600000D02*
X129000000Y-108500000D01*
X150000000Y-85817590D02*
X158017590Y-77800000D01*
X159657410Y-81700000D02*
X158017590Y-81700000D01*
X129800000Y-69395256D02*
X129800000Y-107700000D01*
X168500000Y-114500000D02*
X168500000Y-104500000D01*
X129800000Y-107700000D02*
X129000000Y-108500000D01*
%TO.N,Net-(U2-NRST)*%
X157967590Y-80750000D02*
X158837500Y-80750000D01*
X166510907Y-100471337D02*
X166510907Y-85989093D01*
X157400000Y-83082410D02*
X157400000Y-81417590D01*
D27*
X137250000Y-101750000D02*
X137000000Y-101500000D01*
D28*
X166510907Y-85989093D02*
X160306683Y-85989093D01*
X160306683Y-85989093D02*
X157400000Y-83082410D01*
D27*
X137250000Y-130520000D02*
X137250000Y-101750000D01*
D28*
X166079744Y-100902500D02*
X166510907Y-100471337D01*
D27*
X137000000Y-101500000D02*
X146595256Y-91904744D01*
D28*
X158067590Y-80750000D02*
X158837500Y-80750000D01*
D27*
X146595256Y-91904744D02*
X151412500Y-91904744D01*
D28*
X151412500Y-87500000D02*
X151412500Y-91904744D01*
D27*
X137500000Y-101500000D02*
X137000000Y-101500000D01*
D28*
X160410256Y-100902500D02*
X166079744Y-100902500D01*
X157400000Y-81417590D02*
X158067590Y-80750000D01*
X151412500Y-91904744D02*
X160410256Y-100902500D01*
D27*
X136520000Y-131250000D02*
X137250000Y-130520000D01*
D28*
%TO.N,/OSC_OUT*%
X158837500Y-80250000D02*
X156750000Y-80250000D01*
X159000000Y-88500000D02*
X165500000Y-88500000D01*
X165095000Y-99402500D02*
X165095000Y-99095000D01*
X165500000Y-90500000D02*
X165000000Y-91000000D01*
X156500000Y-80500000D02*
X156500000Y-86000000D01*
X165095000Y-99402500D02*
X165095000Y-91095000D01*
X165095000Y-99095000D02*
X164500000Y-98500000D01*
X165500000Y-88500000D02*
X165500000Y-90500000D01*
X156750000Y-80250000D02*
X156500000Y-80500000D01*
X165000000Y-91000000D02*
X163950000Y-91000000D01*
X156500000Y-86000000D02*
X159000000Y-88500000D01*
X165095000Y-91095000D02*
X165000000Y-91000000D01*
%TO.N,/OSC32_IN*%
X162150000Y-118600000D02*
X162150000Y-108500000D01*
X172434315Y-121500000D02*
X173497244Y-121500000D01*
X173812500Y-121184744D02*
X173812500Y-117246815D01*
X165982410Y-83625000D02*
X161017590Y-83625000D01*
X168900000Y-102965685D02*
X167400000Y-101465685D01*
X173497244Y-121500000D02*
X173812500Y-121184744D01*
X167400000Y-101465685D02*
X167400000Y-85042590D01*
X164550000Y-121000000D02*
X162150000Y-118600000D01*
X168100000Y-117165685D02*
X172434315Y-121500000D01*
X168100000Y-104900000D02*
X168100000Y-117165685D01*
X165750000Y-104900000D02*
X168100000Y-104900000D01*
X161017590Y-83625000D02*
X160750000Y-83892590D01*
X167400000Y-85042590D02*
X165982410Y-83625000D01*
X173812500Y-117246815D02*
X168900000Y-112334315D01*
X168900000Y-112334315D02*
X168900000Y-102965685D01*
X162150000Y-108500000D02*
X162150000Y-109000000D01*
X160750000Y-83892590D02*
X160750000Y-84662500D01*
X162150000Y-108500000D02*
X165750000Y-104900000D01*
%TO.N,/OSC32_OUT*%
X165850000Y-114750000D02*
X164600000Y-116000000D01*
X165850000Y-108500000D02*
X165850000Y-114750000D01*
%TO.N,Net-(D1-A)*%
X177500000Y-117825000D02*
X174825000Y-120500000D01*
X172937500Y-98500000D02*
X177000000Y-98500000D01*
X173500000Y-99062500D02*
X172937500Y-98500000D01*
X177500000Y-99000000D02*
X177500000Y-117825000D01*
X177000000Y-98500000D02*
X177500000Y-99000000D01*
%TO.N,Net-(D2-A)*%
X174937500Y-113062500D02*
X175000000Y-113000000D01*
X174937500Y-113500000D02*
X174937500Y-113062500D01*
X175000000Y-113000000D02*
X175000000Y-104500000D01*
X175000000Y-104500000D02*
X173325000Y-104500000D01*
%TO.N,Net-(J1-D+)*%
X161177756Y-52000000D02*
X160862500Y-52315256D01*
X162500000Y-52000000D02*
X161177756Y-52000000D01*
X160862500Y-58837500D02*
X163650000Y-61625000D01*
X160862500Y-52315256D02*
X160862500Y-58837500D01*
X163500000Y-53000000D02*
X162500000Y-52000000D01*
X163650000Y-61625000D02*
X163650000Y-62500000D01*
%TO.N,Net-(J1-D-)*%
X163000000Y-61675000D02*
X163000000Y-62500000D01*
X147912500Y-68500000D02*
X147862500Y-68450000D01*
X162450000Y-63925000D02*
X163000000Y-63375000D01*
X147912500Y-68500000D02*
X152487500Y-63925000D01*
X163000000Y-63375000D02*
X163000000Y-61675000D01*
X152487500Y-63925000D02*
X162450000Y-63925000D01*
%TO.N,Net-(U2-PA12)*%
X166125000Y-78982410D02*
X166392590Y-79250000D01*
X174500000Y-69142590D02*
X166125000Y-77517590D01*
X166392590Y-79250000D02*
X167162500Y-79250000D01*
X161675000Y-53000000D02*
X168175000Y-59500000D01*
X168175000Y-59500000D02*
X174500000Y-59500000D01*
X166125000Y-77517590D02*
X166125000Y-78982410D01*
X174500000Y-59500000D02*
X174500000Y-69142590D01*
%TO.N,/USB_D-*%
X154744910Y-77157410D02*
X159800000Y-77157410D01*
X159800000Y-77157410D02*
X162392590Y-79750000D01*
X146087500Y-68500000D02*
X154744910Y-77157410D01*
X162392590Y-79750000D02*
X167162500Y-79750000D01*
%TO.N,unconnected-(R4-Pad2)*%
X183912500Y-63912500D02*
X184000000Y-64000000D01*
%TO.N,/LED_USER*%
X171500000Y-102000000D02*
X168500000Y-102000000D01*
X171500000Y-104500000D02*
X171500000Y-102000000D01*
X168500000Y-79000000D02*
X168250000Y-78750000D01*
X168500000Y-102000000D02*
X168500000Y-79000000D01*
X168250000Y-78750000D02*
X167162500Y-78750000D01*
%TD*%
%TA.AperFunction,Conductor*%
%TO.N,GND*%
G36*
X151329442Y-92674929D02*
G01*
X151350083Y-92691562D01*
X160041540Y-101383020D01*
X160041542Y-101383021D01*
X160041546Y-101383024D01*
X160070084Y-101399500D01*
X160178472Y-101462077D01*
X160331199Y-101503001D01*
X160331201Y-101503001D01*
X160496910Y-101503001D01*
X160496926Y-101503000D01*
X164453402Y-101503000D01*
X164520441Y-101522685D01*
X164566196Y-101575489D01*
X164576140Y-101644647D01*
X164547115Y-101708203D01*
X164541083Y-101714681D01*
X155869481Y-110386282D01*
X155869479Y-110386285D01*
X155819361Y-110473094D01*
X155819359Y-110473096D01*
X155790425Y-110523209D01*
X155790424Y-110523210D01*
X155790423Y-110523215D01*
X155749499Y-110675943D01*
X155749499Y-110675945D01*
X155749499Y-110844046D01*
X155749500Y-110844059D01*
X155749500Y-115626000D01*
X155729815Y-115693039D01*
X155677011Y-115738794D01*
X155625500Y-115750000D01*
X154550001Y-115750000D01*
X154550001Y-116024986D01*
X154560494Y-116127697D01*
X154615641Y-116294119D01*
X154615643Y-116294124D01*
X154707684Y-116443345D01*
X154831656Y-116567317D01*
X154890865Y-116603837D01*
X154937590Y-116655785D01*
X154948813Y-116724747D01*
X154920970Y-116788829D01*
X154913450Y-116797057D01*
X140147328Y-131563181D01*
X140086005Y-131596666D01*
X140059647Y-131599500D01*
X137919500Y-131599500D01*
X137852461Y-131579815D01*
X137806706Y-131527011D01*
X137795500Y-131475500D01*
X137795499Y-131087230D01*
X137815183Y-131020191D01*
X137831821Y-130999545D01*
X137832952Y-130998416D01*
X137902381Y-130894506D01*
X137915084Y-130875495D01*
X137971658Y-130738913D01*
X138000500Y-130593918D01*
X138000500Y-114975013D01*
X154550000Y-114975013D01*
X154550000Y-115250000D01*
X155300000Y-115250000D01*
X155300000Y-114275000D01*
X155299999Y-114274999D01*
X155250029Y-114275000D01*
X155250011Y-114275001D01*
X155147302Y-114285494D01*
X154980880Y-114340641D01*
X154980875Y-114340643D01*
X154831654Y-114432684D01*
X154707684Y-114556654D01*
X154615643Y-114705875D01*
X154615641Y-114705880D01*
X154560494Y-114872302D01*
X154560493Y-114872309D01*
X154550000Y-114975013D01*
X138000500Y-114975013D01*
X138000500Y-102677753D01*
X138020185Y-102610714D01*
X138072989Y-102564959D01*
X138142147Y-102555015D01*
X138189597Y-102572215D01*
X138330869Y-102659353D01*
X138330880Y-102659358D01*
X138497302Y-102714505D01*
X138497309Y-102714506D01*
X138600019Y-102724999D01*
X139150000Y-102724999D01*
X139199972Y-102724999D01*
X139199986Y-102724998D01*
X139302697Y-102714505D01*
X139469119Y-102659358D01*
X139469124Y-102659356D01*
X139618345Y-102567315D01*
X139742315Y-102443345D01*
X139834356Y-102294124D01*
X139834358Y-102294119D01*
X139889505Y-102127697D01*
X139889506Y-102127690D01*
X139899999Y-102024986D01*
X139900000Y-102024973D01*
X139900000Y-101750000D01*
X139150000Y-101750000D01*
X139150000Y-102724999D01*
X138600019Y-102724999D01*
X138649999Y-102724998D01*
X138650000Y-102724998D01*
X138650000Y-101624000D01*
X138669685Y-101556961D01*
X138722489Y-101511206D01*
X138774000Y-101500000D01*
X138900000Y-101500000D01*
X138900000Y-101374000D01*
X138919685Y-101306961D01*
X138972489Y-101261206D01*
X139024000Y-101250000D01*
X139899999Y-101250000D01*
X139899999Y-100975028D01*
X139899998Y-100975013D01*
X139889505Y-100872302D01*
X139834358Y-100705880D01*
X139834356Y-100705875D01*
X139742315Y-100556654D01*
X139618345Y-100432684D01*
X139469124Y-100340643D01*
X139462579Y-100337592D01*
X139463640Y-100335315D01*
X139415920Y-100302265D01*
X139389107Y-100237745D01*
X139401432Y-100168971D01*
X139424694Y-100136672D01*
X146869804Y-92691563D01*
X146931127Y-92658078D01*
X146957485Y-92655244D01*
X151262403Y-92655244D01*
X151329442Y-92674929D01*
G37*
%TD.AperFunction*%
%TA.AperFunction,Conductor*%
G36*
X133218834Y-66928171D02*
G01*
X133274767Y-66970043D01*
X133299184Y-67035507D01*
X133299500Y-67044353D01*
X133299500Y-103299903D01*
X133279815Y-103366942D01*
X133263181Y-103387584D01*
X130612181Y-106038584D01*
X130550858Y-106072069D01*
X130481166Y-106067085D01*
X130425233Y-106025213D01*
X130400816Y-105959749D01*
X130400500Y-105950903D01*
X130400500Y-102841930D01*
X130420185Y-102774891D01*
X130472989Y-102729136D01*
X130537103Y-102718572D01*
X130600019Y-102724999D01*
X131150000Y-102724999D01*
X131199972Y-102724999D01*
X131199986Y-102724998D01*
X131302697Y-102714505D01*
X131469119Y-102659358D01*
X131469124Y-102659356D01*
X131618345Y-102567315D01*
X131742315Y-102443345D01*
X131834356Y-102294124D01*
X131834358Y-102294119D01*
X131889505Y-102127697D01*
X131889506Y-102127690D01*
X131899999Y-102024986D01*
X131900000Y-102024973D01*
X131900000Y-101750000D01*
X131150000Y-101750000D01*
X131150000Y-102724999D01*
X130600019Y-102724999D01*
X130649999Y-102724998D01*
X130650000Y-102724998D01*
X130650000Y-101250000D01*
X131150000Y-101250000D01*
X131899999Y-101250000D01*
X131899999Y-100975028D01*
X131899998Y-100975013D01*
X131889505Y-100872302D01*
X131834358Y-100705880D01*
X131834356Y-100705875D01*
X131742315Y-100556654D01*
X131618345Y-100432684D01*
X131469124Y-100340643D01*
X131469119Y-100340641D01*
X131302697Y-100285494D01*
X131302690Y-100285493D01*
X131199986Y-100275000D01*
X131150000Y-100275000D01*
X131150000Y-101250000D01*
X130650000Y-101250000D01*
X130650000Y-100275000D01*
X130649999Y-100274999D01*
X130600029Y-100275000D01*
X130600009Y-100275001D01*
X130537101Y-100281428D01*
X130468408Y-100268658D01*
X130417524Y-100220777D01*
X130400500Y-100158070D01*
X130400500Y-95841930D01*
X130420185Y-95774891D01*
X130472989Y-95729136D01*
X130537103Y-95718572D01*
X130600019Y-95724999D01*
X131150000Y-95724999D01*
X131199972Y-95724999D01*
X131199986Y-95724998D01*
X131302697Y-95714505D01*
X131469119Y-95659358D01*
X131469124Y-95659356D01*
X131618345Y-95567315D01*
X131742315Y-95443345D01*
X131834356Y-95294124D01*
X131834358Y-95294119D01*
X131889505Y-95127697D01*
X131889506Y-95127690D01*
X131899999Y-95024986D01*
X131900000Y-95024973D01*
X131900000Y-94750000D01*
X131150000Y-94750000D01*
X131150000Y-95724999D01*
X130600019Y-95724999D01*
X130649999Y-95724998D01*
X130650000Y-95724998D01*
X130650000Y-94250000D01*
X131150000Y-94250000D01*
X131899999Y-94250000D01*
X131899999Y-93975028D01*
X131899998Y-93975013D01*
X131889505Y-93872302D01*
X131834358Y-93705880D01*
X131834356Y-93705875D01*
X131742315Y-93556654D01*
X131618345Y-93432684D01*
X131469124Y-93340643D01*
X131469119Y-93340641D01*
X131302697Y-93285494D01*
X131302690Y-93285493D01*
X131199986Y-93275000D01*
X131150000Y-93275000D01*
X131150000Y-94250000D01*
X130650000Y-94250000D01*
X130650000Y-93275000D01*
X130649999Y-93274999D01*
X130600029Y-93275000D01*
X130600009Y-93275001D01*
X130537101Y-93281428D01*
X130468408Y-93268658D01*
X130417524Y-93220777D01*
X130400500Y-93158070D01*
X130400500Y-69695353D01*
X130420185Y-69628314D01*
X130436819Y-69607672D01*
X133087819Y-66956672D01*
X133149142Y-66923187D01*
X133218834Y-66928171D01*
G37*
%TD.AperFunction*%
%TA.AperFunction,Conductor*%
G36*
X155818834Y-80950505D02*
G01*
X155874767Y-80992377D01*
X155899184Y-81057841D01*
X155899500Y-81066687D01*
X155899500Y-85913330D01*
X155899499Y-85913348D01*
X155899499Y-86079054D01*
X155899498Y-86079054D01*
X155899499Y-86079057D01*
X155940423Y-86231785D01*
X155942991Y-86236233D01*
X155942994Y-86236244D01*
X155942997Y-86236243D01*
X156019477Y-86368712D01*
X156019481Y-86368717D01*
X156138349Y-86487585D01*
X156138355Y-86487590D01*
X158515139Y-88864374D01*
X158515149Y-88864385D01*
X158519479Y-88868715D01*
X158519480Y-88868716D01*
X158631284Y-88980520D01*
X158718095Y-89030639D01*
X158718097Y-89030641D01*
X158756151Y-89052611D01*
X158768215Y-89059577D01*
X158920943Y-89100501D01*
X158920946Y-89100501D01*
X159086653Y-89100501D01*
X159086669Y-89100500D01*
X164775500Y-89100500D01*
X164842539Y-89120185D01*
X164888294Y-89172989D01*
X164899500Y-89224500D01*
X164899500Y-89863770D01*
X164879815Y-89930809D01*
X164827011Y-89976564D01*
X164757853Y-89986508D01*
X164694297Y-89957483D01*
X164687819Y-89951451D01*
X164668657Y-89932289D01*
X164668656Y-89932288D01*
X164527755Y-89845380D01*
X164519336Y-89840187D01*
X164519331Y-89840185D01*
X164517862Y-89839698D01*
X164352797Y-89785001D01*
X164352795Y-89785000D01*
X164250010Y-89774500D01*
X163649998Y-89774500D01*
X163649980Y-89774501D01*
X163547203Y-89785000D01*
X163547200Y-89785001D01*
X163380668Y-89840185D01*
X163380663Y-89840187D01*
X163231342Y-89932289D01*
X163107288Y-90056343D01*
X163107283Y-90056349D01*
X163105241Y-90059661D01*
X163103247Y-90061453D01*
X163102807Y-90062011D01*
X163102711Y-90061935D01*
X163053291Y-90106383D01*
X162984328Y-90117602D01*
X162920247Y-90089755D01*
X162894168Y-90059656D01*
X162892319Y-90056659D01*
X162892316Y-90056655D01*
X162768345Y-89932684D01*
X162619124Y-89840643D01*
X162619119Y-89840641D01*
X162452697Y-89785494D01*
X162452690Y-89785493D01*
X162349986Y-89775000D01*
X162300000Y-89775000D01*
X162300000Y-92224999D01*
X162349972Y-92224999D01*
X162349986Y-92224998D01*
X162452697Y-92214505D01*
X162619119Y-92159358D01*
X162619124Y-92159356D01*
X162768345Y-92067315D01*
X162892318Y-91943342D01*
X162894165Y-91940348D01*
X162895969Y-91938724D01*
X162896798Y-91937677D01*
X162896976Y-91937818D01*
X162946110Y-91893621D01*
X163015073Y-91882396D01*
X163079156Y-91910236D01*
X163105243Y-91940341D01*
X163107288Y-91943656D01*
X163231344Y-92067712D01*
X163380666Y-92159814D01*
X163547203Y-92214999D01*
X163649991Y-92225500D01*
X164250008Y-92225499D01*
X164352797Y-92214999D01*
X164352800Y-92214997D01*
X164357898Y-92214477D01*
X164426591Y-92227246D01*
X164477475Y-92275127D01*
X164494500Y-92337835D01*
X164494500Y-97578000D01*
X164474815Y-97645039D01*
X164422011Y-97690794D01*
X164370502Y-97702000D01*
X164294999Y-97702000D01*
X164294980Y-97702001D01*
X164192203Y-97712500D01*
X164192200Y-97712501D01*
X164025668Y-97767685D01*
X164025663Y-97767687D01*
X163876342Y-97859789D01*
X163752289Y-97983842D01*
X163660187Y-98133163D01*
X163660185Y-98133168D01*
X163660115Y-98133380D01*
X163605001Y-98299703D01*
X163605001Y-98299704D01*
X163605000Y-98299704D01*
X163594500Y-98402483D01*
X163594500Y-98402491D01*
X163594500Y-99351440D01*
X163594501Y-100178000D01*
X163574816Y-100245039D01*
X163522013Y-100290794D01*
X163470501Y-100302000D01*
X163019000Y-100302000D01*
X162951961Y-100282315D01*
X162906206Y-100229511D01*
X162895000Y-100178000D01*
X162895000Y-99652500D01*
X161519000Y-99652500D01*
X161451961Y-99632815D01*
X161406206Y-99580011D01*
X161395000Y-99528500D01*
X161395000Y-99402500D01*
X161269000Y-99402500D01*
X161201961Y-99382815D01*
X161156206Y-99330011D01*
X161145000Y-99278500D01*
X161145000Y-99152500D01*
X161645000Y-99152500D01*
X162894999Y-99152500D01*
X162894999Y-98402528D01*
X162894998Y-98402513D01*
X162884505Y-98299802D01*
X162829358Y-98133380D01*
X162829356Y-98133375D01*
X162737315Y-97984154D01*
X162613345Y-97860184D01*
X162464124Y-97768143D01*
X162464119Y-97768141D01*
X162297697Y-97712994D01*
X162297690Y-97712993D01*
X162194986Y-97702500D01*
X161645000Y-97702500D01*
X161645000Y-99152500D01*
X161145000Y-99152500D01*
X161145000Y-97702500D01*
X160595028Y-97702500D01*
X160595012Y-97702501D01*
X160492302Y-97712994D01*
X160325880Y-97768141D01*
X160325875Y-97768143D01*
X160176654Y-97860184D01*
X160052684Y-97984154D01*
X159960643Y-98133375D01*
X159960641Y-98133380D01*
X159905494Y-98299802D01*
X159905493Y-98299809D01*
X159895000Y-98402513D01*
X159895000Y-99238646D01*
X159875315Y-99305685D01*
X159822511Y-99351440D01*
X159753353Y-99361384D01*
X159689797Y-99332359D01*
X159683319Y-99326327D01*
X152183434Y-91826443D01*
X152149949Y-91765120D01*
X152149525Y-91763090D01*
X152134158Y-91685831D01*
X152129631Y-91674903D01*
X152077585Y-91549252D01*
X152077584Y-91549249D01*
X152061372Y-91524986D01*
X161050001Y-91524986D01*
X161060494Y-91627697D01*
X161115641Y-91794119D01*
X161115643Y-91794124D01*
X161207684Y-91943345D01*
X161331654Y-92067315D01*
X161480875Y-92159356D01*
X161480880Y-92159358D01*
X161647302Y-92214505D01*
X161647309Y-92214506D01*
X161750019Y-92224999D01*
X161799999Y-92224998D01*
X161800000Y-92224998D01*
X161800000Y-91250000D01*
X161050001Y-91250000D01*
X161050001Y-91524986D01*
X152061372Y-91524986D01*
X152033896Y-91483865D01*
X152028246Y-91465819D01*
X152018023Y-91449911D01*
X152013571Y-91418948D01*
X152013020Y-91417188D01*
X152013000Y-91414976D01*
X152013000Y-90475013D01*
X161050000Y-90475013D01*
X161050000Y-90750000D01*
X161800000Y-90750000D01*
X161800000Y-89775000D01*
X161799999Y-89774999D01*
X161750029Y-89775000D01*
X161750011Y-89775001D01*
X161647302Y-89785494D01*
X161480880Y-89840641D01*
X161480875Y-89840643D01*
X161331654Y-89932684D01*
X161207684Y-90056654D01*
X161115643Y-90205875D01*
X161115641Y-90205880D01*
X161060494Y-90372302D01*
X161060493Y-90372309D01*
X161050000Y-90475013D01*
X152013000Y-90475013D01*
X152013000Y-88692507D01*
X152032685Y-88625468D01*
X152071903Y-88586968D01*
X152143656Y-88542712D01*
X152267712Y-88418656D01*
X152359814Y-88269334D01*
X152414999Y-88102797D01*
X152425500Y-88000009D01*
X152425499Y-86999992D01*
X152420403Y-86950109D01*
X152414999Y-86897203D01*
X152414998Y-86897200D01*
X152377982Y-86785494D01*
X152359814Y-86730666D01*
X152267712Y-86581344D01*
X152143656Y-86457288D01*
X151994334Y-86365186D01*
X151827797Y-86310001D01*
X151827795Y-86310000D01*
X151725010Y-86299500D01*
X151099998Y-86299500D01*
X151099980Y-86299501D01*
X150997203Y-86310000D01*
X150997200Y-86310001D01*
X150830668Y-86365185D01*
X150830666Y-86365185D01*
X150830666Y-86365186D01*
X150830662Y-86365187D01*
X150830661Y-86365189D01*
X150789595Y-86390518D01*
X150781977Y-86392602D01*
X150776011Y-86397772D01*
X150748762Y-86401690D01*
X150722202Y-86408957D01*
X150714668Y-86406592D01*
X150706853Y-86407716D01*
X150681807Y-86396277D01*
X150655539Y-86388033D01*
X150650480Y-86381971D01*
X150643297Y-86378691D01*
X150628410Y-86355527D01*
X150610771Y-86334391D01*
X150608831Y-86325061D01*
X150605523Y-86319913D01*
X150600500Y-86284978D01*
X150600500Y-86117687D01*
X150620185Y-86050648D01*
X150636819Y-86030006D01*
X155687819Y-80979006D01*
X155749142Y-80945521D01*
X155818834Y-80950505D01*
G37*
%TD.AperFunction*%
%TA.AperFunction,Conductor*%
G36*
X162041941Y-54220184D02*
G01*
X162062583Y-54236818D01*
X167690139Y-59864374D01*
X167690149Y-59864385D01*
X167694479Y-59868715D01*
X167694480Y-59868716D01*
X167806284Y-59980520D01*
X167873767Y-60019481D01*
X167943215Y-60059577D01*
X168095943Y-60100500D01*
X173775500Y-60100500D01*
X173842539Y-60120185D01*
X173888294Y-60172989D01*
X173899500Y-60224500D01*
X173899500Y-68842492D01*
X173879815Y-68909531D01*
X173863181Y-68930173D01*
X166612181Y-76181173D01*
X166550858Y-76214658D01*
X166481166Y-76209674D01*
X166425233Y-76167802D01*
X166400816Y-76102338D01*
X166400500Y-76093492D01*
X166400500Y-75637286D01*
X166400499Y-75637272D01*
X166399750Y-75631586D01*
X166385687Y-75524764D01*
X166327698Y-75384767D01*
X166235451Y-75264549D01*
X166115233Y-75172302D01*
X166115229Y-75172300D01*
X166051801Y-75146027D01*
X165975236Y-75114313D01*
X165960698Y-75112399D01*
X165862727Y-75099500D01*
X165862720Y-75099500D01*
X165637280Y-75099500D01*
X165637272Y-75099500D01*
X165550393Y-75110938D01*
X165524764Y-75114313D01*
X165524762Y-75114313D01*
X165516708Y-75115374D01*
X165516316Y-75112399D01*
X165483684Y-75112399D01*
X165483292Y-75115374D01*
X165475237Y-75114313D01*
X165475236Y-75114313D01*
X165446271Y-75110499D01*
X165362727Y-75099500D01*
X165362720Y-75099500D01*
X165137280Y-75099500D01*
X165137272Y-75099500D01*
X165050393Y-75110938D01*
X165024764Y-75114313D01*
X165024762Y-75114313D01*
X165016708Y-75115374D01*
X165016316Y-75112399D01*
X164983684Y-75112399D01*
X164983292Y-75115374D01*
X164975237Y-75114313D01*
X164975236Y-75114313D01*
X164946271Y-75110499D01*
X164862727Y-75099500D01*
X164862720Y-75099500D01*
X164637280Y-75099500D01*
X164637272Y-75099500D01*
X164550393Y-75110938D01*
X164524764Y-75114313D01*
X164524762Y-75114313D01*
X164516708Y-75115374D01*
X164516316Y-75112399D01*
X164483684Y-75112399D01*
X164483292Y-75115374D01*
X164475237Y-75114313D01*
X164475236Y-75114313D01*
X164446271Y-75110499D01*
X164362727Y-75099500D01*
X164362720Y-75099500D01*
X164137280Y-75099500D01*
X164137272Y-75099500D01*
X164050393Y-75110938D01*
X164024764Y-75114313D01*
X164024762Y-75114313D01*
X164016708Y-75115374D01*
X164016316Y-75112399D01*
X163983684Y-75112399D01*
X163983292Y-75115374D01*
X163975237Y-75114313D01*
X163975236Y-75114313D01*
X163946271Y-75110499D01*
X163862727Y-75099500D01*
X163862720Y-75099500D01*
X163637280Y-75099500D01*
X163637272Y-75099500D01*
X163550393Y-75110938D01*
X163524764Y-75114313D01*
X163524762Y-75114313D01*
X163516708Y-75115374D01*
X163516316Y-75112399D01*
X163483684Y-75112399D01*
X163483292Y-75115374D01*
X163475237Y-75114313D01*
X163475236Y-75114313D01*
X163446271Y-75110499D01*
X163362727Y-75099500D01*
X163362720Y-75099500D01*
X163137280Y-75099500D01*
X163137272Y-75099500D01*
X163050393Y-75110938D01*
X163024764Y-75114313D01*
X163024762Y-75114313D01*
X163016708Y-75115374D01*
X163016316Y-75112399D01*
X162983684Y-75112399D01*
X162983292Y-75115374D01*
X162975237Y-75114313D01*
X162975236Y-75114313D01*
X162946271Y-75110499D01*
X162862727Y-75099500D01*
X162862720Y-75099500D01*
X162637280Y-75099500D01*
X162637272Y-75099500D01*
X162550393Y-75110938D01*
X162524764Y-75114313D01*
X162524762Y-75114313D01*
X162516708Y-75115374D01*
X162516316Y-75112399D01*
X162483684Y-75112399D01*
X162483292Y-75115374D01*
X162475237Y-75114313D01*
X162475236Y-75114313D01*
X162446271Y-75110499D01*
X162362727Y-75099500D01*
X162362720Y-75099500D01*
X162137280Y-75099500D01*
X162137272Y-75099500D01*
X162050393Y-75110938D01*
X162024764Y-75114313D01*
X162024762Y-75114313D01*
X162016708Y-75115374D01*
X162016316Y-75112399D01*
X161983684Y-75112399D01*
X161983292Y-75115374D01*
X161975237Y-75114313D01*
X161975236Y-75114313D01*
X161946271Y-75110499D01*
X161862727Y-75099500D01*
X161862720Y-75099500D01*
X161637280Y-75099500D01*
X161637272Y-75099500D01*
X161550393Y-75110938D01*
X161524764Y-75114313D01*
X161524762Y-75114313D01*
X161516708Y-75115374D01*
X161516316Y-75112399D01*
X161483684Y-75112399D01*
X161483292Y-75115374D01*
X161475237Y-75114313D01*
X161475236Y-75114313D01*
X161446271Y-75110499D01*
X161362727Y-75099500D01*
X161362720Y-75099500D01*
X161137280Y-75099500D01*
X161137272Y-75099500D01*
X161035265Y-75112930D01*
X161035263Y-75112930D01*
X161024764Y-75114313D01*
X160884767Y-75172302D01*
X160825486Y-75217789D01*
X160760319Y-75242984D01*
X160691874Y-75228946D01*
X160674515Y-75217790D01*
X160648512Y-75197838D01*
X160607310Y-75141410D01*
X160601120Y-75105894D01*
X160599999Y-75104911D01*
X160517270Y-75115804D01*
X160483527Y-75113593D01*
X160483293Y-75115374D01*
X160475236Y-75114313D01*
X160455451Y-75111708D01*
X160362727Y-75099500D01*
X160362720Y-75099500D01*
X160137280Y-75099500D01*
X160137272Y-75099500D01*
X160024764Y-75114313D01*
X160024763Y-75114313D01*
X159884770Y-75172300D01*
X159884767Y-75172301D01*
X159884767Y-75172302D01*
X159792653Y-75242984D01*
X159764549Y-75264549D01*
X159672300Y-75384770D01*
X159614313Y-75524763D01*
X159614313Y-75524764D01*
X159599500Y-75637272D01*
X159599500Y-76432910D01*
X159579815Y-76499949D01*
X159527011Y-76545704D01*
X159475500Y-76556910D01*
X155045008Y-76556910D01*
X154977969Y-76537225D01*
X154957327Y-76520591D01*
X148318929Y-69882194D01*
X148285444Y-69820871D01*
X148290428Y-69751179D01*
X148332300Y-69695246D01*
X148367602Y-69676808D01*
X148494334Y-69634814D01*
X148643656Y-69542712D01*
X148767712Y-69418656D01*
X148859814Y-69269334D01*
X148914999Y-69102797D01*
X148925500Y-69000009D01*
X148925499Y-68387595D01*
X148945183Y-68320557D01*
X148961813Y-68299920D01*
X152699916Y-64561819D01*
X152761239Y-64528334D01*
X152787597Y-64525500D01*
X158942499Y-64525500D01*
X159009538Y-64545185D01*
X159055293Y-64597989D01*
X159065237Y-64667147D01*
X159064972Y-64668898D01*
X159050000Y-64763428D01*
X159050000Y-64950000D01*
X159850000Y-64950000D01*
X159850000Y-65450000D01*
X159050000Y-65450000D01*
X159050000Y-65636571D01*
X159077085Y-65807584D01*
X159130591Y-65972257D01*
X159209195Y-66126524D01*
X159310967Y-66266602D01*
X159433397Y-66389032D01*
X159573475Y-66490804D01*
X159727744Y-66569408D01*
X159892415Y-66622914D01*
X159892414Y-66622914D01*
X159899999Y-66624115D01*
X159900000Y-66624114D01*
X159900000Y-65716988D01*
X159909940Y-65734205D01*
X159965795Y-65790060D01*
X160034204Y-65829556D01*
X160110504Y-65850000D01*
X160189496Y-65850000D01*
X160265796Y-65829556D01*
X160334205Y-65790060D01*
X160390060Y-65734205D01*
X160400000Y-65716988D01*
X160400000Y-66650000D01*
X160500000Y-66650000D01*
X161000000Y-66650000D01*
X161397828Y-66650000D01*
X161397844Y-66649999D01*
X161457372Y-66643598D01*
X161457383Y-66643595D01*
X161581666Y-66597240D01*
X161651357Y-66592255D01*
X161668334Y-66597240D01*
X161792616Y-66643595D01*
X161792627Y-66643598D01*
X161852155Y-66649999D01*
X161852172Y-66650000D01*
X162400000Y-66650000D01*
X162900000Y-66650000D01*
X163447828Y-66650000D01*
X163447844Y-66649999D01*
X163507372Y-66643598D01*
X163507376Y-66643597D01*
X163606666Y-66606564D01*
X163676358Y-66601580D01*
X163693334Y-66606564D01*
X163792623Y-66643597D01*
X163792627Y-66643598D01*
X163852155Y-66649999D01*
X163852172Y-66650000D01*
X164400000Y-66650000D01*
X164900000Y-66650000D01*
X165447828Y-66650000D01*
X165447844Y-66649999D01*
X165507372Y-66643598D01*
X165507383Y-66643595D01*
X165631666Y-66597240D01*
X165701357Y-66592255D01*
X165718334Y-66597240D01*
X165842616Y-66643595D01*
X165842627Y-66643598D01*
X165902155Y-66649999D01*
X165902172Y-66650000D01*
X166300000Y-66650000D01*
X166300000Y-65450000D01*
X164900000Y-65450000D01*
X164900000Y-66650000D01*
X164400000Y-66650000D01*
X164400000Y-65450000D01*
X162900000Y-65450000D01*
X162900000Y-66650000D01*
X162400000Y-66650000D01*
X162400000Y-65450000D01*
X161000000Y-65450000D01*
X161000000Y-66650000D01*
X160500000Y-66650000D01*
X160500000Y-65450000D01*
X160450000Y-65450000D01*
X160450000Y-64950000D01*
X166850000Y-64950000D01*
X166850000Y-65450000D01*
X166800000Y-65450000D01*
X166800000Y-66650000D01*
X166900000Y-66650000D01*
X166900000Y-65716988D01*
X166909940Y-65734205D01*
X166965795Y-65790060D01*
X167034204Y-65829556D01*
X167110504Y-65850000D01*
X167189496Y-65850000D01*
X167265796Y-65829556D01*
X167334205Y-65790060D01*
X167390060Y-65734205D01*
X167400000Y-65716988D01*
X167400000Y-66624115D01*
X167407584Y-66622914D01*
X167572255Y-66569408D01*
X167726524Y-66490804D01*
X167866602Y-66389032D01*
X167989032Y-66266602D01*
X168090804Y-66126524D01*
X168169408Y-65972257D01*
X168222914Y-65807584D01*
X168250000Y-65636571D01*
X168250000Y-65450000D01*
X167450000Y-65450000D01*
X167450000Y-64950000D01*
X168250000Y-64950000D01*
X168250000Y-64763428D01*
X168222914Y-64592415D01*
X168169408Y-64427742D01*
X168090804Y-64273475D01*
X167989032Y-64133397D01*
X167866602Y-64010967D01*
X167726524Y-63909195D01*
X167572257Y-63830591D01*
X167407589Y-63777087D01*
X167407581Y-63777085D01*
X167400000Y-63775884D01*
X167400000Y-64683011D01*
X167390060Y-64665795D01*
X167334205Y-64609940D01*
X167265796Y-64570444D01*
X167189496Y-64550000D01*
X167110504Y-64550000D01*
X167034204Y-64570444D01*
X166965795Y-64609940D01*
X166909940Y-64665795D01*
X166900000Y-64683011D01*
X166900000Y-63782226D01*
X166822788Y-63726625D01*
X166803263Y-63701523D01*
X166782456Y-63677511D01*
X166781973Y-63674153D01*
X166779890Y-63671475D01*
X166777036Y-63639817D01*
X166772512Y-63608353D01*
X166773921Y-63605266D01*
X166773617Y-63601888D01*
X166788329Y-63573717D01*
X166801537Y-63544797D01*
X166805179Y-63541453D01*
X166805962Y-63539956D01*
X166808205Y-63538676D01*
X166822225Y-63525808D01*
X166822228Y-63525780D01*
X166218172Y-62921725D01*
X166314044Y-62896037D01*
X166410956Y-62840084D01*
X166490084Y-62760956D01*
X166546037Y-62664044D01*
X166571725Y-62568173D01*
X167175780Y-63172228D01*
X167175780Y-63172227D01*
X167197713Y-63142040D01*
X167285252Y-62970237D01*
X167285253Y-62970234D01*
X167344835Y-62786856D01*
X167375000Y-62596409D01*
X167375000Y-62403590D01*
X167344835Y-62213143D01*
X167285253Y-62029765D01*
X167285252Y-62029762D01*
X167197712Y-61857957D01*
X167175781Y-61827771D01*
X167175780Y-61827771D01*
X166571725Y-62431826D01*
X166546037Y-62335956D01*
X166490084Y-62239044D01*
X166410956Y-62159916D01*
X166314044Y-62103963D01*
X166218171Y-62078274D01*
X166822227Y-61474218D01*
X166822227Y-61474217D01*
X166792043Y-61452288D01*
X166620237Y-61364747D01*
X166620234Y-61364746D01*
X166436856Y-61305164D01*
X166246409Y-61275000D01*
X166053591Y-61275000D01*
X165863143Y-61305164D01*
X165679765Y-61364746D01*
X165679756Y-61364750D01*
X165563956Y-61423753D01*
X165495287Y-61436649D01*
X165433352Y-61412535D01*
X165392093Y-61381649D01*
X165392086Y-61381645D01*
X165257379Y-61331403D01*
X165257372Y-61331401D01*
X165197844Y-61325000D01*
X165150000Y-61325000D01*
X165150000Y-61485565D01*
X165143291Y-61508412D01*
X165140933Y-61532109D01*
X165133627Y-61541322D01*
X165130315Y-61552604D01*
X165112319Y-61568196D01*
X165097524Y-61586858D01*
X165086396Y-61590659D01*
X165077511Y-61598359D01*
X165053941Y-61601747D01*
X165031407Y-61609447D01*
X165019991Y-61606629D01*
X165008353Y-61608303D01*
X164986689Y-61598409D01*
X164963573Y-61592704D01*
X164952406Y-61582752D01*
X164944797Y-61579278D01*
X164935917Y-61570777D01*
X164931011Y-61565590D01*
X164857546Y-61467454D01*
X164791203Y-61417789D01*
X164783917Y-61410087D01*
X164772656Y-61388029D01*
X164757818Y-61368207D01*
X164755238Y-61353911D01*
X164752148Y-61347857D01*
X164752858Y-61340718D01*
X164750027Y-61325027D01*
X164750000Y-61325000D01*
X164702166Y-61325000D01*
X164640595Y-61331619D01*
X164614088Y-61331619D01*
X164602279Y-61330349D01*
X164547873Y-61324500D01*
X164547867Y-61324500D01*
X164241496Y-61324500D01*
X164174457Y-61304815D01*
X164151232Y-61285520D01*
X164141329Y-61275006D01*
X164130520Y-61256284D01*
X164018716Y-61144480D01*
X164018713Y-61144478D01*
X161499319Y-58625084D01*
X161465834Y-58563761D01*
X161463000Y-58537403D01*
X161463000Y-54324499D01*
X161482685Y-54257460D01*
X161535489Y-54211705D01*
X161587000Y-54200499D01*
X161974902Y-54200499D01*
X162041941Y-54220184D01*
G37*
%TD.AperFunction*%
%TA.AperFunction,Conductor*%
G36*
X159091942Y-59620185D02*
G01*
X159112584Y-59636819D01*
X160665570Y-61189805D01*
X160699055Y-61251128D01*
X160694071Y-61320820D01*
X160652199Y-61376753D01*
X160634185Y-61387970D01*
X160507960Y-61452285D01*
X160507950Y-61452292D01*
X160477771Y-61474216D01*
X160477771Y-61474219D01*
X161081827Y-62078274D01*
X160985956Y-62103963D01*
X160889044Y-62159916D01*
X160809916Y-62239044D01*
X160753963Y-62335956D01*
X160728274Y-62431827D01*
X160124219Y-61827771D01*
X160124216Y-61827771D01*
X160102292Y-61857950D01*
X160102288Y-61857955D01*
X160014747Y-62029762D01*
X160014746Y-62029765D01*
X159955164Y-62213143D01*
X159925000Y-62403590D01*
X159925000Y-62596409D01*
X159955164Y-62786856D01*
X160014746Y-62970234D01*
X160014748Y-62970237D01*
X160103389Y-63144205D01*
X160116285Y-63212874D01*
X160090009Y-63277615D01*
X160032902Y-63317872D01*
X159992904Y-63324500D01*
X152574169Y-63324500D01*
X152574153Y-63324499D01*
X152566557Y-63324499D01*
X152408443Y-63324499D01*
X152255715Y-63365423D01*
X152255714Y-63365423D01*
X152206712Y-63393715D01*
X152206711Y-63393715D01*
X152118790Y-63444475D01*
X152118782Y-63444481D01*
X152006978Y-63556286D01*
X151322548Y-64240715D01*
X151261225Y-64274200D01*
X151191533Y-64269216D01*
X151135600Y-64227344D01*
X151111183Y-64161880D01*
X151115091Y-64120948D01*
X151150500Y-63988801D01*
X151150500Y-61709797D01*
X151170185Y-61642758D01*
X151209403Y-61604258D01*
X151268656Y-61567712D01*
X151392712Y-61443656D01*
X151394752Y-61440347D01*
X151396745Y-61438555D01*
X151397193Y-61437989D01*
X151397289Y-61438065D01*
X151446694Y-61393623D01*
X151515656Y-61382395D01*
X151579740Y-61410234D01*
X151605829Y-61440339D01*
X151607681Y-61443341D01*
X151607683Y-61443344D01*
X151731654Y-61567315D01*
X151880875Y-61659356D01*
X151880880Y-61659358D01*
X152047302Y-61714505D01*
X152047309Y-61714506D01*
X152150019Y-61724999D01*
X152700000Y-61724999D01*
X152749972Y-61724999D01*
X152749986Y-61724998D01*
X152852697Y-61714505D01*
X153019119Y-61659358D01*
X153019124Y-61659356D01*
X153168345Y-61567315D01*
X153292315Y-61443345D01*
X153384356Y-61294124D01*
X153384358Y-61294119D01*
X153439505Y-61127697D01*
X153439506Y-61127690D01*
X153449999Y-61024986D01*
X153450000Y-61024973D01*
X153450000Y-60750000D01*
X152700000Y-60750000D01*
X152700000Y-61724999D01*
X152150019Y-61724999D01*
X152199999Y-61724998D01*
X152200000Y-61724998D01*
X152200000Y-60624000D01*
X152219685Y-60556961D01*
X152272489Y-60511206D01*
X152324000Y-60500000D01*
X152450000Y-60500000D01*
X152450000Y-60374000D01*
X152469685Y-60306961D01*
X152522489Y-60261206D01*
X152574000Y-60250000D01*
X153449999Y-60250000D01*
X153449999Y-59975028D01*
X153449998Y-59975013D01*
X153439505Y-59872302D01*
X153403453Y-59763504D01*
X153401051Y-59693676D01*
X153436783Y-59633634D01*
X153499303Y-59602441D01*
X153521159Y-59600500D01*
X159024903Y-59600500D01*
X159091942Y-59620185D01*
G37*
%TD.AperFunction*%
%TA.AperFunction,Conductor*%
G36*
X272966717Y-34087503D02*
G01*
X272998020Y-34149968D01*
X273000000Y-34172040D01*
X273000000Y-154879634D01*
X272980315Y-154946673D01*
X272927511Y-154992428D01*
X272879687Y-155003579D01*
X54627170Y-161496216D01*
X54559575Y-161478534D01*
X54512270Y-161427114D01*
X54499484Y-161372776D01*
X54397570Y-136199986D01*
X135245001Y-136199986D01*
X135255494Y-136302697D01*
X135310641Y-136469119D01*
X135310643Y-136469124D01*
X135402684Y-136618345D01*
X135526654Y-136742315D01*
X135675875Y-136834356D01*
X135675880Y-136834358D01*
X135842302Y-136889505D01*
X135842309Y-136889506D01*
X135945019Y-136899999D01*
X136269999Y-136899999D01*
X136770000Y-136899999D01*
X137094972Y-136899999D01*
X137094986Y-136899998D01*
X137197697Y-136889505D01*
X137364119Y-136834358D01*
X137364124Y-136834356D01*
X137513345Y-136742315D01*
X137637315Y-136618345D01*
X137729356Y-136469124D01*
X137729358Y-136469119D01*
X137784505Y-136302697D01*
X137784506Y-136302690D01*
X137794999Y-136199986D01*
X143205001Y-136199986D01*
X143215494Y-136302697D01*
X143270641Y-136469119D01*
X143270643Y-136469124D01*
X143362684Y-136618345D01*
X143486654Y-136742315D01*
X143635875Y-136834356D01*
X143635880Y-136834358D01*
X143802302Y-136889505D01*
X143802309Y-136889506D01*
X143905019Y-136899999D01*
X144229999Y-136899999D01*
X144730000Y-136899999D01*
X145054972Y-136899999D01*
X145054986Y-136899998D01*
X145157697Y-136889505D01*
X145324119Y-136834358D01*
X145324124Y-136834356D01*
X145473345Y-136742315D01*
X145597315Y-136618345D01*
X145689356Y-136469124D01*
X145689358Y-136469119D01*
X145744505Y-136302697D01*
X145744506Y-136302690D01*
X145754999Y-136199986D01*
X145755000Y-136199973D01*
X145755000Y-136000000D01*
X144730000Y-136000000D01*
X144730000Y-136899999D01*
X144229999Y-136899999D01*
X144230000Y-136899998D01*
X144230000Y-136000000D01*
X143205001Y-136000000D01*
X143205001Y-136199986D01*
X137794999Y-136199986D01*
X137795000Y-136199973D01*
X137795000Y-136000000D01*
X136770000Y-136000000D01*
X136770000Y-136899999D01*
X136269999Y-136899999D01*
X136270000Y-136899998D01*
X136270000Y-136000000D01*
X135245001Y-136000000D01*
X135245001Y-136199986D01*
X54397570Y-136199986D01*
X54393926Y-135300013D01*
X135245000Y-135300013D01*
X135245000Y-135500000D01*
X136270000Y-135500000D01*
X136770000Y-135500000D01*
X137794999Y-135500000D01*
X137794999Y-135300029D01*
X137794998Y-135300013D01*
X143205000Y-135300013D01*
X143205000Y-135500000D01*
X144230000Y-135500000D01*
X144730000Y-135500000D01*
X145754999Y-135500000D01*
X145754999Y-135300028D01*
X145754998Y-135300013D01*
X145744505Y-135197302D01*
X145689358Y-135030880D01*
X145689356Y-135030875D01*
X145597315Y-134881654D01*
X145473345Y-134757684D01*
X145324124Y-134665643D01*
X145324119Y-134665641D01*
X145157697Y-134610494D01*
X145157690Y-134610493D01*
X145054986Y-134600000D01*
X144730000Y-134600000D01*
X144730000Y-135500000D01*
X144230000Y-135500000D01*
X144230000Y-134600000D01*
X143905028Y-134600000D01*
X143905012Y-134600001D01*
X143802302Y-134610494D01*
X143635880Y-134665641D01*
X143635875Y-134665643D01*
X143486654Y-134757684D01*
X143362684Y-134881654D01*
X143270643Y-135030875D01*
X143270641Y-135030880D01*
X143215494Y-135197302D01*
X143215493Y-135197309D01*
X143205000Y-135300013D01*
X137794998Y-135300013D01*
X137794998Y-135300012D01*
X137784505Y-135197302D01*
X137729358Y-135030880D01*
X137729356Y-135030875D01*
X137637315Y-134881654D01*
X137513345Y-134757684D01*
X137364124Y-134665643D01*
X137364119Y-134665641D01*
X137197697Y-134610494D01*
X137197690Y-134610493D01*
X137094986Y-134600000D01*
X136770000Y-134600000D01*
X136770000Y-135500000D01*
X136270000Y-135500000D01*
X136270000Y-134600000D01*
X135945028Y-134600000D01*
X135945012Y-134600001D01*
X135842302Y-134610494D01*
X135675880Y-134665641D01*
X135675875Y-134665643D01*
X135526654Y-134757684D01*
X135402684Y-134881654D01*
X135310643Y-135030875D01*
X135310641Y-135030880D01*
X135255494Y-135197302D01*
X135255493Y-135197309D01*
X135245000Y-135300013D01*
X54393926Y-135300013D01*
X54226619Y-93974983D01*
X127999500Y-93974983D01*
X127999500Y-95025001D01*
X127999501Y-95025019D01*
X128010000Y-95127796D01*
X128010001Y-95127799D01*
X128065115Y-95294119D01*
X128065186Y-95294334D01*
X128157288Y-95443656D01*
X128281344Y-95567712D01*
X128430666Y-95659814D01*
X128597203Y-95714999D01*
X128699991Y-95725500D01*
X129075500Y-95725499D01*
X129142539Y-95745183D01*
X129188294Y-95797987D01*
X129199500Y-95849499D01*
X129199500Y-100150500D01*
X129179815Y-100217539D01*
X129127011Y-100263294D01*
X129075500Y-100274500D01*
X128699998Y-100274500D01*
X128699980Y-100274501D01*
X128597203Y-100285000D01*
X128597200Y-100285001D01*
X128430668Y-100340185D01*
X128430663Y-100340187D01*
X128281342Y-100432289D01*
X128157289Y-100556342D01*
X128065187Y-100705663D01*
X128065185Y-100705668D01*
X128065115Y-100705880D01*
X128010001Y-100872203D01*
X128010001Y-100872204D01*
X128010000Y-100872204D01*
X127999500Y-100974983D01*
X127999500Y-102025001D01*
X127999501Y-102025019D01*
X128010000Y-102127796D01*
X128010001Y-102127799D01*
X128045500Y-102234925D01*
X128065186Y-102294334D01*
X128157288Y-102443656D01*
X128281344Y-102567712D01*
X128430666Y-102659814D01*
X128597203Y-102714999D01*
X128699991Y-102725500D01*
X129075500Y-102725499D01*
X129142539Y-102745183D01*
X129188294Y-102797987D01*
X129199500Y-102849499D01*
X129199500Y-107150500D01*
X129179815Y-107217539D01*
X129127011Y-107263294D01*
X129075500Y-107274500D01*
X128699998Y-107274500D01*
X128699980Y-107274501D01*
X128597203Y-107285000D01*
X128597200Y-107285001D01*
X128430668Y-107340185D01*
X128430663Y-107340187D01*
X128281342Y-107432289D01*
X128157289Y-107556342D01*
X128065187Y-107705663D01*
X128065185Y-107705668D01*
X128065115Y-107705880D01*
X128010001Y-107872203D01*
X128010001Y-107872204D01*
X128010000Y-107872204D01*
X127999500Y-107974983D01*
X127999500Y-109025001D01*
X127999501Y-109025019D01*
X128010000Y-109127796D01*
X128010001Y-109127799D01*
X128065115Y-109294119D01*
X128065186Y-109294334D01*
X128157288Y-109443656D01*
X128281344Y-109567712D01*
X128430666Y-109659814D01*
X128597203Y-109714999D01*
X128699991Y-109725500D01*
X129300008Y-109725499D01*
X129300016Y-109725498D01*
X129300019Y-109725498D01*
X129356302Y-109719748D01*
X129402797Y-109714999D01*
X129569334Y-109659814D01*
X129718656Y-109567712D01*
X129842712Y-109443656D01*
X129844752Y-109440347D01*
X129846745Y-109438555D01*
X129847193Y-109437989D01*
X129847289Y-109438065D01*
X129896694Y-109393623D01*
X129965656Y-109382395D01*
X130029740Y-109410234D01*
X130055829Y-109440339D01*
X130057681Y-109443341D01*
X130057683Y-109443344D01*
X130181654Y-109567315D01*
X130330875Y-109659356D01*
X130330880Y-109659358D01*
X130497302Y-109714505D01*
X130497309Y-109714506D01*
X130600019Y-109724999D01*
X131150000Y-109724999D01*
X131199972Y-109724999D01*
X131199986Y-109724998D01*
X131302697Y-109714505D01*
X131469119Y-109659358D01*
X131469124Y-109659356D01*
X131618345Y-109567315D01*
X131742315Y-109443345D01*
X131834356Y-109294124D01*
X131834358Y-109294119D01*
X131889505Y-109127697D01*
X131889506Y-109127690D01*
X131899999Y-109024986D01*
X131900000Y-109024973D01*
X131900000Y-108750000D01*
X131150000Y-108750000D01*
X131150000Y-109724999D01*
X130600019Y-109724999D01*
X130649999Y-109724998D01*
X130650000Y-109724998D01*
X130650000Y-108624000D01*
X130669685Y-108556961D01*
X130722489Y-108511206D01*
X130774000Y-108500000D01*
X130900000Y-108500000D01*
X130900000Y-108374000D01*
X130919685Y-108306961D01*
X130972489Y-108261206D01*
X131024000Y-108250000D01*
X131899999Y-108250000D01*
X131899999Y-107975028D01*
X131899998Y-107975013D01*
X131889505Y-107872302D01*
X131834358Y-107705880D01*
X131834356Y-107705875D01*
X131742315Y-107556654D01*
X131618345Y-107432684D01*
X131469124Y-107340643D01*
X131469119Y-107340641D01*
X131314042Y-107289254D01*
X131256597Y-107249481D01*
X131229774Y-107184966D01*
X131242089Y-107116190D01*
X131265359Y-107083874D01*
X134258506Y-104090728D01*
X134258511Y-104090724D01*
X134268714Y-104080520D01*
X134268716Y-104080520D01*
X134380520Y-103968716D01*
X134459577Y-103831784D01*
X134500500Y-103679057D01*
X134500500Y-93149097D01*
X134520185Y-93082058D01*
X134572989Y-93036303D01*
X134642147Y-93026359D01*
X134705703Y-93055384D01*
X134712181Y-93061416D01*
X135463181Y-93812416D01*
X135496666Y-93873739D01*
X135499500Y-93900097D01*
X135499500Y-94525001D01*
X135499501Y-94525019D01*
X135510000Y-94627796D01*
X135510001Y-94627799D01*
X135550495Y-94750000D01*
X135565186Y-94794334D01*
X135657288Y-94943656D01*
X135781344Y-95067712D01*
X135930666Y-95159814D01*
X136097203Y-95214999D01*
X136199991Y-95225500D01*
X136800008Y-95225499D01*
X136800016Y-95225498D01*
X136800019Y-95225498D01*
X136856302Y-95219748D01*
X136902797Y-95214999D01*
X137069334Y-95159814D01*
X137218656Y-95067712D01*
X137342712Y-94943656D01*
X137344752Y-94940347D01*
X137346745Y-94938555D01*
X137347193Y-94937989D01*
X137347289Y-94938065D01*
X137396694Y-94893623D01*
X137465656Y-94882395D01*
X137529740Y-94910234D01*
X137555829Y-94940339D01*
X137557681Y-94943341D01*
X137557683Y-94943344D01*
X137681654Y-95067315D01*
X137830875Y-95159356D01*
X137830880Y-95159358D01*
X137997302Y-95214505D01*
X137997309Y-95214506D01*
X138100019Y-95224999D01*
X138650000Y-95224999D01*
X138699972Y-95224999D01*
X138699986Y-95224998D01*
X138802697Y-95214505D01*
X138969119Y-95159358D01*
X138969124Y-95159356D01*
X139118345Y-95067315D01*
X139242315Y-94943345D01*
X139334356Y-94794124D01*
X139334358Y-94794119D01*
X139389505Y-94627697D01*
X139389506Y-94627690D01*
X139399999Y-94524986D01*
X139400000Y-94524973D01*
X139400000Y-94250000D01*
X138650000Y-94250000D01*
X138650000Y-95224999D01*
X138100019Y-95224999D01*
X138149999Y-95224998D01*
X138150000Y-95224998D01*
X138150000Y-93750000D01*
X138650000Y-93750000D01*
X139399999Y-93750000D01*
X139399999Y-93475028D01*
X139399998Y-93475013D01*
X139389505Y-93372302D01*
X139334358Y-93205880D01*
X139334356Y-93205875D01*
X139242315Y-93056654D01*
X139118345Y-92932684D01*
X138969124Y-92840643D01*
X138969119Y-92840641D01*
X138802697Y-92785494D01*
X138802690Y-92785493D01*
X138699986Y-92775000D01*
X138650000Y-92775000D01*
X138650000Y-93750000D01*
X138150000Y-93750000D01*
X138150000Y-92775000D01*
X138149999Y-92774999D01*
X138100029Y-92775000D01*
X138100011Y-92775001D01*
X137997302Y-92785494D01*
X137830880Y-92840641D01*
X137830875Y-92840643D01*
X137681654Y-92932684D01*
X137557683Y-93056655D01*
X137557679Y-93056660D01*
X137555826Y-93059665D01*
X137554018Y-93061290D01*
X137553202Y-93062323D01*
X137553025Y-93062183D01*
X137503874Y-93106385D01*
X137434911Y-93117601D01*
X137370831Y-93089752D01*
X137344753Y-93059653D01*
X137344737Y-93059628D01*
X137342712Y-93056344D01*
X137218656Y-92932288D01*
X137125888Y-92875069D01*
X137069336Y-92840187D01*
X137069331Y-92840185D01*
X137067862Y-92839698D01*
X136902797Y-92785001D01*
X136902795Y-92785000D01*
X136800010Y-92774500D01*
X136199999Y-92774500D01*
X136199983Y-92774501D01*
X136189413Y-92775581D01*
X136120721Y-92762807D01*
X136089138Y-92739903D01*
X135111819Y-91762584D01*
X135078334Y-91701261D01*
X135075500Y-91674903D01*
X135075500Y-87674097D01*
X135095185Y-87607058D01*
X135147989Y-87561303D01*
X135217147Y-87551359D01*
X135280703Y-87580384D01*
X135287181Y-87586416D01*
X135513181Y-87812416D01*
X135546666Y-87873739D01*
X135549500Y-87900097D01*
X135549500Y-88525001D01*
X135549501Y-88525019D01*
X135560000Y-88627796D01*
X135560001Y-88627799D01*
X135609190Y-88776239D01*
X135615186Y-88794334D01*
X135707288Y-88943656D01*
X135831344Y-89067712D01*
X135980666Y-89159814D01*
X136147203Y-89214999D01*
X136249991Y-89225500D01*
X136850008Y-89225499D01*
X136850016Y-89225498D01*
X136850019Y-89225498D01*
X136906302Y-89219748D01*
X136952797Y-89214999D01*
X137119334Y-89159814D01*
X137268656Y-89067712D01*
X137392712Y-88943656D01*
X137394752Y-88940347D01*
X137396745Y-88938555D01*
X137397193Y-88937989D01*
X137397289Y-88938065D01*
X137446694Y-88893623D01*
X137515656Y-88882395D01*
X137579740Y-88910234D01*
X137605829Y-88940339D01*
X137607681Y-88943341D01*
X137607683Y-88943344D01*
X137731654Y-89067315D01*
X137880875Y-89159356D01*
X137880880Y-89159358D01*
X138047302Y-89214505D01*
X138047309Y-89214506D01*
X138150019Y-89224999D01*
X138700000Y-89224999D01*
X138749972Y-89224999D01*
X138749986Y-89224998D01*
X138852697Y-89214505D01*
X139019119Y-89159358D01*
X139019124Y-89159356D01*
X139168345Y-89067315D01*
X139292315Y-88943345D01*
X139384356Y-88794124D01*
X139384358Y-88794119D01*
X139439505Y-88627697D01*
X139439506Y-88627690D01*
X139449999Y-88524986D01*
X139450000Y-88524973D01*
X139450000Y-88250000D01*
X138700000Y-88250000D01*
X138700000Y-89224999D01*
X138150019Y-89224999D01*
X138199999Y-89224998D01*
X138200000Y-89224998D01*
X138200000Y-87750000D01*
X138700000Y-87750000D01*
X139449999Y-87750000D01*
X139449999Y-87475028D01*
X139449998Y-87475013D01*
X139439505Y-87372302D01*
X139384358Y-87205880D01*
X139384356Y-87205875D01*
X139292315Y-87056654D01*
X139168345Y-86932684D01*
X139019124Y-86840643D01*
X139019119Y-86840641D01*
X138852697Y-86785494D01*
X138852690Y-86785493D01*
X138749986Y-86775000D01*
X138700000Y-86775000D01*
X138700000Y-87750000D01*
X138200000Y-87750000D01*
X138200000Y-86775000D01*
X138199999Y-86774999D01*
X138150029Y-86775000D01*
X138150011Y-86775001D01*
X138047302Y-86785494D01*
X137880880Y-86840641D01*
X137880875Y-86840643D01*
X137731654Y-86932684D01*
X137607683Y-87056655D01*
X137607679Y-87056660D01*
X137605826Y-87059665D01*
X137604018Y-87061290D01*
X137603202Y-87062323D01*
X137603025Y-87062183D01*
X137553874Y-87106385D01*
X137484911Y-87117601D01*
X137420831Y-87089752D01*
X137394753Y-87059653D01*
X137394737Y-87059628D01*
X137392712Y-87056344D01*
X137268656Y-86932288D01*
X137119334Y-86840186D01*
X136952797Y-86785001D01*
X136952795Y-86785000D01*
X136850010Y-86774500D01*
X136249999Y-86774500D01*
X136249983Y-86774501D01*
X136239413Y-86775581D01*
X136170721Y-86762807D01*
X136139138Y-86739903D01*
X135111819Y-85712584D01*
X135078334Y-85651261D01*
X135075500Y-85624903D01*
X135075500Y-81724097D01*
X135081738Y-81702851D01*
X135083318Y-81680763D01*
X135091390Y-81669979D01*
X135095185Y-81657058D01*
X135111918Y-81642558D01*
X135125190Y-81624830D01*
X135137810Y-81620122D01*
X135147989Y-81611303D01*
X135169906Y-81608151D01*
X135190654Y-81600413D01*
X135203814Y-81603275D01*
X135217147Y-81601359D01*
X135237290Y-81610558D01*
X135258927Y-81615265D01*
X135276652Y-81628533D01*
X135280703Y-81630384D01*
X135287181Y-81636416D01*
X135463181Y-81812416D01*
X135496666Y-81873739D01*
X135499500Y-81900097D01*
X135499500Y-82525001D01*
X135499501Y-82525019D01*
X135510000Y-82627796D01*
X135510001Y-82627799D01*
X135513143Y-82637280D01*
X135565186Y-82794334D01*
X135657288Y-82943656D01*
X135781344Y-83067712D01*
X135930666Y-83159814D01*
X136097203Y-83214999D01*
X136199991Y-83225500D01*
X136800008Y-83225499D01*
X136800016Y-83225498D01*
X136800019Y-83225498D01*
X136856302Y-83219748D01*
X136902797Y-83214999D01*
X137069334Y-83159814D01*
X137218656Y-83067712D01*
X137342712Y-82943656D01*
X137344752Y-82940347D01*
X137346745Y-82938555D01*
X137347193Y-82937989D01*
X137347289Y-82938065D01*
X137396694Y-82893623D01*
X137465656Y-82882395D01*
X137529740Y-82910234D01*
X137555829Y-82940339D01*
X137557681Y-82943341D01*
X137557683Y-82943344D01*
X137681654Y-83067315D01*
X137830875Y-83159356D01*
X137830880Y-83159358D01*
X137997302Y-83214505D01*
X137997309Y-83214506D01*
X138100019Y-83224999D01*
X138650000Y-83224999D01*
X138699972Y-83224999D01*
X138699986Y-83224998D01*
X138802697Y-83214505D01*
X138969119Y-83159358D01*
X138969124Y-83159356D01*
X139118345Y-83067315D01*
X139242315Y-82943345D01*
X139334356Y-82794124D01*
X139334358Y-82794119D01*
X139389505Y-82627697D01*
X139389506Y-82627690D01*
X139399999Y-82524986D01*
X139400000Y-82524973D01*
X139400000Y-82250000D01*
X138650000Y-82250000D01*
X138650000Y-83224999D01*
X138100019Y-83224999D01*
X138149999Y-83224998D01*
X138150000Y-83224998D01*
X138150000Y-81750000D01*
X138650000Y-81750000D01*
X139399999Y-81750000D01*
X139399999Y-81475028D01*
X139399998Y-81475013D01*
X139389505Y-81372302D01*
X139334358Y-81205880D01*
X139334356Y-81205875D01*
X139242315Y-81056654D01*
X139118345Y-80932684D01*
X138969124Y-80840643D01*
X138969119Y-80840641D01*
X138802697Y-80785494D01*
X138802690Y-80785493D01*
X138699986Y-80775000D01*
X138650000Y-80775000D01*
X138650000Y-81750000D01*
X138150000Y-81750000D01*
X138150000Y-80775000D01*
X138149999Y-80774999D01*
X138100029Y-80775000D01*
X138100011Y-80775001D01*
X137997302Y-80785494D01*
X137830880Y-80840641D01*
X137830875Y-80840643D01*
X137681654Y-80932684D01*
X137557683Y-81056655D01*
X137557679Y-81056660D01*
X137555826Y-81059665D01*
X137554018Y-81061290D01*
X137553202Y-81062323D01*
X137553025Y-81062183D01*
X137503874Y-81106385D01*
X137434911Y-81117601D01*
X137370831Y-81089752D01*
X137344753Y-81059653D01*
X137343635Y-81057841D01*
X137342712Y-81056344D01*
X137218656Y-80932288D01*
X137069334Y-80840186D01*
X136902797Y-80785001D01*
X136902795Y-80785000D01*
X136800010Y-80774500D01*
X136199999Y-80774500D01*
X136199983Y-80774501D01*
X136189413Y-80775581D01*
X136120721Y-80762807D01*
X136089138Y-80739903D01*
X135111819Y-79762584D01*
X135078334Y-79701261D01*
X135075500Y-79674903D01*
X135075500Y-74136597D01*
X135095185Y-74069558D01*
X135147989Y-74023803D01*
X135217147Y-74013859D01*
X135280703Y-74042884D01*
X135287181Y-74048916D01*
X148538181Y-87299916D01*
X148552884Y-87326843D01*
X148569477Y-87352662D01*
X148570368Y-87358862D01*
X148571666Y-87361239D01*
X148574500Y-87387597D01*
X148574500Y-87515157D01*
X148554815Y-87582196D01*
X148538181Y-87602838D01*
X135076286Y-101064734D01*
X134964481Y-101176538D01*
X134964480Y-101176540D01*
X134922069Y-101250000D01*
X134916540Y-101259576D01*
X134916538Y-101259578D01*
X134885425Y-101313465D01*
X134885424Y-101313466D01*
X134869544Y-101372728D01*
X134844499Y-101466199D01*
X134844499Y-101466201D01*
X134844499Y-101634302D01*
X134844500Y-101634315D01*
X134844500Y-131798074D01*
X134844499Y-131798092D01*
X134844499Y-131963798D01*
X134844498Y-131963798D01*
X134885423Y-132116529D01*
X134914358Y-132166644D01*
X134914359Y-132166648D01*
X134914360Y-132166648D01*
X134964479Y-132253458D01*
X134964481Y-132253461D01*
X135083349Y-132372329D01*
X135083355Y-132372334D01*
X135275395Y-132564374D01*
X135275405Y-132564385D01*
X135279735Y-132568715D01*
X135279736Y-132568716D01*
X135391540Y-132680520D01*
X135478351Y-132730639D01*
X135478353Y-132730641D01*
X135528469Y-132759576D01*
X135528471Y-132759577D01*
X135681198Y-132800500D01*
X135681199Y-132800500D01*
X140273075Y-132800500D01*
X140273091Y-132800501D01*
X140280687Y-132800501D01*
X140438798Y-132800501D01*
X140438801Y-132800501D01*
X140591529Y-132759577D01*
X140641648Y-132730639D01*
X140728460Y-132680520D01*
X140840264Y-132568716D01*
X140840264Y-132568714D01*
X140850472Y-132558507D01*
X140850474Y-132558504D01*
X143150811Y-130258166D01*
X143212132Y-130224683D01*
X143281824Y-130229667D01*
X143337757Y-130271539D01*
X143362174Y-130337003D01*
X143347322Y-130405276D01*
X143344029Y-130410945D01*
X143270189Y-130530659D01*
X143270186Y-130530666D01*
X143215001Y-130697203D01*
X143215001Y-130697204D01*
X143215000Y-130697204D01*
X143204500Y-130799983D01*
X143204500Y-131700001D01*
X143204501Y-131700019D01*
X143215000Y-131802796D01*
X143215001Y-131802799D01*
X143268352Y-131963798D01*
X143270186Y-131969334D01*
X143362288Y-132118656D01*
X143486344Y-132242712D01*
X143635666Y-132334814D01*
X143802203Y-132389999D01*
X143904991Y-132400500D01*
X145055008Y-132400499D01*
X145157797Y-132389999D01*
X145324334Y-132334814D01*
X145473656Y-132242712D01*
X145597712Y-132118656D01*
X145689814Y-131969334D01*
X145744999Y-131802797D01*
X145755500Y-131700009D01*
X145755499Y-130799992D01*
X145744999Y-130697203D01*
X145689814Y-130530666D01*
X145597712Y-130381344D01*
X145473656Y-130257288D01*
X145324334Y-130165186D01*
X145157797Y-130110001D01*
X145157795Y-130110000D01*
X145055010Y-130099500D01*
X143904998Y-130099500D01*
X143904981Y-130099501D01*
X143802203Y-130110000D01*
X143802200Y-130110001D01*
X143635668Y-130165185D01*
X143635659Y-130165189D01*
X143515945Y-130239029D01*
X143448552Y-130257469D01*
X143381889Y-130236546D01*
X143337120Y-130182904D01*
X143328459Y-130113573D01*
X143358656Y-130050566D01*
X143363149Y-130045828D01*
X156718713Y-116690265D01*
X156718716Y-116690264D01*
X156730372Y-116678607D01*
X156760043Y-116662408D01*
X156791683Y-116645129D01*
X156791689Y-116645129D01*
X156791694Y-116645127D01*
X156824056Y-116647442D01*
X156861375Y-116650110D01*
X156861382Y-116650113D01*
X156861386Y-116650114D01*
X156861391Y-116650117D01*
X156874276Y-116656419D01*
X156874330Y-116656304D01*
X156880880Y-116659358D01*
X157047302Y-116714505D01*
X157047309Y-116714506D01*
X157150019Y-116724999D01*
X157700000Y-116724999D01*
X157749972Y-116724999D01*
X157749986Y-116724998D01*
X157852697Y-116714505D01*
X158019119Y-116659358D01*
X158019124Y-116659356D01*
X158168345Y-116567315D01*
X158292315Y-116443345D01*
X158384356Y-116294124D01*
X158384358Y-116294119D01*
X158439505Y-116127697D01*
X158439506Y-116127690D01*
X158449999Y-116024986D01*
X158450000Y-116024973D01*
X158450000Y-115750000D01*
X157700000Y-115750000D01*
X157700000Y-116724999D01*
X157150019Y-116724999D01*
X157199999Y-116724998D01*
X157200000Y-116724998D01*
X157200000Y-115750000D01*
X157074500Y-115750000D01*
X157007461Y-115730315D01*
X156961706Y-115677511D01*
X156950500Y-115626000D01*
X156950500Y-115374000D01*
X156970185Y-115306961D01*
X157022989Y-115261206D01*
X157074500Y-115250000D01*
X157200000Y-115250000D01*
X157700000Y-115250000D01*
X158449999Y-115250000D01*
X158449999Y-114975028D01*
X158449998Y-114975013D01*
X158439505Y-114872302D01*
X158384358Y-114705880D01*
X158384356Y-114705875D01*
X158292315Y-114556654D01*
X158168345Y-114432684D01*
X158019124Y-114340643D01*
X158019119Y-114340641D01*
X157852697Y-114285494D01*
X157852690Y-114285493D01*
X157749986Y-114275000D01*
X157700000Y-114275000D01*
X157700000Y-115250000D01*
X157200000Y-115250000D01*
X157200000Y-114275000D01*
X157199999Y-114274999D01*
X157150029Y-114275000D01*
X157150009Y-114275001D01*
X157087101Y-114281428D01*
X157018408Y-114268658D01*
X156967524Y-114220777D01*
X156950500Y-114158070D01*
X156950500Y-111055097D01*
X156970185Y-110988058D01*
X156986819Y-110967416D01*
X158660116Y-109294119D01*
X160437821Y-107516413D01*
X160499142Y-107482930D01*
X160568834Y-107487914D01*
X160624767Y-107529786D01*
X160649184Y-107595250D01*
X160649500Y-107604096D01*
X160649500Y-109500001D01*
X160649501Y-109500018D01*
X160660000Y-109602796D01*
X160660001Y-109602799D01*
X160715185Y-109769331D01*
X160715187Y-109769336D01*
X160747287Y-109821378D01*
X160807288Y-109918656D01*
X160931344Y-110042712D01*
X161080666Y-110134814D01*
X161247203Y-110189999D01*
X161349991Y-110200500D01*
X161425500Y-110200499D01*
X161492538Y-110220183D01*
X161538294Y-110272986D01*
X161549500Y-110324499D01*
X161549500Y-118513330D01*
X161549499Y-118513348D01*
X161549499Y-118679054D01*
X161549498Y-118679054D01*
X161590423Y-118831785D01*
X161619358Y-118881900D01*
X161619359Y-118881904D01*
X161619360Y-118881904D01*
X161669479Y-118968714D01*
X161669481Y-118968717D01*
X161788349Y-119087585D01*
X161788355Y-119087590D01*
X163513181Y-120812417D01*
X163546666Y-120873740D01*
X163549500Y-120900098D01*
X163549500Y-121525001D01*
X163549501Y-121525019D01*
X163560000Y-121627796D01*
X163560001Y-121627799D01*
X163584092Y-121700499D01*
X163615186Y-121794334D01*
X163707288Y-121943656D01*
X163831344Y-122067712D01*
X163980666Y-122159814D01*
X164147203Y-122214999D01*
X164249991Y-122225500D01*
X164850008Y-122225499D01*
X164850016Y-122225498D01*
X164850019Y-122225498D01*
X164906302Y-122219748D01*
X164952797Y-122214999D01*
X165119334Y-122159814D01*
X165268656Y-122067712D01*
X165392712Y-121943656D01*
X165394752Y-121940347D01*
X165396745Y-121938555D01*
X165397193Y-121937989D01*
X165397289Y-121938065D01*
X165446694Y-121893623D01*
X165515656Y-121882395D01*
X165579740Y-121910234D01*
X165605829Y-121940339D01*
X165607681Y-121943341D01*
X165607683Y-121943344D01*
X165731654Y-122067315D01*
X165880875Y-122159356D01*
X165880880Y-122159358D01*
X166047302Y-122214505D01*
X166047309Y-122214506D01*
X166150019Y-122224999D01*
X166700000Y-122224999D01*
X166749972Y-122224999D01*
X166749986Y-122224998D01*
X166852697Y-122214505D01*
X167019119Y-122159358D01*
X167019124Y-122159356D01*
X167168345Y-122067315D01*
X167292315Y-121943345D01*
X167384356Y-121794124D01*
X167384358Y-121794119D01*
X167439505Y-121627697D01*
X167439506Y-121627690D01*
X167449999Y-121524986D01*
X167450000Y-121524973D01*
X167450000Y-121250000D01*
X166700000Y-121250000D01*
X166700000Y-122224999D01*
X166150019Y-122224999D01*
X166199999Y-122224998D01*
X166200000Y-122224998D01*
X166200000Y-120750000D01*
X166700000Y-120750000D01*
X167449999Y-120750000D01*
X167449999Y-120475028D01*
X167449998Y-120475013D01*
X167439505Y-120372302D01*
X167384358Y-120205880D01*
X167384356Y-120205875D01*
X167292315Y-120056654D01*
X167168345Y-119932684D01*
X167019124Y-119840643D01*
X167019119Y-119840641D01*
X166852697Y-119785494D01*
X166852690Y-119785493D01*
X166749986Y-119775000D01*
X166700000Y-119775000D01*
X166700000Y-120750000D01*
X166200000Y-120750000D01*
X166200000Y-119775000D01*
X166199999Y-119774999D01*
X166150029Y-119775000D01*
X166150011Y-119775001D01*
X166047302Y-119785494D01*
X165880880Y-119840641D01*
X165880875Y-119840643D01*
X165731654Y-119932684D01*
X165607683Y-120056655D01*
X165607679Y-120056660D01*
X165605826Y-120059665D01*
X165604018Y-120061290D01*
X165603202Y-120062323D01*
X165603025Y-120062183D01*
X165553874Y-120106385D01*
X165484911Y-120117601D01*
X165420831Y-120089752D01*
X165394753Y-120059653D01*
X165394737Y-120059628D01*
X165392712Y-120056344D01*
X165268656Y-119932288D01*
X165119334Y-119840186D01*
X164952797Y-119785001D01*
X164952795Y-119785000D01*
X164850010Y-119774500D01*
X164249999Y-119774500D01*
X164249985Y-119774501D01*
X164239415Y-119775581D01*
X164170723Y-119762807D01*
X164139139Y-119739903D01*
X162786819Y-118387583D01*
X162753334Y-118326260D01*
X162750500Y-118299902D01*
X162750500Y-110324499D01*
X162770185Y-110257460D01*
X162822989Y-110211705D01*
X162874500Y-110200499D01*
X162950002Y-110200499D01*
X162950008Y-110200499D01*
X163052797Y-110189999D01*
X163219334Y-110134814D01*
X163368656Y-110042712D01*
X163492712Y-109918656D01*
X163584814Y-109769334D01*
X163639999Y-109602797D01*
X163650500Y-109500009D01*
X163650499Y-107900095D01*
X163670184Y-107833057D01*
X163686813Y-107812420D01*
X164142891Y-107356342D01*
X164204214Y-107322858D01*
X164273906Y-107327842D01*
X164329839Y-107369714D01*
X164354256Y-107435178D01*
X164353930Y-107456626D01*
X164349500Y-107499981D01*
X164349500Y-109500001D01*
X164349501Y-109500018D01*
X164360000Y-109602796D01*
X164360001Y-109602799D01*
X164415185Y-109769331D01*
X164415187Y-109769336D01*
X164447287Y-109821378D01*
X164507288Y-109918656D01*
X164631344Y-110042712D01*
X164780666Y-110134814D01*
X164947203Y-110189999D01*
X165049991Y-110200500D01*
X165125500Y-110200499D01*
X165192538Y-110220183D01*
X165238294Y-110272986D01*
X165249500Y-110324499D01*
X165249500Y-114449902D01*
X165229815Y-114516941D01*
X165213181Y-114537583D01*
X165010861Y-114739902D01*
X164949538Y-114773387D01*
X164910582Y-114775579D01*
X164900028Y-114774501D01*
X164900012Y-114774500D01*
X164900009Y-114774500D01*
X164900004Y-114774500D01*
X164299998Y-114774500D01*
X164299980Y-114774501D01*
X164197203Y-114785000D01*
X164197200Y-114785001D01*
X164030668Y-114840185D01*
X164030663Y-114840187D01*
X163881342Y-114932289D01*
X163757289Y-115056342D01*
X163665187Y-115205663D01*
X163665186Y-115205666D01*
X163610001Y-115372203D01*
X163610001Y-115372204D01*
X163610000Y-115372204D01*
X163599500Y-115474983D01*
X163599500Y-116525001D01*
X163599501Y-116525019D01*
X163610000Y-116627796D01*
X163610001Y-116627799D01*
X163665185Y-116794331D01*
X163665187Y-116794336D01*
X163700069Y-116850888D01*
X163757288Y-116943656D01*
X163881344Y-117067712D01*
X164030666Y-117159814D01*
X164197203Y-117214999D01*
X164299991Y-117225500D01*
X164900008Y-117225499D01*
X164900016Y-117225498D01*
X164900019Y-117225498D01*
X164956302Y-117219748D01*
X165002797Y-117214999D01*
X165169334Y-117159814D01*
X165318656Y-117067712D01*
X165442712Y-116943656D01*
X165444752Y-116940347D01*
X165446745Y-116938555D01*
X165447193Y-116937989D01*
X165447289Y-116938065D01*
X165496694Y-116893623D01*
X165565656Y-116882395D01*
X165629740Y-116910234D01*
X165655829Y-116940339D01*
X165657681Y-116943341D01*
X165657683Y-116943344D01*
X165781654Y-117067315D01*
X165930875Y-117159356D01*
X165930880Y-117159358D01*
X166097302Y-117214505D01*
X166097309Y-117214506D01*
X166200019Y-117224999D01*
X166249999Y-117224998D01*
X166250000Y-117224998D01*
X166250000Y-115250598D01*
X166269685Y-115183559D01*
X166273736Y-115177638D01*
X166279449Y-115169786D01*
X166330520Y-115118716D01*
X166380639Y-115031904D01*
X166409577Y-114981785D01*
X166450501Y-114829057D01*
X166450501Y-114670943D01*
X166450501Y-114663348D01*
X166450500Y-114663330D01*
X166450500Y-110324499D01*
X166470185Y-110257460D01*
X166522989Y-110211705D01*
X166574500Y-110200499D01*
X166650002Y-110200499D01*
X166650008Y-110200499D01*
X166752797Y-110189999D01*
X166919334Y-110134814D01*
X167068656Y-110042712D01*
X167192712Y-109918656D01*
X167269961Y-109793413D01*
X167321909Y-109746689D01*
X167390871Y-109735466D01*
X167454953Y-109763309D01*
X167493810Y-109821378D01*
X167499500Y-109858510D01*
X167499500Y-114914477D01*
X167479815Y-114981516D01*
X167427011Y-115027271D01*
X167357853Y-115037215D01*
X167294297Y-115008190D01*
X167287819Y-115002158D01*
X167218345Y-114932684D01*
X167069124Y-114840643D01*
X167069119Y-114840641D01*
X166902697Y-114785494D01*
X166902690Y-114785493D01*
X166799986Y-114775000D01*
X166750000Y-114775000D01*
X166750000Y-117224999D01*
X166799972Y-117224999D01*
X166799986Y-117224998D01*
X166902697Y-117214505D01*
X167069119Y-117159358D01*
X167069124Y-117159356D01*
X167218345Y-117067315D01*
X167287818Y-116997843D01*
X167349141Y-116964358D01*
X167418833Y-116969342D01*
X167474766Y-117011214D01*
X167499183Y-117076678D01*
X167499499Y-117085524D01*
X167499499Y-117244739D01*
X167499498Y-117244739D01*
X167540423Y-117397470D01*
X167569358Y-117447585D01*
X167569359Y-117447589D01*
X167569360Y-117447589D01*
X167619479Y-117534399D01*
X167619481Y-117534402D01*
X167738349Y-117653270D01*
X167738355Y-117653275D01*
X171949454Y-121864374D01*
X171949464Y-121864385D01*
X171953794Y-121868715D01*
X171953795Y-121868716D01*
X172065599Y-121980520D01*
X172152410Y-122030639D01*
X172152412Y-122030641D01*
X172190466Y-122052611D01*
X172202530Y-122059577D01*
X172355258Y-122100500D01*
X172513372Y-122100500D01*
X173410575Y-122100500D01*
X173410591Y-122100501D01*
X173418187Y-122100501D01*
X173576298Y-122100501D01*
X173576301Y-122100501D01*
X173729029Y-122059577D01*
X173779148Y-122030639D01*
X173865960Y-121980520D01*
X173977764Y-121868716D01*
X173977764Y-121868714D01*
X173987972Y-121858507D01*
X173987974Y-121858504D01*
X174165423Y-121681054D01*
X174226744Y-121647571D01*
X174292105Y-121651030D01*
X174409703Y-121689999D01*
X174512491Y-121700500D01*
X175137508Y-121700499D01*
X175137516Y-121700498D01*
X175137519Y-121700498D01*
X175193802Y-121694748D01*
X175240297Y-121689999D01*
X175406834Y-121634814D01*
X175556156Y-121542712D01*
X175680212Y-121418656D01*
X175772314Y-121269334D01*
X175827499Y-121102797D01*
X175838000Y-121000009D01*
X175837999Y-120387595D01*
X175857683Y-120320557D01*
X175874313Y-120299920D01*
X177868713Y-118305521D01*
X177868716Y-118305520D01*
X177980520Y-118193716D01*
X178030639Y-118106904D01*
X178059577Y-118056785D01*
X178100500Y-117904058D01*
X178100500Y-117745943D01*
X178100500Y-99089060D01*
X178100501Y-99089047D01*
X178100501Y-98920944D01*
X178059576Y-98768214D01*
X178059573Y-98768209D01*
X177980524Y-98631290D01*
X177980518Y-98631282D01*
X177368717Y-98019481D01*
X177368716Y-98019480D01*
X177281904Y-97969360D01*
X177281904Y-97969359D01*
X177281900Y-97969358D01*
X177231785Y-97940423D01*
X177079057Y-97899499D01*
X176920943Y-97899499D01*
X176913347Y-97899499D01*
X176913331Y-97899500D01*
X174007039Y-97899500D01*
X173940000Y-97879815D01*
X173894245Y-97827011D01*
X173889333Y-97814504D01*
X173887216Y-97808117D01*
X173860362Y-97727075D01*
X173860358Y-97727069D01*
X173860357Y-97727066D01*
X173769028Y-97579000D01*
X173769025Y-97578996D01*
X173646003Y-97455974D01*
X173645999Y-97455971D01*
X173497933Y-97364642D01*
X173497927Y-97364639D01*
X173497925Y-97364638D01*
X173497922Y-97364637D01*
X173332776Y-97309913D01*
X173230855Y-97299500D01*
X173230848Y-97299500D01*
X172644152Y-97299500D01*
X172644144Y-97299500D01*
X172542223Y-97309913D01*
X172377077Y-97364637D01*
X172377066Y-97364642D01*
X172229000Y-97455971D01*
X172228996Y-97455974D01*
X172105974Y-97578996D01*
X172105967Y-97579005D01*
X172105234Y-97580194D01*
X172104519Y-97580836D01*
X172101493Y-97584664D01*
X172100838Y-97584146D01*
X172053280Y-97626911D01*
X171984316Y-97638123D01*
X171920238Y-97610271D01*
X171898238Y-97584877D01*
X171898112Y-97584977D01*
X171895885Y-97582161D01*
X171894163Y-97580173D01*
X171893630Y-97579309D01*
X171770691Y-97456370D01*
X171622714Y-97365096D01*
X171622709Y-97365094D01*
X171457673Y-97310407D01*
X171355815Y-97300000D01*
X171312500Y-97300000D01*
X171312500Y-99700000D01*
X171355803Y-99700000D01*
X171355815Y-99699999D01*
X171457673Y-99689592D01*
X171622709Y-99634905D01*
X171622714Y-99634903D01*
X171770691Y-99543629D01*
X171893628Y-99420692D01*
X171894159Y-99419832D01*
X171894680Y-99419363D01*
X171898112Y-99415023D01*
X171898853Y-99415608D01*
X171946101Y-99373102D01*
X172015063Y-99361872D01*
X172079148Y-99389708D01*
X172101413Y-99415398D01*
X172101493Y-99415336D01*
X172102890Y-99417103D01*
X172105238Y-99419812D01*
X172105968Y-99420995D01*
X172105974Y-99421003D01*
X172228996Y-99544025D01*
X172229000Y-99544028D01*
X172377066Y-99635357D01*
X172377069Y-99635358D01*
X172377075Y-99635362D01*
X172542225Y-99690087D01*
X172644152Y-99700500D01*
X172644157Y-99700500D01*
X173230843Y-99700500D01*
X173230848Y-99700500D01*
X173332775Y-99690087D01*
X173395523Y-99669293D01*
X173434527Y-99663000D01*
X173579055Y-99663000D01*
X173579057Y-99663000D01*
X173731785Y-99622077D01*
X173868716Y-99543019D01*
X173980519Y-99431216D01*
X174059577Y-99294285D01*
X174086875Y-99192405D01*
X174123240Y-99132746D01*
X174186087Y-99102217D01*
X174206650Y-99100500D01*
X176699903Y-99100500D01*
X176729343Y-99109144D01*
X176759330Y-99115668D01*
X176764345Y-99119422D01*
X176766942Y-99120185D01*
X176787584Y-99136819D01*
X176863181Y-99212416D01*
X176896666Y-99273739D01*
X176899500Y-99300097D01*
X176899500Y-117524902D01*
X176879815Y-117591941D01*
X176863181Y-117612583D01*
X175212582Y-119263181D01*
X175151259Y-119296666D01*
X175124901Y-119299500D01*
X174537000Y-119299500D01*
X174469961Y-119279815D01*
X174424206Y-119227011D01*
X174413000Y-119175500D01*
X174413000Y-117167760D01*
X174413000Y-117167758D01*
X174372077Y-117015031D01*
X174372077Y-117015030D01*
X174342821Y-116964358D01*
X174325236Y-116933899D01*
X174325235Y-116933898D01*
X174293021Y-116878101D01*
X174293020Y-116878099D01*
X174181216Y-116766295D01*
X174181215Y-116766294D01*
X174176885Y-116761964D01*
X174176874Y-116761954D01*
X171420735Y-114005815D01*
X172075000Y-114005815D01*
X172085407Y-114107673D01*
X172140094Y-114272709D01*
X172140096Y-114272714D01*
X172231370Y-114420691D01*
X172354308Y-114543629D01*
X172502285Y-114634903D01*
X172502290Y-114634905D01*
X172667326Y-114689592D01*
X172769184Y-114699999D01*
X172769197Y-114700000D01*
X172812500Y-114700000D01*
X172812500Y-113750000D01*
X172075000Y-113750000D01*
X172075000Y-114005815D01*
X171420735Y-114005815D01*
X170409104Y-112994184D01*
X172075000Y-112994184D01*
X172075000Y-113250000D01*
X172812500Y-113250000D01*
X172812500Y-112300000D01*
X172769184Y-112300000D01*
X172667326Y-112310407D01*
X172502290Y-112365094D01*
X172502285Y-112365096D01*
X172354308Y-112456370D01*
X172231370Y-112579308D01*
X172140096Y-112727285D01*
X172140094Y-112727290D01*
X172085407Y-112892326D01*
X172075000Y-112994184D01*
X170409104Y-112994184D01*
X169536819Y-112121899D01*
X169503334Y-112060576D01*
X169500500Y-112034218D01*
X169500500Y-102886630D01*
X169500500Y-102886628D01*
X169465657Y-102756592D01*
X169467320Y-102686744D01*
X169506483Y-102628881D01*
X169570711Y-102601377D01*
X169585432Y-102600500D01*
X170775500Y-102600500D01*
X170842539Y-102620185D01*
X170888294Y-102672989D01*
X170899500Y-102724500D01*
X170899500Y-103307491D01*
X170879815Y-103374530D01*
X170840598Y-103413029D01*
X170768844Y-103457287D01*
X170644789Y-103581342D01*
X170552687Y-103730663D01*
X170552686Y-103730666D01*
X170497501Y-103897203D01*
X170497501Y-103897204D01*
X170497500Y-103897204D01*
X170487000Y-103999983D01*
X170487000Y-105000001D01*
X170487001Y-105000019D01*
X170497500Y-105102796D01*
X170497501Y-105102799D01*
X170552685Y-105269331D01*
X170552686Y-105269334D01*
X170644788Y-105418656D01*
X170768844Y-105542712D01*
X170918166Y-105634814D01*
X171084703Y-105689999D01*
X171187491Y-105700500D01*
X171812508Y-105700499D01*
X171812516Y-105700498D01*
X171812519Y-105700498D01*
X171868802Y-105694748D01*
X171915297Y-105689999D01*
X172081834Y-105634814D01*
X172231156Y-105542712D01*
X172324819Y-105449049D01*
X172386142Y-105415564D01*
X172455834Y-105420548D01*
X172500181Y-105449049D01*
X172593844Y-105542712D01*
X172743166Y-105634814D01*
X172909703Y-105689999D01*
X173012491Y-105700500D01*
X173637508Y-105700499D01*
X173637516Y-105700498D01*
X173637519Y-105700498D01*
X173693802Y-105694748D01*
X173740297Y-105689999D01*
X173906834Y-105634814D01*
X174056156Y-105542712D01*
X174180212Y-105418656D01*
X174180212Y-105418655D01*
X174185319Y-105413549D01*
X174186836Y-105415066D01*
X174235249Y-105380783D01*
X174305048Y-105377640D01*
X174365466Y-105412733D01*
X174397320Y-105474919D01*
X174399500Y-105498068D01*
X174399500Y-112281599D01*
X174379815Y-112348638D01*
X174340597Y-112387137D01*
X174229000Y-112455971D01*
X174228996Y-112455974D01*
X174105974Y-112578996D01*
X174105967Y-112579005D01*
X174105234Y-112580194D01*
X174104519Y-112580836D01*
X174101493Y-112584664D01*
X174100838Y-112584146D01*
X174053280Y-112626911D01*
X173984316Y-112638123D01*
X173920238Y-112610271D01*
X173898238Y-112584877D01*
X173898112Y-112584977D01*
X173895885Y-112582161D01*
X173894163Y-112580173D01*
X173893630Y-112579309D01*
X173770691Y-112456370D01*
X173622714Y-112365096D01*
X173622709Y-112365094D01*
X173457673Y-112310407D01*
X173355815Y-112300000D01*
X173312500Y-112300000D01*
X173312500Y-114700000D01*
X173355803Y-114700000D01*
X173355815Y-114699999D01*
X173457673Y-114689592D01*
X173622709Y-114634905D01*
X173622714Y-114634903D01*
X173770691Y-114543629D01*
X173893628Y-114420692D01*
X173894159Y-114419832D01*
X173894680Y-114419363D01*
X173898112Y-114415023D01*
X173898853Y-114415608D01*
X173946101Y-114373102D01*
X174015063Y-114361872D01*
X174079148Y-114389708D01*
X174101413Y-114415398D01*
X174101493Y-114415336D01*
X174102890Y-114417103D01*
X174105238Y-114419812D01*
X174105968Y-114420995D01*
X174105974Y-114421003D01*
X174228996Y-114544025D01*
X174229000Y-114544028D01*
X174377066Y-114635357D01*
X174377069Y-114635358D01*
X174377075Y-114635362D01*
X174542225Y-114690087D01*
X174644152Y-114700500D01*
X174644157Y-114700500D01*
X175230843Y-114700500D01*
X175230848Y-114700500D01*
X175332775Y-114690087D01*
X175497925Y-114635362D01*
X175646003Y-114544026D01*
X175769026Y-114421003D01*
X175860362Y-114272925D01*
X175915087Y-114107775D01*
X175925500Y-114005848D01*
X175925500Y-112994152D01*
X175915087Y-112892225D01*
X175860362Y-112727075D01*
X175860358Y-112727069D01*
X175860357Y-112727066D01*
X175769028Y-112579000D01*
X175769027Y-112578999D01*
X175769026Y-112578997D01*
X175646003Y-112455974D01*
X175646002Y-112455973D01*
X175640896Y-112450867D01*
X175642176Y-112449586D01*
X175607210Y-112400198D01*
X175600500Y-112359961D01*
X175600500Y-104420945D01*
X175600500Y-104420943D01*
X175559577Y-104268216D01*
X175487519Y-104143406D01*
X175480524Y-104131290D01*
X175480518Y-104131282D01*
X175368717Y-104019481D01*
X175368709Y-104019475D01*
X175231790Y-103940426D01*
X175231786Y-103940424D01*
X175231784Y-103940423D01*
X175079057Y-103899500D01*
X175079056Y-103899500D01*
X174417801Y-103899500D01*
X174350762Y-103879815D01*
X174305007Y-103827011D01*
X174300095Y-103814504D01*
X174272314Y-103730666D01*
X174180212Y-103581344D01*
X174056156Y-103457288D01*
X173906834Y-103365186D01*
X173740297Y-103310001D01*
X173740295Y-103310000D01*
X173637510Y-103299500D01*
X173012498Y-103299500D01*
X173012480Y-103299501D01*
X172909703Y-103310000D01*
X172909700Y-103310001D01*
X172743168Y-103365185D01*
X172743163Y-103365187D01*
X172593842Y-103457289D01*
X172500181Y-103550951D01*
X172497402Y-103552468D01*
X172495749Y-103555170D01*
X172466935Y-103569104D01*
X172438858Y-103584436D01*
X172435700Y-103584210D01*
X172432849Y-103585589D01*
X172401080Y-103581734D01*
X172369166Y-103579452D01*
X172365688Y-103577439D01*
X172363488Y-103577173D01*
X172353386Y-103570323D01*
X172333384Y-103558751D01*
X172328920Y-103555052D01*
X172231156Y-103457288D01*
X172152048Y-103408494D01*
X172145384Y-103402972D01*
X172130492Y-103380887D01*
X172112678Y-103361081D01*
X172110411Y-103351105D01*
X172106322Y-103345041D01*
X172106030Y-103331828D01*
X172100500Y-103307491D01*
X172100500Y-101920945D01*
X172100500Y-101920943D01*
X172059577Y-101768216D01*
X172024929Y-101708203D01*
X171980524Y-101631290D01*
X171980518Y-101631282D01*
X171868717Y-101519481D01*
X171868709Y-101519475D01*
X171731790Y-101440426D01*
X171731786Y-101440424D01*
X171731784Y-101440423D01*
X171579057Y-101399500D01*
X171579056Y-101399500D01*
X169224500Y-101399500D01*
X169157461Y-101379815D01*
X169111706Y-101327011D01*
X169100500Y-101275500D01*
X169100500Y-99005815D01*
X170075000Y-99005815D01*
X170085407Y-99107673D01*
X170140094Y-99272709D01*
X170140096Y-99272714D01*
X170231370Y-99420691D01*
X170354308Y-99543629D01*
X170502285Y-99634903D01*
X170502290Y-99634905D01*
X170667326Y-99689592D01*
X170769184Y-99699999D01*
X170769197Y-99700000D01*
X170812500Y-99700000D01*
X170812500Y-98750000D01*
X170075000Y-98750000D01*
X170075000Y-99005815D01*
X169100500Y-99005815D01*
X169100500Y-97994184D01*
X170075000Y-97994184D01*
X170075000Y-98250000D01*
X170812500Y-98250000D01*
X170812500Y-97300000D01*
X170769184Y-97300000D01*
X170667326Y-97310407D01*
X170502290Y-97365094D01*
X170502285Y-97365096D01*
X170354308Y-97456370D01*
X170231370Y-97579308D01*
X170140096Y-97727285D01*
X170140094Y-97727290D01*
X170085407Y-97892326D01*
X170075000Y-97994184D01*
X169100500Y-97994184D01*
X169100500Y-78920945D01*
X169100500Y-78920943D01*
X169059577Y-78768216D01*
X169059573Y-78768209D01*
X168980524Y-78631290D01*
X168980521Y-78631286D01*
X168980520Y-78631284D01*
X168868716Y-78519480D01*
X168868715Y-78519479D01*
X168864385Y-78515149D01*
X168864374Y-78515139D01*
X168737590Y-78388355D01*
X168737588Y-78388352D01*
X168618717Y-78269481D01*
X168618716Y-78269480D01*
X168531904Y-78219360D01*
X168481785Y-78190423D01*
X168470989Y-78187530D01*
X168458791Y-78181133D01*
X168443170Y-78166029D01*
X168424616Y-78154716D01*
X168418547Y-78142219D01*
X168408563Y-78132565D01*
X168403588Y-78111414D01*
X168394095Y-78091865D01*
X168393442Y-78087502D01*
X168384196Y-78017268D01*
X168386409Y-77983529D01*
X168384626Y-77983295D01*
X168395650Y-77899557D01*
X168400500Y-77862720D01*
X168400500Y-77637280D01*
X168385687Y-77524764D01*
X168373836Y-77496153D01*
X168366366Y-77426684D01*
X168397640Y-77364204D01*
X168400687Y-77361046D01*
X170512502Y-75249232D01*
X170573825Y-75215747D01*
X170643517Y-75220731D01*
X170687864Y-75249232D01*
X175713181Y-80274549D01*
X175746666Y-80335872D01*
X175749500Y-80362230D01*
X175749500Y-81905500D01*
X175729815Y-81972539D01*
X175677011Y-82018294D01*
X175625505Y-82029500D01*
X175602132Y-82029500D01*
X175602123Y-82029501D01*
X175542516Y-82035908D01*
X175407671Y-82086202D01*
X175407664Y-82086206D01*
X175292455Y-82172452D01*
X175292452Y-82172455D01*
X175206206Y-82287664D01*
X175206202Y-82287671D01*
X175155908Y-82422517D01*
X175150241Y-82475236D01*
X175149501Y-82482123D01*
X175149500Y-82482135D01*
X175149500Y-84277870D01*
X175149501Y-84277876D01*
X175155908Y-84337483D01*
X175206202Y-84472328D01*
X175206206Y-84472335D01*
X175292452Y-84587544D01*
X175292455Y-84587547D01*
X175407664Y-84673793D01*
X175407671Y-84673797D01*
X175539082Y-84722810D01*
X175595016Y-84764681D01*
X175619433Y-84830145D01*
X175604582Y-84898418D01*
X175583431Y-84926673D01*
X175469889Y-85040215D01*
X175344951Y-85212179D01*
X175248444Y-85401585D01*
X175182753Y-85603760D01*
X175167526Y-85699903D01*
X175149500Y-85813713D01*
X175149500Y-86026287D01*
X175155841Y-86066325D01*
X175182047Y-86231784D01*
X175182754Y-86236243D01*
X175238872Y-86408957D01*
X175248444Y-86438414D01*
X175344951Y-86627820D01*
X175469890Y-86799786D01*
X175620213Y-86950109D01*
X175792182Y-87075050D01*
X175800946Y-87079516D01*
X175851742Y-87127491D01*
X175868536Y-87195312D01*
X175845998Y-87261447D01*
X175800946Y-87300484D01*
X175792182Y-87304949D01*
X175620213Y-87429890D01*
X175469890Y-87580213D01*
X175344951Y-87752179D01*
X175248444Y-87941585D01*
X175182753Y-88143760D01*
X175162865Y-88269331D01*
X175149500Y-88353713D01*
X175149500Y-88566287D01*
X175182754Y-88776243D01*
X175237150Y-88943657D01*
X175248444Y-88978414D01*
X175344951Y-89167820D01*
X175469890Y-89339786D01*
X175620213Y-89490109D01*
X175792179Y-89615048D01*
X175792181Y-89615049D01*
X175792184Y-89615051D01*
X175801493Y-89619794D01*
X175852290Y-89667766D01*
X175869087Y-89735587D01*
X175846552Y-89801722D01*
X175801505Y-89840760D01*
X175792446Y-89845376D01*
X175792440Y-89845380D01*
X175738282Y-89884727D01*
X175738282Y-89884728D01*
X176370591Y-90517037D01*
X176307007Y-90534075D01*
X176192993Y-90599901D01*
X176099901Y-90692993D01*
X176034075Y-90807007D01*
X176017037Y-90870591D01*
X175384728Y-90238282D01*
X175384727Y-90238282D01*
X175345380Y-90292439D01*
X175248904Y-90481782D01*
X175183242Y-90683869D01*
X175183242Y-90683872D01*
X175150000Y-90893753D01*
X175150000Y-91106246D01*
X175183242Y-91316127D01*
X175183242Y-91316130D01*
X175248904Y-91518217D01*
X175345375Y-91707550D01*
X175384728Y-91761716D01*
X176017037Y-91129408D01*
X176034075Y-91192993D01*
X176099901Y-91307007D01*
X176192993Y-91400099D01*
X176307007Y-91465925D01*
X176370590Y-91482962D01*
X175738282Y-92115269D01*
X175738282Y-92115270D01*
X175792449Y-92154624D01*
X175981782Y-92251095D01*
X176183870Y-92316757D01*
X176393754Y-92350000D01*
X176606246Y-92350000D01*
X176816127Y-92316757D01*
X176816130Y-92316757D01*
X177018217Y-92251095D01*
X177207554Y-92154622D01*
X177261716Y-92115270D01*
X177261717Y-92115270D01*
X176629408Y-91482962D01*
X176692993Y-91465925D01*
X176807007Y-91400099D01*
X176900099Y-91307007D01*
X176965925Y-91192993D01*
X176982962Y-91129409D01*
X177615270Y-91761717D01*
X177615270Y-91761716D01*
X177654622Y-91707554D01*
X177751095Y-91518217D01*
X177816757Y-91316130D01*
X177816757Y-91316127D01*
X177850000Y-91106246D01*
X177850000Y-90893753D01*
X177816757Y-90683872D01*
X177816757Y-90683869D01*
X177751095Y-90481782D01*
X177654624Y-90292449D01*
X177615270Y-90238282D01*
X177615269Y-90238282D01*
X176982962Y-90870590D01*
X176965925Y-90807007D01*
X176900099Y-90692993D01*
X176807007Y-90599901D01*
X176692993Y-90534075D01*
X176629409Y-90517037D01*
X177261716Y-89884728D01*
X177207547Y-89845373D01*
X177207547Y-89845372D01*
X177198500Y-89840763D01*
X177147706Y-89792788D01*
X177130912Y-89724966D01*
X177153451Y-89658832D01*
X177198508Y-89619793D01*
X177207816Y-89615051D01*
X177287007Y-89557515D01*
X177379786Y-89490109D01*
X177379788Y-89490106D01*
X177379792Y-89490104D01*
X177530104Y-89339792D01*
X177530106Y-89339788D01*
X177530109Y-89339786D01*
X177655048Y-89167820D01*
X177655047Y-89167820D01*
X177655051Y-89167816D01*
X177751557Y-88978412D01*
X177817246Y-88776243D01*
X177850500Y-88566287D01*
X177850500Y-88353713D01*
X177817246Y-88143757D01*
X177751557Y-87941588D01*
X177655051Y-87752184D01*
X177655049Y-87752181D01*
X177655048Y-87752179D01*
X177530109Y-87580213D01*
X177379786Y-87429890D01*
X177207820Y-87304951D01*
X177207115Y-87304591D01*
X177199054Y-87300485D01*
X177148259Y-87252512D01*
X177131463Y-87184692D01*
X177153999Y-87118556D01*
X177199054Y-87079515D01*
X177207816Y-87075051D01*
X177233566Y-87056343D01*
X177379786Y-86950109D01*
X177379788Y-86950106D01*
X177379792Y-86950104D01*
X177530104Y-86799792D01*
X177530106Y-86799788D01*
X177530109Y-86799786D01*
X177655048Y-86627820D01*
X177655047Y-86627820D01*
X177655051Y-86627816D01*
X177751557Y-86438412D01*
X177817246Y-86236243D01*
X177850500Y-86026287D01*
X177850500Y-85813713D01*
X177817246Y-85603757D01*
X177751557Y-85401588D01*
X177655051Y-85212184D01*
X177655049Y-85212181D01*
X177655048Y-85212179D01*
X177530109Y-85040213D01*
X177416569Y-84926673D01*
X177383084Y-84865350D01*
X177388068Y-84795658D01*
X177429940Y-84739725D01*
X177460915Y-84722810D01*
X177592331Y-84673796D01*
X177707546Y-84587546D01*
X177793796Y-84472331D01*
X177844091Y-84337483D01*
X177850500Y-84277873D01*
X177850499Y-82482128D01*
X177844091Y-82422517D01*
X177821788Y-82362720D01*
X177793797Y-82287671D01*
X177793793Y-82287664D01*
X177707547Y-82172455D01*
X177707544Y-82172452D01*
X177592335Y-82086206D01*
X177592328Y-82086202D01*
X177457482Y-82035908D01*
X177457483Y-82035908D01*
X177397883Y-82029501D01*
X177397881Y-82029500D01*
X177397873Y-82029500D01*
X177397865Y-82029500D01*
X177374500Y-82029500D01*
X177307461Y-82009815D01*
X177261706Y-81957011D01*
X177250500Y-81905500D01*
X177250500Y-79926079D01*
X177221659Y-79781092D01*
X177221658Y-79781091D01*
X177221658Y-79781087D01*
X177165084Y-79644505D01*
X177123928Y-79582910D01*
X177123928Y-79582909D01*
X177082950Y-79521581D01*
X171749232Y-74187863D01*
X171715747Y-74126540D01*
X171720731Y-74056848D01*
X171749230Y-74012503D01*
X181202082Y-64559651D01*
X181263403Y-64526168D01*
X181333095Y-64531152D01*
X181354857Y-64541795D01*
X181505659Y-64634810D01*
X181505660Y-64634810D01*
X181505666Y-64634814D01*
X181672203Y-64689999D01*
X181774991Y-64700500D01*
X182400008Y-64700499D01*
X182400016Y-64700498D01*
X182400019Y-64700498D01*
X182456302Y-64694748D01*
X182502797Y-64689999D01*
X182669334Y-64634814D01*
X182818656Y-64542712D01*
X182912319Y-64449049D01*
X182973642Y-64415564D01*
X183043334Y-64420548D01*
X183087681Y-64449049D01*
X183181344Y-64542712D01*
X183330666Y-64634814D01*
X183497203Y-64689999D01*
X183599991Y-64700500D01*
X184225008Y-64700499D01*
X184225016Y-64700498D01*
X184225019Y-64700498D01*
X184281302Y-64694748D01*
X184327797Y-64689999D01*
X184494334Y-64634814D01*
X184643656Y-64542712D01*
X184767712Y-64418656D01*
X184859814Y-64269334D01*
X184914999Y-64102797D01*
X184925500Y-64000009D01*
X184925499Y-62999992D01*
X184922947Y-62975013D01*
X184914999Y-62897203D01*
X184914998Y-62897200D01*
X184906715Y-62872203D01*
X184859814Y-62730666D01*
X184767712Y-62581344D01*
X184643656Y-62457288D01*
X184498149Y-62367539D01*
X184494336Y-62365187D01*
X184494331Y-62365185D01*
X184480881Y-62360728D01*
X184327797Y-62310001D01*
X184327795Y-62310000D01*
X184225010Y-62299500D01*
X183599998Y-62299500D01*
X183599980Y-62299501D01*
X183497203Y-62310000D01*
X183497200Y-62310001D01*
X183330668Y-62365185D01*
X183330663Y-62365187D01*
X183181342Y-62457289D01*
X183087681Y-62550951D01*
X183026358Y-62584436D01*
X182956666Y-62579452D01*
X182912319Y-62550951D01*
X182818657Y-62457289D01*
X182818656Y-62457288D01*
X182673149Y-62367539D01*
X182669336Y-62365187D01*
X182669331Y-62365185D01*
X182655881Y-62360728D01*
X182502797Y-62310001D01*
X182502795Y-62310000D01*
X182400016Y-62299500D01*
X181787597Y-62299500D01*
X181720558Y-62279815D01*
X181699916Y-62263181D01*
X166575090Y-47138355D01*
X166575088Y-47138352D01*
X166456217Y-47019481D01*
X166456216Y-47019480D01*
X166369404Y-46969360D01*
X166369404Y-46969359D01*
X166369400Y-46969358D01*
X166319285Y-46940423D01*
X166166557Y-46899499D01*
X166008443Y-46899499D01*
X166000847Y-46899499D01*
X166000831Y-46899500D01*
X157786670Y-46899500D01*
X157786654Y-46899499D01*
X157779058Y-46899499D01*
X157620943Y-46899499D01*
X157544579Y-46919961D01*
X157468214Y-46940423D01*
X157468209Y-46940426D01*
X157331290Y-47019475D01*
X157331282Y-47019481D01*
X144762584Y-59588181D01*
X144701261Y-59621666D01*
X144674903Y-59624500D01*
X139174980Y-59624500D01*
X139072198Y-59635001D01*
X138905666Y-59690184D01*
X138905655Y-59690189D01*
X138756346Y-59782285D01*
X138756342Y-59782288D01*
X138632288Y-59906342D01*
X138632285Y-59906346D01*
X138540189Y-60055655D01*
X138540184Y-60055666D01*
X138485001Y-60222198D01*
X138474500Y-60324980D01*
X138474500Y-62300500D01*
X138454815Y-62367539D01*
X138402011Y-62413294D01*
X138350500Y-62424500D01*
X137520908Y-62424500D01*
X137453869Y-62404815D01*
X137415363Y-62360728D01*
X137413605Y-62361813D01*
X137406753Y-62350704D01*
X137317712Y-62206344D01*
X137193656Y-62082288D01*
X137044428Y-61990244D01*
X136997705Y-61938297D01*
X136986482Y-61869334D01*
X137014326Y-61805252D01*
X137044430Y-61779167D01*
X137193343Y-61687317D01*
X137317315Y-61563345D01*
X137409356Y-61414124D01*
X137409358Y-61414119D01*
X137464505Y-61247697D01*
X137464506Y-61247690D01*
X137474999Y-61144986D01*
X137475000Y-61144973D01*
X137475000Y-60995000D01*
X135999000Y-60995000D01*
X135931961Y-60975315D01*
X135886206Y-60922511D01*
X135875000Y-60871000D01*
X135875000Y-60745000D01*
X135749000Y-60745000D01*
X135681961Y-60725315D01*
X135636206Y-60672511D01*
X135625000Y-60621000D01*
X135625000Y-60495000D01*
X136125000Y-60495000D01*
X137474999Y-60495000D01*
X137474999Y-60345028D01*
X137474998Y-60345013D01*
X137464505Y-60242302D01*
X137409358Y-60075880D01*
X137409356Y-60075875D01*
X137317315Y-59926654D01*
X137193345Y-59802684D01*
X137044124Y-59710643D01*
X137044119Y-59710641D01*
X136877697Y-59655494D01*
X136877690Y-59655493D01*
X136774986Y-59645000D01*
X136125000Y-59645000D01*
X136125000Y-60495000D01*
X135625000Y-60495000D01*
X135625000Y-59645000D01*
X134975028Y-59645000D01*
X134975012Y-59645001D01*
X134872302Y-59655494D01*
X134705880Y-59710641D01*
X134705875Y-59710643D01*
X134556654Y-59802684D01*
X134432684Y-59926654D01*
X134340643Y-60075875D01*
X134340641Y-60075880D01*
X134285494Y-60242302D01*
X134285493Y-60242309D01*
X134280132Y-60294781D01*
X134253735Y-60359473D01*
X134196553Y-60399623D01*
X134126742Y-60402485D01*
X134069093Y-60369858D01*
X133837590Y-60138355D01*
X133837588Y-60138352D01*
X133718716Y-60019480D01*
X133718714Y-60019479D01*
X133641643Y-59974983D01*
X133631904Y-59969360D01*
X133631904Y-59969359D01*
X133631900Y-59969358D01*
X133581785Y-59940423D01*
X133429057Y-59899499D01*
X133270943Y-59899499D01*
X133263347Y-59899499D01*
X133263331Y-59899500D01*
X133086670Y-59899500D01*
X133086654Y-59899499D01*
X133079058Y-59899499D01*
X132920943Y-59899499D01*
X132844579Y-59919961D01*
X132768214Y-59940423D01*
X132768209Y-59940426D01*
X132631290Y-60019475D01*
X132631284Y-60019480D01*
X130410861Y-62239902D01*
X130349538Y-62273387D01*
X130310582Y-62275579D01*
X130300028Y-62274501D01*
X130300012Y-62274500D01*
X130300009Y-62274500D01*
X130300004Y-62274500D01*
X129699998Y-62274500D01*
X129699980Y-62274501D01*
X129597203Y-62285000D01*
X129597200Y-62285001D01*
X129430668Y-62340185D01*
X129430663Y-62340187D01*
X129281342Y-62432289D01*
X129157289Y-62556342D01*
X129065187Y-62705663D01*
X129065185Y-62705668D01*
X129038282Y-62786856D01*
X129010001Y-62872203D01*
X129010001Y-62872204D01*
X129010000Y-62872204D01*
X128999500Y-62974983D01*
X128999500Y-64025001D01*
X128999501Y-64025019D01*
X129010000Y-64127796D01*
X129010001Y-64127799D01*
X129047418Y-64240715D01*
X129065186Y-64294334D01*
X129157288Y-64443656D01*
X129281344Y-64567712D01*
X129430666Y-64659814D01*
X129597203Y-64714999D01*
X129699991Y-64725500D01*
X130300008Y-64725499D01*
X130300016Y-64725498D01*
X130300019Y-64725498D01*
X130356302Y-64719748D01*
X130402797Y-64714999D01*
X130569334Y-64659814D01*
X130718656Y-64567712D01*
X130842712Y-64443656D01*
X130844752Y-64440347D01*
X130846745Y-64438555D01*
X130847193Y-64437989D01*
X130847289Y-64438065D01*
X130896694Y-64393623D01*
X130965656Y-64382395D01*
X131029740Y-64410234D01*
X131055829Y-64440339D01*
X131057681Y-64443341D01*
X131057683Y-64443344D01*
X131181654Y-64567315D01*
X131330875Y-64659356D01*
X131330880Y-64659358D01*
X131497302Y-64714505D01*
X131497309Y-64714506D01*
X131600019Y-64724999D01*
X132150000Y-64724999D01*
X132199972Y-64724999D01*
X132199986Y-64724998D01*
X132302697Y-64714505D01*
X132469119Y-64659358D01*
X132469124Y-64659356D01*
X132618345Y-64567315D01*
X132742315Y-64443345D01*
X132834356Y-64294124D01*
X132834358Y-64294119D01*
X132889505Y-64127697D01*
X132889506Y-64127690D01*
X132899999Y-64024986D01*
X132900000Y-64024973D01*
X132900000Y-63750000D01*
X132150000Y-63750000D01*
X132150000Y-64724999D01*
X131600019Y-64724999D01*
X131649999Y-64724998D01*
X131650000Y-64724998D01*
X131650000Y-63624000D01*
X131669685Y-63556961D01*
X131722489Y-63511206D01*
X131774000Y-63500000D01*
X131900000Y-63500000D01*
X131900000Y-63374000D01*
X131919685Y-63306961D01*
X131972489Y-63261206D01*
X132024000Y-63250000D01*
X132899999Y-63250000D01*
X132899999Y-62975028D01*
X132899998Y-62975013D01*
X132889505Y-62872302D01*
X132834358Y-62705880D01*
X132834356Y-62705875D01*
X132742315Y-62556654D01*
X132618345Y-62432684D01*
X132469124Y-62340643D01*
X132469119Y-62340641D01*
X132314043Y-62289254D01*
X132256598Y-62249481D01*
X132229775Y-62184965D01*
X132242090Y-62116190D01*
X132265361Y-62083872D01*
X133087322Y-61261912D01*
X133148641Y-61228430D01*
X133218333Y-61233414D01*
X133262680Y-61261915D01*
X134290146Y-62289381D01*
X134323631Y-62350704D01*
X134320171Y-62416065D01*
X134285001Y-62522200D01*
X134285000Y-62522204D01*
X134274500Y-62624983D01*
X134274500Y-63425001D01*
X134274501Y-63425019D01*
X134285000Y-63527796D01*
X134294441Y-63556286D01*
X134320171Y-63633933D01*
X134322573Y-63703760D01*
X134290146Y-63760617D01*
X134106286Y-63944478D01*
X129319481Y-68731282D01*
X129319479Y-68731284D01*
X129302196Y-68761220D01*
X129294891Y-68773874D01*
X129240423Y-68868215D01*
X129199499Y-69020943D01*
X129199499Y-69020945D01*
X129199499Y-69189046D01*
X129199500Y-69189059D01*
X129199500Y-69308586D01*
X129199499Y-69308604D01*
X129199499Y-69484302D01*
X129199500Y-69484315D01*
X129199500Y-93150500D01*
X129179815Y-93217539D01*
X129127011Y-93263294D01*
X129075500Y-93274500D01*
X128699998Y-93274500D01*
X128699980Y-93274501D01*
X128597203Y-93285000D01*
X128597200Y-93285001D01*
X128430668Y-93340185D01*
X128430663Y-93340187D01*
X128281342Y-93432289D01*
X128157289Y-93556342D01*
X128065187Y-93705663D01*
X128065185Y-93705668D01*
X128065115Y-93705880D01*
X128010001Y-93872203D01*
X128010001Y-93872204D01*
X128010000Y-93872204D01*
X127999500Y-93974983D01*
X54226619Y-93974983D01*
X54000496Y-38122513D01*
X54019909Y-38055395D01*
X54072527Y-38009427D01*
X54122496Y-37998028D01*
X271500000Y-34500000D01*
X272836791Y-34054402D01*
X272906612Y-34051878D01*
X272966717Y-34087503D01*
G37*
%TD.AperFunction*%
%TD*%
M02*
