%TF.GenerationSoftware,KiCad,Pcbnew,9.0.9*%
%TF.CreationDate,2026-05-25T05:03:07+03:00*%
%TF.ProjectId,STM32_Bluepill,53544d33-325f-4426-9c75-6570696c6c2e,rev?*%
%TF.SameCoordinates,Original*%
%TF.FileFunction,Soldermask,Top*%
%TF.FilePolarity,Negative*%
%FSLAX46Y46*%
G04 Gerber Fmt 4.6, Leading zero omitted, Abs format (unit mm)*
G04 Created by KiCad (PCBNEW 9.0.9) date 2026-05-25 05:03:07*
%MOMM*%
%LPD*%
G01*
G04 APERTURE LIST*
G04 Aperture macros list*
%AMRoundRect*
0 Rectangle with rounded corners*
0 $1 Rounding radius*
0 $2 $3 $4 $5 $6 $7 $8 $9 X,Y pos of 4 corners*
0 Add a 4 corners polygon primitive as box body*
4,1,4,$2,$3,$4,$5,$6,$7,$8,$9,$2,$3,0*
0 Add four circle primitives for the rounded corners*
1,1,$1+$1,$2,$3*
1,1,$1+$1,$4,$5*
1,1,$1+$1,$6,$7*
1,1,$1+$1,$8,$9*
0 Add four rect primitives between the rounded corners*
20,1,$1+$1,$2,$3,$4,$5,0*
20,1,$1+$1,$4,$5,$6,$7,0*
20,1,$1+$1,$6,$7,$8,$9,0*
20,1,$1+$1,$8,$9,$2,$3,0*%
G04 Aperture macros list end*
%ADD10RoundRect,0.250000X-0.250000X-0.475000X0.250000X-0.475000X0.250000X0.475000X-0.250000X0.475000X0*%
%ADD11RoundRect,0.243750X-0.243750X-0.456250X0.243750X-0.456250X0.243750X0.456250X-0.243750X0.456250X0*%
%ADD12RoundRect,0.250000X-0.262500X-0.450000X0.262500X-0.450000X0.262500X0.450000X-0.262500X0.450000X0*%
%ADD13RoundRect,0.250000X-0.750000X-0.950000X0.750000X-0.950000X0.750000X0.950000X-0.750000X0.950000X0*%
%ADD14RoundRect,0.250000X0.250000X0.475000X-0.250000X0.475000X-0.250000X-0.475000X0.250000X-0.475000X0*%
%ADD15R,1.700000X1.700000*%
%ADD16C,1.700000*%
%ADD17R,0.400000X1.350000*%
%ADD18O,1.200000X1.900000*%
%ADD19R,1.200000X1.900000*%
%ADD20C,1.450000*%
%ADD21R,1.500000X1.900000*%
%ADD22RoundRect,0.250000X-0.525000X-0.400000X0.525000X-0.400000X0.525000X0.400000X-0.525000X0.400000X0*%
%ADD23RoundRect,0.075000X-0.662500X-0.075000X0.662500X-0.075000X0.662500X0.075000X-0.662500X0.075000X0*%
%ADD24RoundRect,0.075000X-0.075000X-0.662500X0.075000X-0.662500X0.075000X0.662500X-0.075000X0.662500X0*%
%ADD25RoundRect,0.250000X-0.850000X-0.350000X0.850000X-0.350000X0.850000X0.350000X-0.850000X0.350000X0*%
%ADD26RoundRect,0.249997X-2.950003X-2.650003X2.950003X-2.650003X2.950003X2.650003X-2.950003X2.650003X0*%
G04 APERTURE END LIST*
D10*
%TO.C,C12*%
X164550000Y-121000000D03*
X166450000Y-121000000D03*
%TD*%
D11*
%TO.C,D2*%
X173062500Y-113500000D03*
X174937500Y-113500000D03*
%TD*%
D12*
%TO.C,R4*%
X182087500Y-63500000D03*
X183912500Y-63500000D03*
%TD*%
D10*
%TO.C,C6*%
X136500000Y-82000000D03*
X138400000Y-82000000D03*
%TD*%
D12*
%TO.C,R1*%
X149587500Y-87500000D03*
X151412500Y-87500000D03*
%TD*%
D13*
%TO.C,Y2*%
X162150000Y-108500000D03*
X165850000Y-108500000D03*
%TD*%
D14*
%TO.C,C11*%
X163950000Y-91000000D03*
X162050000Y-91000000D03*
%TD*%
D15*
%TO.C,J2*%
X176500000Y-83380000D03*
D16*
X176500000Y-85920000D03*
X176500000Y-88460000D03*
X176500000Y-91000000D03*
%TD*%
D17*
%TO.C,J1*%
X162350000Y-62500000D03*
X163000000Y-62500000D03*
X163650000Y-62500000D03*
X164300000Y-62500000D03*
X164950000Y-62500000D03*
D18*
X160150000Y-65200000D03*
D19*
X160750000Y-65200000D03*
D20*
X161150000Y-62500000D03*
D21*
X162650000Y-65200000D03*
X164650000Y-65200000D03*
D20*
X166150000Y-62500000D03*
D19*
X166550000Y-65200000D03*
D18*
X167150000Y-65200000D03*
%TD*%
D12*
%TO.C,R2*%
X161675000Y-53000000D03*
X163500000Y-53000000D03*
%TD*%
%TO.C,R3*%
X146087500Y-68500000D03*
X147912500Y-68500000D03*
%TD*%
D10*
%TO.C,C5*%
X129000000Y-108500000D03*
X130900000Y-108500000D03*
%TD*%
D12*
%TO.C,R6*%
X173000000Y-120500000D03*
X174825000Y-120500000D03*
%TD*%
D10*
%TO.C,C1*%
X150550000Y-60500000D03*
X152450000Y-60500000D03*
%TD*%
%TO.C,C4*%
X129000000Y-101500000D03*
X130900000Y-101500000D03*
%TD*%
%TO.C,C10*%
X155550000Y-115500000D03*
X157450000Y-115500000D03*
%TD*%
%TO.C,C7*%
X136550000Y-88000000D03*
X138450000Y-88000000D03*
%TD*%
%TO.C,C3*%
X129000000Y-94500000D03*
X130900000Y-94500000D03*
%TD*%
D13*
%TO.C,Y1*%
X161395000Y-99402500D03*
X165095000Y-99402500D03*
%TD*%
D22*
%TO.C,SW1*%
X136520000Y-131250000D03*
X144480000Y-131250000D03*
X136520000Y-135750000D03*
X144480000Y-135750000D03*
%TD*%
D10*
%TO.C,C13*%
X164600000Y-116000000D03*
X166500000Y-116000000D03*
%TD*%
D11*
%TO.C,D1*%
X171062500Y-98500000D03*
X172937500Y-98500000D03*
%TD*%
D23*
%TO.C,U2*%
X158837500Y-77750000D03*
X158837500Y-78250000D03*
X158837500Y-78750000D03*
X158837500Y-79250000D03*
X158837500Y-79750000D03*
X158837500Y-80250000D03*
X158837500Y-80750000D03*
X158837500Y-81250000D03*
X158837500Y-81750000D03*
X158837500Y-82250000D03*
X158837500Y-82750000D03*
X158837500Y-83250000D03*
D24*
X160250000Y-84662500D03*
X160750000Y-84662500D03*
X161250000Y-84662500D03*
X161750000Y-84662500D03*
X162250000Y-84662500D03*
X162750000Y-84662500D03*
X163250000Y-84662500D03*
X163750000Y-84662500D03*
X164250000Y-84662500D03*
X164750000Y-84662500D03*
X165250000Y-84662500D03*
X165750000Y-84662500D03*
D23*
X167162500Y-83250000D03*
X167162500Y-82750000D03*
X167162500Y-82250000D03*
X167162500Y-81750000D03*
X167162500Y-81250000D03*
X167162500Y-80750000D03*
X167162500Y-80250000D03*
X167162500Y-79750000D03*
X167162500Y-79250000D03*
X167162500Y-78750000D03*
X167162500Y-78250000D03*
X167162500Y-77750000D03*
D24*
X165750000Y-76337500D03*
X165250000Y-76337500D03*
X164750000Y-76337500D03*
X164250000Y-76337500D03*
X163750000Y-76337500D03*
X163250000Y-76337500D03*
X162750000Y-76337500D03*
X162250000Y-76337500D03*
X161750000Y-76337500D03*
X161250000Y-76337500D03*
X160750000Y-76337500D03*
X160250000Y-76337500D03*
%TD*%
D12*
%TO.C,R5*%
X171500000Y-104500000D03*
X173325000Y-104500000D03*
%TD*%
D10*
%TO.C,C9*%
X137000000Y-101500000D03*
X138900000Y-101500000D03*
%TD*%
D25*
%TO.C,U1*%
X135875000Y-60745000D03*
X135875000Y-63025000D03*
D26*
X142175000Y-63025000D03*
D25*
X135875000Y-65305000D03*
%TD*%
D10*
%TO.C,C2*%
X130000000Y-63500000D03*
X131900000Y-63500000D03*
%TD*%
%TO.C,C8*%
X136500000Y-94000000D03*
X138400000Y-94000000D03*
%TD*%
M02*
